<?xml version="1.0" encoding="UTF-8"?>
<svg id="Capa_2" data-name="Capa 2" xmlns="http://www.w3.org/2000/svg" viewBox="0 0 54.24 46.56">
  <defs>
    <style>
      .cls-1 {
        stroke-width: 0px;
      }
    </style>
  </defs>
  <g id="_1" data-name="1">
    <g id="_1010_chating_chat_sms_mail" data-name="1010, chating, chat, sms, mail">
      <g>
        <path class="cls-1" d="m54.24,13.21c0-7.26-5.95-13.21-13.21-13.21h-16.43c-7.26,0-13.21,5.95-13.21,13.21s5.95,13.21,13.21,13.21h10.89l10.49,6.15c.5.3,1.01.2,1.41-.1.4-.3.5-.91.3-1.41l-2.22-5.44c5.24-1.92,8.77-6.86,8.77-12.4Zm-10.59,10.38c-.71.2-1.11,1.01-.81,1.71l1.31,3.23-7.66-4.44c-.2-.1-.4-.2-.6-.2h-11.29c-5.95,0-10.69-4.84-10.69-10.69S18.65,2.52,24.6,2.52h16.43c5.95,0,10.69,4.84,10.69,10.69,0,4.84-3.33,9.17-8.07,10.38Z"/>
        <path class="cls-1" d="m40.83,31.66c-.61-.3-1.41-.1-1.71.5-1.92,3.43-5.44,5.65-9.48,5.65h-11.29c-.2,0-.4.1-.6.2l-7.66,4.44,1.31-3.23c.3-.71-.1-1.51-.81-1.71-4.74-1.21-8.07-5.44-8.07-10.39,0-3.93,2.12-7.56,5.65-9.48.6-.3.81-1.11.5-1.71-.3-.6-1.11-.81-1.71-.5C2.62,17.75,0,22.18,0,27.12c0,5.55,3.43,10.49,8.57,12.4l-2.12,5.34c-.2.5-.1,1.11.3,1.41.4.3,1.01.4,1.41.1l10.49-6.15h10.99c4.84,0,9.38-2.62,11.7-6.96.3-.5.1-1.31-.5-1.61Z"/>
      </g>
    </g>
  </g>
</svg>