<?xml version="1.0" encoding="UTF-8"?>
<svg id="Capa_2" data-name="Capa 2" xmlns="http://www.w3.org/2000/svg" viewBox="0 0 74.18 74.18">
  <defs>
    <style>
      .cls-1, .cls-2 {
        stroke-width: 0px;
      }

      .cls-3 {
        fill: none;
        stroke-width: 2px;
      }

      .cls-3, .cls-4 {
        stroke: #000;
        stroke-miterlimit: 10;
      }

      .cls-2 {
        fill: #f4f4f4;
      }

      .cls-4 {
        fill: #fff;
        stroke-width: .82px;
      }
    </style>
  </defs>
  <g id="BACKGROUND_1" data-name="BACKGROUND 1">
    <g>
      <circle class="cls-3" cx="37.09" cy="37.09" r="36.09" transform="translate(-11.19 16.58) rotate(-21.99)"/>
      <g>
        <path class="cls-1" d="m23.43,39.06h-4.09c-2.94,0-5.32-2.38-5.32-5.32h0c0-2.94,2.38-5.32,5.32-5.32h4.09v10.63Z"/>
        <polygon class="cls-1" points="47.84 16.72 47.84 50.77 25.06 39.06 25.06 28.43 47.84 16.72"/>
        <path class="cls-1" d="m52.03,15.78v35.94c0,.93-.76,1.69-1.69,1.69h0c-.93,0-1.69-.76-1.69-1.69V15.78c0-.93.76-1.69,1.69-1.69h0c.93,0,1.69.76,1.69,1.69Z"/>
        <path class="cls-2" d="m60.78,33.75c0,2-.81,3.82-2.13,5.13-1.31,1.31-3.13,2.13-5.13,2.13h-.34v-14.52h.34c4.01,0,7.26,3.25,7.26,7.26Z"/>
        <path class="cls-1" d="m20.85,58.27h0c-1.42,0-2.57-1.15-2.57-2.57v-18.04h5.15v18.04c0,1.42-1.15,2.57-2.57,2.57Z"/>
        <line class="cls-4" x1="62.98" y1="33.75" x2="70.07" y2="33.75"/>
        <line class="cls-4" x1="61.69" y1="28.9" x2="67.85" y2="25.39"/>
        <line class="cls-4" x1="58.17" y1="25.32" x2="61.79" y2="19.23"/>
        <line class="cls-4" x1="61.69" y1="38.59" x2="67.85" y2="42.1"/>
        <line class="cls-4" x1="58.17" y1="42.17" x2="61.79" y2="48.27"/>
      </g>
    </g>
  </g>
</svg>