<?xml version="1.0" encoding="UTF-8"?>
<svg id="Capa_2" data-name="Capa 2" xmlns="http://www.w3.org/2000/svg" viewBox="0 0 19.03 17.17">
  <defs>
    <style>
      .cls-1 {
        fill: #fff;
        stroke-width: 0px;
      }
    </style>
  </defs>
  <g id="Object">
    <g>
      <path class="cls-1" d="m18.67.1H.36C.22.1.1.22.1.36s.12.26.26.26h9.23v1.76H2.44c-.14,0-.26.12-.26.26v9.43c0,.14.12.26.26.26h2.33c.1,0,.19-.06.23-.14l2.26-4.4,2.1,2.13s.12.08.19.08h0c.07,0,.14-.03.19-.08l4.68-4.72c.1-.1.1-.27,0-.37-.1-.1-.27-.1-.37,0l-4.5,4.53-2.17-2.2c-.06-.06-.14-.09-.23-.07-.08.01-.16.06-.19.14l-2.35,4.58h-1.9V2.91h13.76v8.91H4.13c-.14,0-.26.12-.26.26s.12.26.26.26l5.16.03-4.47,4.24c-.11.1-.11.27,0,.37.1.11.27.11.37,0l4.41-4.18v3.99c0,.14.12.26.26.26s.26-.12.26-.26v-3.98l4.31,4.17c.05.05.12.07.18.07s.14-.03.19-.08c.1-.1.1-.27,0-.37l-4.38-4.24,6.33-.03c.14,0,.26-.12.26-.26V2.65c0-.14-.12-.26-.26-.26h-6.62V.62h8.56c.14,0,.26-.12.26-.26s-.12-.26-.26-.26Z"/>
      <path class="cls-1" d="m14.6,17.17c-.09,0-.18-.04-.25-.1l-4.14-4.01v3.75c0,.2-.16.36-.36.36s-.36-.16-.36-.36v-3.76l-4.24,4.02c-.07.07-.16.1-.26.1-.1,0-.19-.04-.25-.11-.14-.14-.13-.37.01-.51l4.29-4.07-6.6-.03c-.2,0-.36-.16-.36-.36V2.65c0-.2.16-.36.36-.36h7.04V.72H.36c-.2,0-.36-.16-.36-.36s.16-.36.36-.36h18.31c.2,0,.36.16.36.36s-.16.36-.36.36h-8.46v1.57h6.52c.2,0,.36.16.36.36v9.43c0,.2-.16.36-.36.36l-6.09.03,4.21,4.07c.14.14.15.37,0,.51-.07.07-.16.11-.26.11Zm-4.49-4.44s.05,0,.07.03l4.31,4.17c.06.06.17.06.23,0,.06-.06.06-.17,0-.23l-4.38-4.24s-.04-.07-.02-.11c.01-.04.05-.06.09-.06l6.33-.03c.09,0,.16-.07.16-.16V2.65c0-.09-.07-.16-.16-.16h-6.62c-.05,0-.1-.04-.1-.1V.62c0-.05.04-.1.1-.1h8.56c.09,0,.16-.07.16-.16s-.07-.16-.16-.16H.36c-.09,0-.16.07-.16.16s.07.16.16.16h9.23c.05,0,.1.04.1.1v1.76c0,.05-.04.1-.1.1H2.44c-.09,0-.16.07-.16.16v9.43c0,.09.07.16.16.16h1.36s-.04-.1-.04-.16.01-.11.04-.16h-1.1c-.05,0-.1-.04-.1-.1V2.91c0-.05.04-.1.1-.1h13.76c.05,0,.1.04.1.1v8.91c0,.05-.04.1-.1.1H5.26l-.17.33s0,0,0,0l4.2.03s.08.02.09.06c.01.04,0,.08-.02.11l-4.47,4.24c-.07.06-.07.17,0,.23.03.03.07.05.11.05.04,0,.09-.01.12-.05l4.41-4.18s.07-.03.11-.02c.04.02.06.05.06.09v3.99c0,.09.07.16.16.16s.16-.07.16-.16v-3.98s.02-.07.06-.09c.01,0,.03,0,.04,0Zm-5.98-.48h.64c.06,0,.12-.03.15-.09l.12-.24h-.91c-.09,0-.16.07-.16.16s.07.16.16.16Zm1.23-.52h11.01V3.01H2.81v8.71h1.75l2.32-4.52c.05-.1.15-.17.27-.19.11-.02.23.02.31.1l2.1,2.13,4.43-4.46c.07-.07.16-.11.25-.11h0c.1,0,.19.04.25.1.07.07.11.16.11.25,0,.1-.04.19-.1.26l-4.68,4.72c-.13.14-.38.14-.51,0l-2.01-2.04-1.93,3.75Zm-.59,0h.37l2.03-3.96s.04-.05.07-.05c.03,0,.06,0,.08.03l2.1,2.13c.06.06.17.06.23,0l4.68-4.72s.05-.07.05-.12c0-.04-.02-.08-.05-.12-.03-.03-.07-.05-.12-.05h0s-.08.02-.12.05l-4.5,4.53s-.04.03-.07.03h0s-.05-.01-.07-.03l-2.17-2.2s-.09-.05-.14-.05c-.05,0-.1.04-.12.09l-2.28,4.43Z"/>
    </g>
  </g>
</svg>