<?xml version="1.0" encoding="UTF-8"?>
<svg id="Capa_2" data-name="Capa 2" xmlns="http://www.w3.org/2000/svg" viewBox="0 0 44.2 57.79">
  <defs>
    <style>
      .cls-1 {
        stroke-width: 0px;
      }
    </style>
  </defs>
  <g id="_1" data-name="1">
    <g id="_1011_bag_hand_bag_shopping_buy" data-name="1011, bag, hand bag, shopping, buy">
      <path class="cls-1" d="m44.06,57.17h0c.1-.2.2-.5.1-.71,0-.1-3.33-19.46-5.04-29.04-2.72-14.92-2.52-14.01-2.62-14.12-.1-.2-.1-.3-.3-.5-.2-.3-.6-.4-1.01-.4h-5.75v-3.13c0-5.14-4.13-9.28-9.28-9.28s-9.28,4.13-9.28,9.28v3.13h-5.85c-.61,0-1.21.5-1.21,1.11L0,56.36c0,.3.1.71.3,1.01.2.3.6.4.91.4h41.64c.6.1.91-.2,1.21-.6,0,.1,0,0,0,0Zm-2.92-3.63l-3.73-2.92c-.5-.4-1.21-.4-1.71.1l-2.62,2.62,2.62-30.15.91,4.84,4.54,25.51Zm-1.71,1.81h-4.74l2.12-2.12,2.62,2.12ZM13.51,9.38c0-3.73,3.02-6.75,6.75-6.75s6.75,3.02,6.75,6.75v3.13h-13.51v-3.13Zm-7.16,5.65h4.64v5.04c0,.71.6,1.31,1.31,1.31s1.31-.6,1.31-1.31v-5.04h13.61v5.04c0,.71.6,1.31,1.31,1.31s1.31-.6,1.31-1.31v-5.04h4.44l-2.82,31.66H3.53l2.82-31.66Zm-3.02,34.18h27.73l-.5,6.15H2.72l.6-6.15Z"/>
    </g>
  </g>
</svg>