<?xml version="1.0" encoding="UTF-8"?>
<svg id="Capa_2" data-name="Capa 2" xmlns="http://www.w3.org/2000/svg" viewBox="0 0 59.38 55">
  <defs>
    <style>
      .cls-1 {
        stroke-width: 0px;
      }
    </style>
  </defs>
  <g id="_2" data-name="2">
    <g id="_428_Book_bookmark_education" data-name="428, Book, bookmark, education">
      <g>
        <path class="cls-1" d="m13.94,40h.81V0c-4.04.3-7.17,3.6-7.17,7.7v35.7c1.41-2,3.74-3.4,6.36-3.4Z"/>
        <rect class="cls-1" x="22.72" y="8.8" width="22.72" height="8.8"/>
        <path class="cls-1" d="m16.06,40h34.54V0H16.06v40Zm5.45-31.8c0-.3.3-.6.61-.6h24.04c.3,0,.61.3.61.6v10c0,.3-.3.6-.61.6h-24.04c-.3,0-.61-.3-.61-.6v-10Zm.61,14.3h11.41c.3,0,.61.3.61.6s-.3.6-.61.6h-11.41c-.3,0-.61-.3-.61-.6s.3-.6.61-.6Zm0,3.8h18.99c.3,0,.61.3.61.6s-.3.6-.61.6h-18.99c-.3,0-.61-.3-.61-.6s.3-.6.61-.6Z"/>
        <path class="cls-1" d="m7.57,47.5c0,3.4,2.83,6.3,6.36,6.3h36.66v-3.8H14.54c-.3,0-.61-.3-.61-.6s.3-.6.61-.6h35.95v-2.5h-28.38c-.3,0-.61-.3-.61-.6s.3-.6.61-.6h28.38v-3.8H13.94c-3.53,0-6.36,2.8-6.36,6.2Z"/>
        <path class="cls-1" d="m2.52,50c-1.41,0-2.52,1.1-2.52,2.5s1.11,2.5,2.52,2.5,2.52-1.1,2.52-2.5-1.11-2.5-2.52-2.5Z"/>
        <path class="cls-1" d="m56.86,3.8c-1.41,0-2.52,1.1-2.52,2.5s1.11,2.5,2.52,2.5,2.52-1.1,2.52-2.5-1.11-2.5-2.52-2.5Z"/>
        <ellipse class="cls-1" cx="56.25" cy="16.9" rx="1.31" ry="1.3"/>
        <ellipse class="cls-1" cx="3.23" cy="1.9" rx="1.31" ry="1.3"/>
        <ellipse class="cls-1" cx="3.23" cy="34.4" rx="1.31" ry="1.3"/>
        <path class="cls-1" d="m56.25,22.5c-.3,0-.61.3-.61.6v31.3c0,.3.3.6.61.6s.61-.3.61-.6v-31.2c0-.4-.3-.7-.61-.7Z"/>
      </g>
    </g>
  </g>
</svg>