<?xml version="1.0" encoding="UTF-8"?>
<svg id="Capa_2" data-name="Capa 2" xmlns="http://www.w3.org/2000/svg" viewBox="0 0 75.18 79.17">
  <defs>
    <style>
      .cls-1 {
        stroke-width: 0px;
      }
    </style>
  </defs>
  <g id="_123" data-name="123">
    <g>
      <path class="cls-1" d="m55.74,79.17H.65c-.36,0-.65-.29-.65-.65V6.74c0-.36.29-.65.65-.65h55.09c.36,0,.65.29.65.65v71.77c0,.36-.29.65-.65.65Zm-54.44-1.3h53.79V7.39H1.3v70.47Z"/>
      <path class="cls-1" d="m49.24,40.95H7.15c-.36,0-.65-.29-.65-.65v-4.75c0-.36.29-.65.65-.65h42.08c.36,0,.65.29.65.65v4.75c0,.36-.29.65-.65.65Zm-41.43-1.3h40.78v-3.44H7.8v3.44Z"/>
      <path class="cls-1" d="m49.24,47.26H7.15c-.36,0-.65-.29-.65-.65s.29-.65.65-.65h42.08c.36,0,.65.29.65.65s-.29.65-.65.65Z"/>
      <path class="cls-1" d="m37.31,51.43H7.15c-.36,0-.65-.29-.65-.65s.29-.65.65-.65h30.16c.36,0,.65.29.65.65s-.29.65-.65.65Z"/>
      <path class="cls-1" d="m49.24,55.6H7.15c-.36,0-.65-.29-.65-.65s.29-.65.65-.65h42.08c.36,0,.65.29.65.65s-.29.65-.65.65Z"/>
      <path class="cls-1" d="m49.24,59.77H7.15c-.36,0-.65-.29-.65-.65s.29-.65.65-.65h42.08c.36,0,.65.29.65.65s-.29.65-.65.65Z"/>
      <path class="cls-1" d="m41.38,63.95H7.15c-.36,0-.65-.29-.65-.65s.29-.65.65-.65h34.23c.36,0,.65.29.65.65s-.29.65-.65.65Z"/>
      <path class="cls-1" d="m49.24,68.11H7.15c-.36,0-.65-.29-.65-.65s.29-.65.65-.65h42.08c.36,0,.65.29.65.65s-.29.65-.65.65Z"/>
      <path class="cls-1" d="m21.89,30.29H7.15c-.36,0-.65-.29-.65-.65v-14.74c0-.36.29-.65.65-.65h14.74c.36,0,.65.29.65.65v14.74c0,.36-.29.65-.65.65Zm-14.09-1.3h13.44v-13.44H7.8v13.44Z"/>
      <path class="cls-1" d="m47.11,10.22c-.36,0-.65-.29-.65-.65s.29-.65.65-.65c.92,0,1.67-.75,1.67-1.68V2.98c0-.92-.75-1.68-1.67-1.68s-1.68.75-1.68,1.68c0,.36-.29.65-.65.65s-.65-.29-.65-.65c0-1.64,1.34-2.98,2.98-2.98s2.98,1.34,2.98,2.98v4.26c0,1.65-1.33,2.98-2.98,2.98Zm-7.57,0c-.36,0-.65-.29-.65-.65s.29-.65.65-.65c.92,0,1.67-.75,1.67-1.68V2.98c0-.92-.75-1.68-1.67-1.68s-1.68.75-1.68,1.68c0,.36-.29.65-.65.65s-.65-.29-.65-.65c0-1.64,1.34-2.98,2.98-2.98s2.98,1.34,2.98,2.98v4.26c0,1.65-1.33,2.98-2.98,2.98Zm-7.56,0c-.36,0-.65-.29-.65-.65s.29-.65.65-.65c.92,0,1.67-.75,1.67-1.68V2.98c0-.92-.75-1.68-1.67-1.68s-1.68.75-1.68,1.68c0,.36-.29.65-.65.65s-.65-.29-.65-.65c0-1.64,1.34-2.98,2.98-2.98s2.97,1.34,2.97,2.98v4.26c0,1.65-1.33,2.98-2.97,2.98Zm-7.57,0c-.36,0-.65-.29-.65-.65s.29-.65.65-.65c.92,0,1.68-.75,1.68-1.68V2.98c0-.92-.75-1.68-1.68-1.68s-1.68.75-1.68,1.68c0,.36-.29.65-.65.65s-.65-.29-.65-.65c0-1.64,1.34-2.98,2.98-2.98s2.98,1.34,2.98,2.98v4.26c0,1.65-1.34,2.98-2.98,2.98Zm-7.56,0c-.36,0-.65-.29-.65-.65s.29-.65.65-.65c.93,0,1.68-.75,1.68-1.68V2.98c0-.92-.75-1.68-1.68-1.68s-1.68.75-1.68,1.68c0,.36-.29.65-.65.65s-.65-.29-.65-.65c0-1.64,1.34-2.98,2.98-2.98s2.98,1.34,2.98,2.98v4.26c0,1.65-1.34,2.98-2.98,2.98Zm-7.57,0c-.36,0-.65-.29-.65-.65s.29-.65.65-.65c.93,0,1.68-.75,1.68-1.68V2.98c0-.92-.75-1.68-1.68-1.68s-1.67.75-1.67,1.68c0,.36-.29.65-.65.65s-.65-.29-.65-.65c0-1.64,1.33-2.98,2.97-2.98s2.98,1.34,2.98,2.98v4.26c0,1.65-1.34,2.98-2.98,2.98Z"/>
      <path class="cls-1" d="m67.83,76.52h0c-.25,0-.48-.14-.58-.37l-6.55-13.48c-.04-.09-.07-.19-.07-.28V15.86c0-.36.29-.65.65-.65h13.1c.36,0,.65.29.65.65v46.54c0,.1-.02.2-.07.28l-6.55,13.48c-.11.22-.34.37-.58.37Zm-5.9-14.28l5.9,12.14,5.9-12.14V16.51h-11.8v45.74Z"/>
      <path class="cls-1" d="m67.83,76.52h0c-.25,0-.48-.14-.58-.37l-1.86-3.84c-.09-.18-.09-.39,0-.57.09-.18.25-.31.45-.35,1.33-.29,2.65-.29,4,0,.2.04.36.17.45.35.09.18.09.39,0,.57l-1.87,3.84c-.11.22-.34.37-.58.37Zm-.9-3.99l.9,1.85.9-1.85c-.61-.07-1.2-.07-1.8,0Z"/>
      <path class="cls-1" d="m74.53,63.07c-.11,0-.23-.03-.33-.09l-2.15-1.27-1.37,1.19c-.23.2-.56.21-.81.04l-2.16-1.56-1.49,1.49c-.12.12-.29.19-.46.19h0c-.17,0-.34-.07-.46-.19l-1.49-1.49-2.15,1.56c-.29.21-.7.14-.91-.15-.21-.29-.15-.7.15-.91l2.6-1.88c.26-.19.61-.16.84.07l1.42,1.42,1.42-1.42c.23-.23.58-.25.84-.07l2.19,1.58,1.33-1.16c.21-.18.52-.21.76-.07l2.55,1.51c.31.18.41.58.23.89-.12.21-.34.32-.56.32Z"/>
      <path class="cls-1" d="m63.91,61.36c-.36,0-.65-.29-.65-.65V15.86c0-.36.29-.65.65-.65s.65.29.65.65v44.85c0,.36-.29.65-.65.65Z"/>
      <path class="cls-1" d="m67.59,61.59c-.36,0-.65-.29-.65-.65l-.2-45.08c0-.36.29-.65.65-.65h0c.36,0,.65.29.65.65l.2,45.08c0,.36-.29.65-.65.65h0Z"/>
      <path class="cls-1" d="m71.7,62.11c-.36,0-.65-.29-.65-.65V15.86c0-.36.29-.65.65-.65s.65.29.65.65v45.6c0,.36-.29.65-.65.65Z"/>
      <path class="cls-1" d="m74.38,16.51h-13.09c-.36,0-.65-.29-.65-.65v-3.4c0-2.23,1.82-4.05,4.05-4.05h6.3c2.23,0,4.05,1.82,4.05,4.05v3.4c0,.36-.29.65-.65.65Zm-12.44-1.3h11.79v-2.75c0-1.52-1.23-2.75-2.75-2.75h-6.3c-1.51,0-2.75,1.23-2.75,2.75v2.75Z"/>
    </g>
  </g>
</svg>