<?xml version="1.0" encoding="UTF-8"?>
<svg id="Capa_2" data-name="Capa 2" xmlns="http://www.w3.org/2000/svg" viewBox="0 0 78.85 79.11">
  <defs>
    <style>
      .cls-1 {
        stroke-width: 0px;
      }
    </style>
  </defs>
  <g id="_123" data-name="123">
    <g>
      <path class="cls-1" d="m78.2,79.11H.65c-.36,0-.65-.29-.65-.65V.91C0,.64.16.41.4.3c.24-.1.52-.04.71.14l18.72,18.73c.25.25.25.67,0,.92-.25.25-.67.25-.92,0L1.3,2.47v75.33h75.33l-37.67-37.67c-.25-.25-.25-.66,0-.92.25-.25.67-.25.92,0l38.78,38.78c.19.19.24.47.14.71-.1.24-.34.4-.6.4Z"/>
      <path class="cls-1" d="m47.13,66.24H13.52c-.36,0-.65-.29-.65-.65V31.98c0-.26.16-.5.4-.6.25-.1.52-.04.71.14l5.54,5.54c.25.25.25.67,0,.92-.25.25-.67.25-.92,0l-4.43-4.43v31.39h31.39l-8.75-8.77c-.25-.25-.25-.67,0-.92.25-.25.67-.25.92,0l9.86,9.88c.19.19.24.47.14.71-.1.24-.34.4-.6.4Zm-14.43-14.46c-.17,0-.33-.06-.46-.19l-8.08-8.12c-.25-.25-.25-.67,0-.92.25-.25.67-.25.92,0l8.08,8.12c.25.25.25.67,0,.92-.13.13-.29.19-.46.19Z"/>
      <path class="cls-1" d="m22.14,20.07h-.01c-.85-.01-1.67-.4-2.39-1.11-1.72-1.73-2.65-4.9-2.65-8.98,0-2.21.46-4.33,1.38-6.3.57-1.24,1.32-2.41,2.21-3.46.17-.19.43-.27.67-.2.25.07.43.28.46.53.36,2.38,1.71,3.76,3.01,5.1,1.16,1.2,2.35,2.41,2.35,4.34,0,4.08-.93,7.25-2.62,8.95-.78.77-1.6,1.14-2.42,1.14Zm-1.54-2.08s.02.02.03.03c.5.49,1.01.75,1.51.76.48,0,.98-.25,1.45-.7,1.48-1.48,2.29-4.41,2.29-8.08,0-1.39-.91-2.33-1.96-3.41-1.15-1.18-2.41-2.47-3.06-4.45-.46.66-.87,1.37-1.21,2.11-.83,1.8-1.26,3.74-1.26,5.75,0,3.66.8,6.58,2.21,8Z"/>
      <path class="cls-1" d="m25.31,24.01h-6.37c-.36,0-.65-.29-.65-.65,0-.82,0-1.66,0-2.51,0-.66.17-1.3.49-1.86.2-.36.46-.69.77-.97.23-.21.58-.23.82-.04.54.4,1.15.61,1.77.62.59,0,1.2-.21,1.76-.62.25-.18.59-.16.82.05.31.29.57.62.77.98.31.55.48,1.19.48,1.85,0,.85,0,1.69,0,2.51,0,.36-.29.65-.65.65Zm-5.73-1.3h5.08c0-.61,0-1.23,0-1.85,0-.43-.11-.85-.31-1.21-.06-.1-.12-.2-.19-.3-.65.36-1.34.55-2.04.55-.71,0-1.4-.2-2.04-.55-.07.09-.13.19-.19.29-.21.37-.32.79-.32,1.22,0,.62,0,1.24,0,1.85Z"/>
      <path class="cls-1" d="m25.24,29.64h-6.23c-.35,0-.64-.28-.65-.64-.02-.78-.07-4.83-.07-5.63,0-.17.07-.34.19-.46.12-.12.29-.19.46-.19h6.37c.17,0,.34.07.46.19.12.12.19.29.19.47l-.07,5.62c0,.36-.29.64-.65.64Zm-5.59-1.3h4.95l.05-4.33h-5.06c.01,1.13.04,3.21.05,4.33Z"/>
      <path class="cls-1" d="m22.12,58.07s-.03,0-.04,0c-.54-.03-.8-.41-1.43-2.81-1.23-4.65-2.04-13.97-2.29-26.26,0-.17.06-.34.19-.47.12-.12.29-.19.46-.19h6.23c.17,0,.34.07.46.19s.19.29.19.47c-.24,12.27-1.05,21.59-2.29,26.26-.61,2.31-.87,2.81-1.48,2.81Zm-2.45-28.43c.26,11.86,1.05,20.82,2.23,25.29.08.31.16.58.22.8.07-.22.14-.49.22-.8,1.19-4.49,1.98-13.45,2.23-25.29h-4.9Z"/>
      <path class="cls-1" d="m35.47,60.28c-.28,0-.53-.18-.62-.45l-3.83-11.74c-.02-.06-.03-.13-.03-.2V7.39c0-.36.29-.65.65-.65h7.66c.36,0,.65.29.65.65v40.5c0,.07-.01.14-.03.2l-3.83,11.74c-.09.27-.34.45-.62.45Zm-3.18-12.49l3.18,9.75,3.18-9.75V8.04h-6.36v39.75Z"/>
      <path class="cls-1" d="m39.39,48.56c-.15,0-.31-.05-.43-.16l-.98-.86-.58.75c-.12.15-.29.24-.48.25-.19.01-.37-.07-.5-.21l-.96-1.04-.64.96c-.12.18-.32.29-.54.29h0c-.22,0-.42-.11-.54-.29l-.64-.96-.97,1.04c-.25.26-.66.28-.92.03-.26-.25-.28-.66-.03-.92l1.53-1.63c.14-.14.32-.22.53-.2.2.02.38.12.49.29l.56.83.56-.83c.11-.16.29-.27.49-.28.2-.01.39.06.53.21l1,1.07.54-.69c.11-.14.27-.23.45-.25.18-.02.36.04.49.16l1.5,1.32c.27.24.3.65.06.92-.13.15-.31.22-.49.22Z"/>
      <path class="cls-1" d="m39.3,8.04h-7.66c-.36,0-.65-.29-.65-.65v-2.96c0-1.99,1.62-3.61,3.61-3.61h1.75c1.99,0,3.61,1.62,3.61,3.61v2.96c0,.36-.29.65-.65.65Zm-7.01-1.3h6.36v-2.31c0-1.27-1.03-2.31-2.31-2.31h-1.75c-1.27,0-2.31,1.04-2.31,2.31v2.31Z"/>
      <path class="cls-1" d="m7.16,17.81H.65c-.36,0-.65-.29-.65-.65s.29-.65.65-.65h6.51c.36,0,.65.29.65.65s-.29.65-.65.65Z"/>
      <path class="cls-1" d="m4.85,22.68H.65c-.36,0-.65-.29-.65-.65s.29-.65.65-.65h4.2c.36,0,.65.29.65.65s-.29.65-.65.65Z"/>
      <path class="cls-1" d="m7.16,27.56H.65c-.36,0-.65-.29-.65-.65s.29-.65.65-.65h6.51c.36,0,.65.29.65.65s-.29.65-.65.65Z"/>
      <path class="cls-1" d="m4.85,32.43H.65c-.36,0-.65-.29-.65-.65s.29-.65.65-.65h4.2c.36,0,.65.29.65.65s-.29.65-.65.65Z"/>
      <path class="cls-1" d="m7.16,37.3H.65c-.36,0-.65-.29-.65-.65s.29-.65.65-.65h6.51c.36,0,.65.29.65.65s-.29.65-.65.65Z"/>
      <path class="cls-1" d="m4.85,42.17H.65c-.36,0-.65-.29-.65-.65s.29-.65.65-.65h4.2c.36,0,.65.29.65.65s-.29.65-.65.65Z"/>
      <path class="cls-1" d="m7.16,47.03H.65c-.36,0-.65-.29-.65-.65s.29-.65.65-.65h6.51c.36,0,.65.29.65.65s-.29.65-.65.65Z"/>
      <path class="cls-1" d="m4.85,51.9H.65c-.36,0-.65-.29-.65-.65s.29-.65.65-.65h4.2c.36,0,.65.29.65.65s-.29.65-.65.65Z"/>
      <path class="cls-1" d="m7.16,56.77H.65c-.36,0-.65-.29-.65-.65s.29-.65.65-.65h6.51c.36,0,.65.29.65.65s-.29.65-.65.65Z"/>
      <path class="cls-1" d="m4.85,61.65H.65c-.36,0-.65-.29-.65-.65s.29-.65.65-.65h4.2c.36,0,.65.29.65.65s-.29.65-.65.65Z"/>
      <path class="cls-1" d="m7.16,66.52H.65c-.36,0-.65-.29-.65-.65s.29-.65.65-.65h6.51c.36,0,.65.29.65.65s-.29.65-.65.65Z"/>
      <path class="cls-1" d="m4.85,71.39H.65c-.36,0-.65-.29-.65-.65s.29-.65.65-.65h4.2c.36,0,.65.29.65.65s-.29.65-.65.65Z"/>
      <path class="cls-1" d="m12.25,78.56c-.36,0-.65-.29-.65-.65v-6.52c0-.36.29-.65.65-.65s.65.29.65.65v6.52c0,.36-.29.65-.65.65Z"/>
      <path class="cls-1" d="m17.12,78.56c-.36,0-.65-.29-.65-.65v-4.21c0-.36.29-.65.65-.65s.65.29.65.65v4.21c0,.36-.29.65-.65.65Z"/>
      <path class="cls-1" d="m21.99,78.56c-.36,0-.65-.29-.65-.65v-6.52c0-.36.29-.65.65-.65s.65.29.65.65v6.52c0,.36-.29.65-.65.65Z"/>
      <path class="cls-1" d="m26.86,78.56c-.36,0-.65-.29-.65-.65v-4.21c0-.36.29-.65.65-.65s.65.29.65.65v4.21c0,.36-.29.65-.65.65Z"/>
      <path class="cls-1" d="m31.73,78.56c-.36,0-.65-.29-.65-.65v-6.52c0-.36.29-.65.65-.65s.65.29.65.65v6.52c0,.36-.29.65-.65.65Z"/>
      <path class="cls-1" d="m36.6,78.56c-.36,0-.65-.29-.65-.65v-4.21c0-.36.29-.65.65-.65s.65.29.65.65v4.21c0,.36-.29.65-.65.65Z"/>
      <path class="cls-1" d="m41.47,78.56c-.36,0-.65-.29-.65-.65v-6.52c0-.36.29-.65.65-.65s.65.29.65.65v6.52c0,.36-.29.65-.65.65Z"/>
      <path class="cls-1" d="m46.35,78.56c-.36,0-.65-.29-.65-.65v-4.21c0-.36.29-.65.65-.65s.65.29.65.65v4.21c0,.36-.29.65-.65.65Z"/>
      <path class="cls-1" d="m51.22,78.56c-.36,0-.65-.29-.65-.65v-6.52c0-.36.29-.65.65-.65s.65.29.65.65v6.52c0,.36-.29.65-.65.65Z"/>
      <path class="cls-1" d="m56.09,78.56c-.36,0-.65-.29-.65-.65v-4.21c0-.36.29-.65.65-.65s.65.29.65.65v4.21c0,.36-.29.65-.65.65Z"/>
      <path class="cls-1" d="m60.96,78.56c-.36,0-.65-.29-.65-.65v-6.52c0-.36.29-.65.65-.65s.65.29.65.65v6.52c0,.36-.29.65-.65.65Z"/>
      <path class="cls-1" d="m65.83,78.56c-.36,0-.65-.29-.65-.65v-4.21c0-.36.29-.65.65-.65s.65.29.65.65v4.21c0,.36-.29.65-.65.65Z"/>
    </g>
  </g>
</svg>