<?xml version="1.0" encoding="UTF-8"?>
<svg id="Capa_2" data-name="Capa 2" xmlns="http://www.w3.org/2000/svg" viewBox="0 0 67.56 79.11">
  <defs>
    <style>
      .cls-1 {
        fill: none;
        stroke: #000;
        stroke-linecap: round;
        stroke-linejoin: round;
        stroke-width: 1.3px;
      }
    </style>
  </defs>
  <g id="_123" data-name="123">
    <g>
      <g>
        <path class="cls-1" d="m33.58,11.67c3.54,0,6.4,2.87,6.4,6.4s-2.86,6.4-6.4,6.4-6.39-2.87-6.39-6.4,2.86-6.4,6.39-6.4Z"/>
        <polygon class="cls-1" points="16.26 74.7 23.1 74.7 44.47 74.7 51.3 74.7 51.3 78.46 16.26 78.46 16.26 74.7"/>
        <polygon class="cls-1" points="41.33 62.75 44.47 74.7 23.1 74.7 26.24 62.75 41.33 62.75"/>
        <path class="cls-1" d="m3.75,55.08h60.05c1.71,0,3.1-1.41,3.1-3.11v7.11c0,2.01-1.65,3.67-3.67,3.67H4.33c-2.02,0-3.68-1.66-3.68-3.67v-7.11c0,1.71,1.4,3.11,3.1,3.11Zm28.64,3.84c0,.76.62,1.38,1.39,1.38s1.39-.62,1.39-1.38-.61-1.4-1.39-1.4-1.39.62-1.39,1.4Z"/>
        <polygon class="cls-1" points="12.66 42.96 12.66 44.4 12.66 45.83 7.55 45.83 7.55 42.96 12.66 42.96"/>
        <polygon class="cls-1" points="38.63 41.56 38.63 44.4 38.63 47.24 28.55 47.24 28.55 41.56 38.63 41.56"/>
        <polygon class="cls-1" points="54.5 42.96 59.59 42.96 59.59 45.83 54.5 45.83 54.5 44.4 54.5 42.96"/>
        <path class="cls-1" d="m32.33,35.48l-.72-4.81c-.91-.15-1.78-.37-2.62-.69l-3.03,3.8-2.17-1.25,1.78-4.53c-.7-.57-1.35-1.22-1.92-1.91l-4.53,1.79-1.25-2.17,3.81-3.04c-.32-.83-.57-1.72-.7-2.62l-4.81-.72v-2.5l4.81-.72c.14-.92.38-1.79.7-2.63l-.62-.49-3.18-2.54,1.25-2.17,4.53,1.79c.57-.71,1.21-1.35,1.92-1.92l-1.78-4.53,2.17-1.25,3.03,3.81c.84-.32,1.71-.57,2.62-.69l.72-4.82h2.5l.73,4.82c.9.13,1.77.37,2.62.69l3.03-3.81,2.17,1.25-1.79,4.53c.71.58,1.35,1.21,1.91,1.92l4.54-1.79,1.25,2.17-3.18,2.54-.63.49c.32.84.56,1.71.7,2.63l4.81.72v2.49l-4.81.73c-.14.9-.38,1.79-.7,2.62l3.81,3.04-1.25,2.16-4.54-1.78c-.57.69-1.2,1.35-1.91,1.91l1.79,4.53-2.17,1.25-3.03-3.8c-.84.32-1.72.55-2.62.69l-.73,4.81h-2.5Zm-5.14-17.41c0,3.52,2.86,6.4,6.39,6.4s6.4-2.87,6.4-6.4-2.86-6.4-6.4-6.4-6.39,2.87-6.39,6.4Z"/>
        <path class="cls-1" d="m7.55,42.96v2.87h5.11v-2.87h-5.11Zm52.04,0h-5.1v2.87h5.1v-2.87Zm-20.96-1.4h-10.08v5.68h10.08v-5.68Zm-7.02-10.9l.72,4.81h2.5l.73-4.81c.9-.15,1.77-.37,2.62-.69l3.03,3.8,2.17-1.25-1.79-4.53c.71-.57,1.35-1.22,1.91-1.91l4.54,1.78,1.25-2.16-3.81-3.04c.32-.83.56-1.72.7-2.62l4.81-.73v-2.49l-4.81-.72c-.14-.92-.38-1.79-.7-2.63l.63-.49h17.13c2.02,0,3.67,1.65,3.67,3.67v35.32c0,1.71-1.4,3.11-3.1,3.11H3.75c-1.71,0-3.1-1.41-3.1-3.11V16.65c0-2.02,1.66-3.67,3.68-3.67h16.73l.62.49c-.32.84-.57,1.71-.7,2.63l-4.81.72v2.5l4.81.72c.14.9.38,1.79.7,2.62l-3.81,3.04,1.25,2.17,4.53-1.79c.57.69,1.21,1.35,1.92,1.91l-1.78,4.53,2.17,1.25,3.03-3.8c.84.32,1.71.55,2.62.69Z"/>
      </g>
      <g>
        <path class="cls-1" d="m26.24,62.75H4.33c-2.02,0-3.68-1.66-3.68-3.67V16.65c0-2.02,1.66-3.67,3.68-3.67h16.73"/>
        <path class="cls-1" d="m46.11,12.98h17.13c2.02,0,3.67,1.65,3.67,3.67v42.42c0,2.01-1.65,3.67-3.67,3.67h-21.91"/>
        <path class="cls-1" d="m66.91,51.97c0,1.71-1.4,3.11-3.1,3.11H3.75c-1.71,0-3.1-1.41-3.1-3.11"/>
        <polyline class="cls-1" points="23.1 74.7 26.24 62.75 41.33 62.75 44.47 74.7"/>
        <path class="cls-1" d="m33.78,57.53c.77,0,1.39.62,1.39,1.4s-.61,1.38-1.39,1.38-1.39-.62-1.39-1.38.62-1.4,1.39-1.4Z"/>
        <polygon class="cls-1" points="44.47 74.7 51.3 74.7 51.3 78.46 16.26 78.46 16.26 74.7 23.1 74.7 44.47 74.7"/>
        <path class="cls-1" d="m33.58,11.67c3.54,0,6.4,2.87,6.4,6.4s-2.86,6.4-6.4,6.4-6.39-2.87-6.39-6.4,2.86-6.4,6.39-6.4Z"/>
        <path class="cls-1" d="m21.07,12.98l.62.49c-.32.84-.57,1.71-.7,2.63l-4.81.72v2.5l4.81.72c.14.9.38,1.79.7,2.62l-3.81,3.04,1.25,2.17,4.53-1.79c.57.69,1.21,1.35,1.92,1.91l-1.78,4.53,2.17,1.25,3.03-3.8c.84.32,1.71.55,2.62.69l.72,4.81h2.5l.73-4.81c.9-.15,1.77-.37,2.62-.69l3.03,3.8,2.17-1.25-1.79-4.53c.71-.57,1.35-1.22,1.91-1.91l4.54,1.78,1.25-2.16-3.81-3.04c.32-.83.56-1.72.7-2.62l4.81-.73v-2.49l-4.81-.72c-.14-.92-.38-1.79-.7-2.63l.63-.49,3.18-2.54-1.25-2.17-4.54,1.79c-.57-.71-1.2-1.35-1.91-1.92l1.79-4.53-2.17-1.25-3.03,3.81c-.84-.32-1.72-.57-2.62-.69l-.73-4.82h-2.5l-.72,4.82c-.91.13-1.78.37-2.62.69l-3.03-3.81-2.17,1.25,1.78,4.53c-.7.58-1.35,1.21-1.92,1.92l-4.53-1.79-1.25,2.17,3.18,2.54Z"/>
        <polygon class="cls-1" points="28.55 41.56 38.63 41.56 38.63 44.4 38.63 47.24 28.55 47.24 28.55 41.56"/>
        <polygon class="cls-1" points="54.5 42.96 59.59 42.96 59.59 45.83 54.5 45.83 54.5 44.4 54.5 42.96"/>
        <line class="cls-1" x1="38.63" y1="44.4" x2="54.5" y2="44.4"/>
        <polygon class="cls-1" points="12.66 42.96 7.55 42.96 7.55 45.83 12.66 45.83 12.66 44.4 12.66 42.96"/>
        <line class="cls-1" x1="28.52" y1="44.4" x2="12.66" y2="44.4"/>
      </g>
    </g>
  </g>
</svg>