<?xml version="1.0" encoding="UTF-8"?>
<svg id="Capa_2" data-name="Capa 2" xmlns="http://www.w3.org/2000/svg" viewBox="0 0 66.2 79.11">
  <defs>
    <style>
      .cls-1 {
        stroke-width: 0px;
      }
    </style>
  </defs>
  <g id="_123" data-name="123">
    <g>
      <path class="cls-1" d="m65.55,47H.65c-.36,0-.65-.29-.65-.65V.65c0-.36.29-.65.65-.65h64.9c.36,0,.65.29.65.65v45.7c0,.36-.29.65-.65.65ZM1.3,45.7h63.6V1.3H1.3v44.4Z"/>
      <path class="cls-1" d="m61.13,42.58H5.07c-.36,0-.65-.29-.65-.65V5.07c0-.36.29-.65.65-.65h56.07c.36,0,.65.29.65.65v36.86c0,.36-.29.65-.65.65Zm-55.42-1.3h54.77V5.72H5.72v35.56Z"/>
      <path class="cls-1" d="m43.1,56.21s-.01,0-.02,0h-19.97c-.21,0-.4-.1-.53-.27-.12-.17-.16-.38-.09-.58l2.95-9.21c.09-.27.34-.45.62-.45h14.07c.28,0,.53.18.62.45l2.9,9.07c.06.1.1.22.1.34,0,.36-.29.65-.65.65Zm-19.1-1.3h18.19l-2.53-7.91h-13.12l-2.53,7.91Z"/>
      <path class="cls-1" d="m33.1,53c-1.13,0-2.04-.92-2.04-2.05s.92-2.05,2.04-2.05,2.04.92,2.04,2.05-.92,2.05-2.04,2.05Zm0-2.79c-.41,0-.74.34-.74.75s.33.75.74.75.74-.33.74-.75-.33-.75-.74-.75Z"/>
      <path class="cls-1" d="m61.82,79.11s-.01,0-.02,0H4.4c-.19,0-.37-.08-.5-.23-.12-.15-.18-.34-.15-.53l2.95-18.24c.05-.32.32-.55.64-.55h51.51c.32,0,.59.23.64.55l2.92,18.08c.04.08.05.17.05.26,0,.36-.29.65-.65.65Zm-56.66-1.3h55.88l-2.74-16.94H7.89l-2.74,16.94Z"/>
      <path class="cls-1" d="m54.71,64.66H11.49c-.36,0-.65-.29-.65-.65s.29-.65.65-.65h43.23c.36,0,.65.29.65.65s-.29.65-.65.65Z"/>
      <path class="cls-1" d="m54.71,70.09H11.49c-.36,0-.65-.29-.65-.65s.29-.65.65-.65h43.23c.36,0,.65.29.65.65s-.29.65-.65.65Z"/>
      <path class="cls-1" d="m53.68,75.15h-10.98c-.36,0-.65-.29-.65-.65s.29-.65.65-.65h10.98c.36,0,.65.29.65.65s-.29.65-.65.65Zm-31.37,0h-10.82c-.36,0-.65-.29-.65-.65s.29-.65.65-.65h10.82c.36,0,.65.29.65.65s-.29.65-.65.65Z"/>
      <path class="cls-1" d="m38.87,75.15h-14.19c-.36,0-.65-.29-.65-.65s.29-.65.65-.65h14.19c.36,0,.65.29.65.65s-.29.65-.65.65Z"/>
      <path class="cls-1" d="m32.27,18.07s-.03,0-.05,0c0,0-.01,0-.02,0-.59-.01-1.1-.21-1.47-.57-.37-.37-.56-.88-.57-1.47,0-.03,0-.06,0-.09,0-1.31.87-2.9,2.43-4.46.85-.85,1.84-1.49,2.93-1.89.71-.25,1.44-.41,2.17-.47.25-.03.5.11.62.33.12.22.11.5-.04.7-.68.92-.69,1.82-.71,2.78-.01.91-.02,1.91-.82,2.71-1.57,1.56-3.16,2.43-4.48,2.43Zm-.02-1.31s.06,0,.09,0c.5-.02,1.73-.28,3.5-2.04.4-.4.43-.94.44-1.78.01-.7.02-1.49.3-2.31-.2.05-.4.12-.6.19-.91.34-1.74.87-2.46,1.59-1.79,1.79-2.03,3.03-2.05,3.51,0,.03,0,.05,0,.07,0,.19.03.44.18.6.1.1.29.17.51.18.03,0,.05,0,.08,0Z"/>
      <path class="cls-1" d="m30.92,20.31c-.17,0-.33-.06-.46-.19-.25-.25-.25-.67,0-.92.3-.3.61-.6.92-.92.1-.1.17-.21.22-.32-.3-.12-.57-.3-.79-.53-.23-.24-.41-.5-.53-.8-.12.05-.22.12-.32.22-.31.31-.62.61-.91.91-.25.26-.66.26-.92.01-.26-.25-.26-.66-.01-.92.3-.31.61-.62.93-.93.29-.29.64-.5,1.01-.59.21-.07.46-.1.72-.08.31.01.57.25.61.55.04.28.15.51.34.7.17.17.42.29.7.34.31.05.54.3.55.61.01.25-.02.51-.09.75-.11.37-.3.71-.58.99-.31.31-.62.62-.92.92-.13.12-.29.19-.46.19Z"/>
      <path class="cls-1" d="m28.82,22.36c-.17,0-.33-.06-.46-.19l-2.29-2.3c-.25-.25-.25-.66,0-.91l.44-.45c.55-.56,1.39-1.43,1.61-1.64.25-.25.66-.26.92,0,.25.25.25.66,0,.92-.21.22-1.05,1.07-1.6,1.63l1.39,1.39c.19-.19.42-.41.64-.63l.99-.97c.26-.25.67-.25.92,0,.25.26.25.67,0,.92l-1,.97c-.47.45-.95.92-1.1,1.07-.13.12-.29.19-.46.19Z"/>
      <path class="cls-1" d="m17.24,31.68c-.17,0-.37-.08-.49-.2-.41-.46-.15-.96.44-1.96,1.27-2.19,4.42-5.95,8.87-10.57.12-.13.29-.2.46-.2.2-.01.34.07.47.19l2.29,2.3c.12.12.19.29.19.47,0,.17-.07.34-.2.46-4.61,4.43-8.36,7.58-10.57,8.87-1.03.59-1.26.64-1.47.64Zm9.3-11.34c-3.63,3.81-6.4,7.06-7.78,9.14,2.08-1.39,5.33-4.16,9.14-7.78l-1.36-1.36Z"/>
      <path class="cls-1" d="m23.87,37.88c-.18,0-.35-.07-.48-.21-.17-.18-.22-.45-.13-.68l2.34-5.97c.04-.09.09-.17.16-.24l14.64-13.52c.26-.24.68-.23.92.04l3.81,4.12c.12.13.18.29.17.47,0,.17-.08.34-.21.45l-14.65,13.53c-.07.07-.16.12-.25.14l-6.14,1.85c-.06.02-.12.03-.19.03Zm2.89-6.25l-1.8,4.59,4.72-1.42,14.06-12.98-2.92-3.16-14.06,12.98Z"/>
      <path class="cls-1" d="m30.36,36.24c-.29,0-.55-.2-.63-.49l-.2-.78-.51-.04c-.3-.02-.55-.25-.59-.54l-.13-.81h-.59c-.17,0-.34-.07-.46-.19-.12-.12-.19-.29-.19-.46v-.58s-.8-.13-.8-.13c-.35-.06-.6-.39-.54-.74.05-.35.39-.6.74-.54l1.36.21c.32.05.55.32.55.64v.48s.48,0,.48,0c.32,0,.59.23.64.55l.14.85.47.04c.28.02.51.22.58.49l.31,1.23c.09.35-.12.7-.47.79-.05.01-.11.02-.16.02Z"/>
      <path class="cls-1" d="m44.85,22.25c-.17,0-.33-.06-.46-.19l-3.97-3.96c-.12-.12-.19-.29-.19-.46s.07-.34.19-.46l1.04-1.03c.78-.79,2.18-.8,2.97,0l1.91,1.9c.4.4.62.94.62,1.5,0,.56-.22,1.09-.62,1.48l-1.03,1.03c-.13.13-.29.19-.46.19Zm-3.05-4.61l3.05,3.04.57-.57c.15-.15.23-.35.23-.56,0-.22-.08-.42-.24-.58l-1.91-1.9c-.3-.3-.83-.3-1.13,0l-.58.58Z"/>
    </g>
  </g>
</svg>