<?xml version="1.0" encoding="UTF-8"?>
<svg id="Capa_2" data-name="Capa 2" xmlns="http://www.w3.org/2000/svg" viewBox="0 0 51.82 53.13">
  <defs>
    <style>
      .cls-1 {
        stroke-width: 0px;
      }
    </style>
  </defs>
  <g id="_1" data-name="1">
    <g id="_1005_printer_print_printed_machine" data-name="1005, printer, print, printed, machine">
      <g>
        <path class="cls-1" d="m46.68,8.87h-7.46V1.31c0-.71-.61-1.31-1.31-1.31H13.91c-.7,0-1.31.6-1.31,1.31v7.56h-7.46c-2.82,0-5.14,2.32-5.14,5.14v26.31c0,2.82,2.32,5.14,5.14,5.14h7.46v6.35c0,.71.61,1.31,1.31,1.31h24c.71,0,1.31-.6,1.31-1.31v-6.35h7.46c2.82,0,5.14-2.32,5.14-5.14V14.01c-.1-2.82-2.32-5.14-5.14-5.14ZM15.22,2.62h21.48v6.25H15.22V2.62Zm21.37,47.89H15.22v-15.12h21.48c-.1,3.43-.1,11.9-.1,15.12Zm12.6-10.18c0,1.41-1.11,2.62-2.62,2.62h-7.46v-8.87c0-.71-.61-1.31-1.31-1.31H13.91c-.7,0-1.31.6-1.31,1.31v8.87h-7.46c-1.41,0-2.62-1.11-2.62-2.62V14.01c0-1.41,1.11-2.62,2.62-2.62h41.44c1.41,0,2.62,1.11,2.62,2.62v26.31Z"/>
        <path class="cls-1" d="m42.95,13.91c-2.12,0-3.83,1.71-3.83,3.83s1.71,3.83,3.83,3.83,3.83-1.71,3.83-3.83-1.81-3.83-3.83-3.83Zm0,5.04c-.71,0-1.31-.6-1.31-1.31s.6-1.31,1.31-1.31,1.31.61,1.31,1.31-.6,1.31-1.31,1.31Z"/>
        <path class="cls-1" d="m34.08,13.91c-2.12,0-3.83,1.71-3.83,3.83s1.71,3.83,3.83,3.83,3.83-1.71,3.83-3.83-1.71-3.83-3.83-3.83Zm0,5.04c-.71,0-1.31-.6-1.31-1.31s.61-1.31,1.31-1.31,1.31.61,1.31,1.31-.61,1.31-1.31,1.31Z"/>
        <path class="cls-1" d="m32.87,37.91h-13.91c-.71,0-1.31.6-1.31,1.31s.61,1.31,1.31,1.31h13.91c.71,0,1.31-.6,1.31-1.31s-.61-1.31-1.31-1.31Z"/>
        <path class="cls-1" d="m32.87,41.64h-13.91c-.71,0-1.31.6-1.31,1.31s.61,1.31,1.31,1.31h13.91c.71,0,1.31-.6,1.31-1.31-.1-.71-.61-1.31-1.31-1.31Z"/>
        <path class="cls-1" d="m32.87,45.47h-13.91c-.71,0-1.31.6-1.31,1.31s.61,1.31,1.31,1.31h13.91c.71,0,1.31-.6,1.31-1.31-.1-.81-.61-1.31-1.31-1.31Z"/>
      </g>
    </g>
  </g>
</svg>