<?xml version="1.0" encoding="UTF-8"?>
<svg id="Capa_2" data-name="Capa 2" xmlns="http://www.w3.org/2000/svg" viewBox="0 0 19.86 17.36">
  <defs>
    <style>
      .cls-1 {
        fill: #fff;
        stroke-width: 0px;
      }
    </style>
  </defs>
  <g id="Object">
    <g>
      <g>
        <path class="cls-1" d="m7.44,12.05v4.95c0,.14.12.26.26.26h6.88c.14,0,.26-.12.26-.26s-.12-.26-.26-.26h-6.62v-4.46h7.15c.09,0,.17-.05.22-.12l4.25-6.81c.05-.08.05-.18,0-.27s-.13-.14-.23-.14H6.53L5.6.31c-.02-.12-.13-.21-.26-.21H.36C.22.1.1.22.1.36s.12.26.26.26h4.77l2.31,11.43Zm7.86-6.58h3.59l-1.03,1.65s-.02,0-.04,0h-2.53v-1.64Zm0,2.16h2.24l-1.31,2.1h-.93v-2.1Zm0,2.62h.61l-.61.97v-.97Zm-7.79-.48l-.43-2.14h3.63v2.1h-3.07s-.09.02-.13.04Zm3.73-4.3h3.54v1.64h-3.54v-1.64Zm0,2.16h3.54v2.1h-3.54v-2.1Zm0,4.08v-1.46h3.54v1.51h-3.55s0-.03,0-.05Zm-3.32.05l-.31-1.51s.02,0,.04,0h3.07v1.46s0,.03,0,.05h-2.81Zm2.8-6.29v1.64h-3.74l-.33-1.64h4.07Z"/>
        <path class="cls-1" d="m14.58,17.36h-6.88c-.2,0-.36-.16-.36-.36v-4.94L5.04.72H.36c-.2,0-.36-.16-.36-.36s.16-.36.36-.36h4.98c.17,0,.32.12.35.29l.92,4.56h12.75c.13,0,.25.07.32.19.06.11.06.25,0,.37l-4.25,6.81c-.07.11-.18.17-.31.17h-7.05v4.26h6.52c.2,0,.36.16.36.36s-.16.36-.36.36ZM.36.2c-.09,0-.16.07-.16.16s.07.16.16.16h4.76s.09.03.1.08l2.31,11.43s0,.01,0,.02v4.95c0,.09.07.16.16.16h6.88c.09,0,.16-.07.16-.16s-.07-.16-.16-.16h-6.62c-.05,0-.1-.04-.1-.1v-4.46c0-.05.04-.1.1-.1h7.15c.06,0,.11-.03.14-.08l4.25-6.81c.03-.05.03-.11,0-.17-.03-.05-.08-.08-.14-.08H6.53s-.09-.03-.1-.08L5.5.33c-.02-.08-.08-.13-.16-.13H.36Zm14.41,11.66h-3.55s-.06-.01-.08-.04-.03-.05-.02-.08l.1-.02h-.09s0-.01,0-.01v-1.46c0-.05.04-.1.1-.1h3.54c.05,0,.1.04.1.1v1.51c0,.05-.04.1-.1.1Zm-3.44-.2h3.34v-1.31h-3.34v1.31Zm-.61.2h-2.81s-.09-.03-.1-.08l-.31-1.51s0-.06.02-.09c.02-.02.05-.04.09-.03,0,0,.02,0,.03,0h3.06c.05,0,.1.04.1.1v1.46s0,.03,0,.03c0,.03,0,.06-.02.08-.02.02-.05.04-.08.04Zm-2.73-.2h2.62v-1.31h-2.89l.26,1.31Zm7.31-.34s-.02,0-.03,0c-.04-.01-.07-.05-.07-.09v-.97c0-.05.04-.1.1-.1h.61s.07.02.09.05.02.07,0,.1l-.61.97s-.05.05-.08.05Zm.1-.97v.53l.33-.53h-.33Zm-7.89-.48s-.03,0-.04,0c-.03-.01-.05-.04-.06-.07l-.43-2.14s0-.06.02-.08c.02-.02.05-.04.08-.04h3.63c.05,0,.1.04.1.1v2.1c0,.05-.04.1-.1.1h-3.07s-.05,0-.08.03c-.02,0-.03.01-.05.01Zm-.31-2.14l.39,1.91s.04,0,.06,0h2.97v-1.9h-3.42Zm9.03,2.1h-.93c-.05,0-.1-.04-.1-.1v-2.1c0-.05.04-.1.1-.1h2.24s.07.02.09.05c.02.03.02.07,0,.1l-1.31,2.1s-.05.05-.08.05Zm-.84-.2h.78l1.19-1.9h-1.97v1.9Zm-.62.2h-3.54c-.05,0-.1-.04-.1-.1v-2.1c0-.05.04-.1.1-.1h3.54c.05,0,.1.04.1.1v2.1c0,.05-.04.1-.1.1Zm-3.44-.2h3.34v-1.9h-3.34v1.9Zm6.53-2.42s0,0-.01,0c0,0-.02,0-.03,0h-2.52c-.05,0-.1-.04-.1-.1v-1.64c0-.05.04-.1.1-.1h3.59s.07.02.09.05.02.07,0,.1l-1.03,1.65s-.05.05-.08.05Zm-2.47-.2h2.42l.9-1.44h-3.32v1.44Zm-.62.2h-3.54c-.05,0-.1-.04-.1-.1v-1.64c0-.05.04-.1.1-.1h3.54c.05,0,.1.04.1.1v1.64c0,.05-.04.1-.1.1Zm-3.44-.2h3.34v-1.44h-3.34v1.44Zm-.62.2h-3.74s-.09-.03-.1-.08l-.33-1.64s0-.06.02-.08c.02-.02.05-.04.08-.04h4.07c.05,0,.1.04.1.1v1.64c0,.05-.04.1-.1.1Zm-3.66-.2h3.56v-1.44h-3.85l.29,1.44Z"/>
      </g>
      <g>
        <path class="cls-1" d="m19.63,12.57c-.13-.07-.29-.02-.36.11l-2.1,3.88-1.24-1.24c-.1-.1-.27-.1-.37,0-.1.1-.1.27,0,.37l1.49,1.49s.12.08.19.08c.01,0,.02,0,.04,0,.08-.01.15-.06.19-.13l2.27-4.19c.07-.13.02-.29-.11-.36Z"/>
        <path class="cls-1" d="m17.23,17.36c-.1,0-.19-.04-.25-.11l-1.49-1.48c-.07-.07-.11-.16-.11-.25s.04-.19.11-.25c.14-.14.37-.14.51,0l1.14,1.14,2.04-3.77c.09-.17.31-.24.49-.15h0c.08.05.15.12.17.21.03.09.02.19-.03.27l-2.27,4.19c-.05.1-.15.17-.26.19-.02,0-.03,0-.05,0Zm-1.49-2.01s-.08.02-.12.05c-.06.06-.06.17,0,.23l1.49,1.48s.07.05.12.05c.07,0,.12-.04.14-.09l2.27-4.19s.03-.08.01-.12c-.01-.04-.04-.08-.08-.1-.08-.04-.18-.01-.22.07l-2.1,3.88s-.04.05-.07.05c-.03,0-.06,0-.08-.03l-1.24-1.24s-.07-.05-.12-.05Z"/>
      </g>
    </g>
  </g>
</svg>