<?xml version="1.0" encoding="UTF-8"?>
<svg id="Capa_2" data-name="Capa 2" xmlns="http://www.w3.org/2000/svg" viewBox="0 0 55.03 58.8">
  <defs>
    <style>
      .cls-1 {
        stroke-width: 0px;
      }
    </style>
  </defs>
  <g id="_1" data-name="1">
    <g id="_608_Checklist_Clipboard_Mobile_List" data-name="608, Checklist, Clipboard, Mobile, List">
      <g>
        <path class="cls-1" d="m30.35,3.8h-5.06c-.3,0-.61.3-.61.6s.3.6.61.6h5.06c.3,0,.61-.3.61-.6s-.2-.6-.61-.6Z"/>
        <path class="cls-1" d="m30.35,53.8h-5.06c-.3,0-.61.3-.61.6s.3.6.61.6h5.06c.3,0,.61-.3.61-.6s-.2-.6-.61-.6Z"/>
        <path class="cls-1" d="m39.15,0h-22.66c-3.14,0-5.77,2.5-5.77,5.7v6.2h-4.45c-.3,0-.61.3-.61.6s.3.6.61.6h4.45v1.9h-5.67c-.3,0-.61.3-.61.6s.3.6.61.6h5.67v1.9H3.74c-.3,0-.61.3-.61.6s.3.6.61.6h6.98v1.9H2.53c-.3,0-.61.3-.61.6s.3.6.61.6h8.19v2H1.21c-.3,0-.61.3-.61.6s.3.6.61.6h9.51v27.5c0,3.1,2.53,5.7,5.77,5.7h22.66c3.14,0,5.77-2.5,5.77-5.7V5.7c0-3.1-2.63-5.7-5.77-5.7Zm4.45,50H12.04V8.8h31.66v41.2h-.1Zm-4.45,7.5h-22.66c-2.43,0-4.45-2-4.45-4.4v-1.8h31.66v1.8c-.1,2.4-2.02,4.4-4.55,4.4Zm4.45-50H12.04v-1.8c0-2.4,2.02-4.4,4.45-4.4h22.66c2.43,0,4.45,2,4.45,4.4v1.8Z"/>
        <path class="cls-1" d="m4.75,3.2c.5,0,.91.4.91.9s-.41.9-.91.9-.91-.4-.91-.9.41-.9.91-.9Z"/>
        <path class="cls-1" d="m7.28,30.1c.5,0,.91.4.91.9s-.41.9-.91.9-.91-.4-.91-.9.41-.9.91-.9Z"/>
        <path class="cls-1" d="m6.07,55.1c.5,0,.91.4.91.9s-.41.9-.91.9-.91-.4-.91-.9.41-.9.91-.9Z"/>
        <path class="cls-1" d="m48.35,15.7c.5,0,.91.4.91.9s-.41.9-.91.9-.91-.4-.91-.9.41-.9.91-.9Z"/>
        <path class="cls-1" d="m51.59,33.2c.5,0,.91.4.91.9s-.41.9-.91.9-.91-.4-.91-.9.41-.9.91-.9Z"/>
        <path class="cls-1" d="m49.67,48.8c.5,0,.91.4.91.9s-.41.9-.91.9-.91-.4-.91-.9.41-.9.91-.9Z"/>
        <path class="cls-1" d="m51.89,5c-1.72,0-3.14,1.4-3.14,3.1s1.42,3.1,3.14,3.1,3.14-1.4,3.14-3.1-1.42-3.1-3.14-3.1Zm0,5c-1.01,0-1.92-.8-1.92-1.9s.81-1.9,1.92-1.9c1.01,0,1.92.8,1.92,1.9s-.91,1.9-1.92,1.9Z"/>
        <path class="cls-1" d="m4.15,41.9c-2.23,0-4.15,1.8-4.15,4.1s1.82,4.1,4.15,4.1,4.15-1.8,4.15-4.1c-.1-2.3-1.92-4.1-4.15-4.1Zm0,6.9c-1.62,0-2.83-1.3-2.83-2.8,0-1.6,1.32-2.8,2.83-2.8s2.83,1.3,2.83,2.8-1.31,2.8-2.83,2.8Z"/>
        <path class="cls-1" d="m13.96,48.8h27.82c.3,0,.61-.3.61-.6V10.7c0-.3-.3-.6-.61-.6H13.96c-.3,0-.61.3-.61.6v37.5c-.1.3.2.6.61.6Zm.61-37.5h26.6v36.3H14.57V11.3Z"/>
        <path class="cls-1" d="m22.15,13.8h-5.06c-.3,0-.61.3-.61.6v5c0,.3.3.6.61.6h5.06c.3,0,.61-.3.61-.6v-5c0-.3-.3-.6-.61-.6Zm-.61,5h-3.84v-3.8h3.84v3.8Z"/>
        <path class="cls-1" d="m38.54,17.5h-13.25c-.3,0-.61.3-.61.6s.3.6.61.6h13.25c.3,0,.61-.3.61-.6.1-.3-.2-.6-.61-.6Z"/>
        <path class="cls-1" d="m25.29,16.3h6.98c.3,0,.61-.3.61-.6s-.3-.6-.61-.6h-6.98c-.3,0-.61.3-.61.6s.3.6.61.6Z"/>
        <path class="cls-1" d="m22.15,21.9h-5.06c-.3,0-.61.3-.61.6v5c0,.3.3.6.61.6h5.06c.3,0,.61-.3.61-.6v-5c0-.3-.3-.6-.61-.6Zm-.61,5h-3.84v-3.8h3.84v3.8Z"/>
        <path class="cls-1" d="m38.54,25.7h-13.25c-.3,0-.61.3-.61.6s.3.6.61.6h13.25c.3,0,.61-.3.61-.6.1-.4-.2-.6-.61-.6Z"/>
        <path class="cls-1" d="m25.29,24.4h6.98c.3,0,.61-.3.61-.6s-.3-.6-.61-.6h-6.98c-.3,0-.61.3-.61.6s.3.6.61.6Z"/>
        <path class="cls-1" d="m22.15,30h-5.06c-.3,0-.61.3-.61.6v5c0,.3.3.6.61.6h5.06c.3,0,.61-.3.61-.6v-5c0-.3-.3-.6-.61-.6Zm-.61,5h-3.84v-3.8h3.84v3.8Z"/>
        <path class="cls-1" d="m38.54,33.8h-13.25c-.3,0-.61.3-.61.6s.3.6.61.6h13.25c.3,0,.61-.3.61-.6.1-.3-.2-.6-.61-.6Z"/>
        <path class="cls-1" d="m25.29,32.5h6.98c.3,0,.61-.3.61-.6s-.3-.6-.61-.6h-6.98c-.3,0-.61.3-.61.6s.3.6.61.6Z"/>
        <path class="cls-1" d="m22.15,38.2h-5.06c-.3,0-.61.3-.61.6v5c0,.3.3.6.61.6h5.06c.3,0,.61-.3.61-.6v-5c0-.4-.3-.6-.61-.6Zm-.61,5h-3.84v-3.8h3.84v3.8Z"/>
        <path class="cls-1" d="m38.54,41.9h-13.25c-.3,0-.61.3-.61.6s.3.6.61.6h13.25c.3,0,.61-.3.61-.6.1-.3-.2-.6-.61-.6Z"/>
        <path class="cls-1" d="m25.29,40.7h6.98c.3,0,.61-.3.61-.6s-.3-.6-.61-.6h-6.98c-.3,0-.61.3-.61.6s.3.6.61.6Z"/>
      </g>
    </g>
  </g>
</svg>