<?xml version="1.0" encoding="UTF-8"?>
<svg id="Capa_2" data-name="Capa 2" xmlns="http://www.w3.org/2000/svg" viewBox="0 0 57.45 58.8">
  <defs>
    <style>
      .cls-1 {
        stroke-width: 0px;
      }
    </style>
  </defs>
  <g id="_1" data-name="1">
    <g id="_605_Exchange_Market_Stock_Online_Trade" data-name="605, Exchange, Market, Stock, Online Trade">
      <g>
        <path class="cls-1" d="m25.29,5h5.06c.3,0,.61-.3.61-.6s-.3-.6-.61-.6h-5.06c-.3,0-.61.3-.61.6s.3.6.61.6Z"/>
        <path class="cls-1" d="m30.35,53.8h-5.06c-.3,0-.61.3-.61.6s.3.6.61.6h5.06c.3,0,.61-.3.61-.6.1-.3-.2-.6-.61-.6Z"/>
        <path class="cls-1" d="m4.75,3.2c.5,0,.91.4.91.9s-.41.9-.91.9-.91-.4-.91-.9.41-.9.91-.9Z"/>
        <path class="cls-1" d="m7.99,10.1c.5,0,.91.4.91.9s-.41.9-.91.9-.91-.4-.91-.9.41-.9.91-.9Z"/>
        <ellipse class="cls-1" cx="7.28" cy="31" rx=".91" ry=".9"/>
        <path class="cls-1" d="m54.73,16.9c.5,0,.91.4.91.9s-.41.9-.91.9-.91-.4-.91-.9.41-.9.91-.9Z"/>
        <path class="cls-1" d="m49.06,53.2c.5,0,.91.4.91.9s-.41.9-.91.9-.91-.4-.91-.9.41-.9.91-.9Z"/>
        <path class="cls-1" d="m53.51,46.9c.5,0,.91.4.91.9s-.41.9-.91.9-.91-.4-.91-.9.41-.9.91-.9Z"/>
        <path class="cls-1" d="m47.14,10.7c.5,0,.91.4.91.9s-.41.9-.91.9-.91-.4-.91-.9.41-.9.91-.9Z"/>
        <path class="cls-1" d="m16.79,12.6c.5,0,.91.4.91.9s-.41.9-.91.9-.91-.4-.91-.9.41-.9.91-.9Z"/>
        <path class="cls-1" d="m19.93,12.6c.5,0,.91.4.91.9s-.41.9-.91.9-.91-.4-.91-.9.41-.9.91-.9Z"/>
        <path class="cls-1" d="m23.17,12.6c.5,0,.91.4.91.9s-.41.9-.91.9-.91-.4-.91-.9.41-.9.91-.9Z"/>
        <path class="cls-1" d="m26.3,12.6c.5,0,.91.4.91.9s-.41.9-.91.9-.91-.4-.91-.9.41-.9.91-.9Z"/>
        <path class="cls-1" d="m6.07,55.1c.5,0,.91.4.91.9s-.41.9-.91.9-.91-.4-.91-.9.41-.9.91-.9Z"/>
        <path class="cls-1" d="m4.45,41.3c-2.43,0-4.45,2-4.45,4.4s2.02,4.4,4.45,4.4,4.45-2,4.45-4.4-2.02-4.4-4.45-4.4Zm0,7.5c-1.72,0-3.14-1.4-3.14-3.1s1.42-3.1,3.14-3.1,3.14,1.4,3.14,3.1-1.42,3.1-3.14,3.1Z"/>
        <path class="cls-1" d="m51.59,8.8c1.62,0,2.83-1.3,2.83-2.8s-1.31-2.8-2.83-2.8-2.83,1.3-2.83,2.8,1.21,2.8,2.83,2.8Zm0-4.4c.91,0,1.62.7,1.62,1.6s-.71,1.6-1.62,1.6-1.62-.8-1.62-1.6.71-1.6,1.62-1.6Z"/>
        <path class="cls-1" d="m16.49,46.3h3.84c.3,0,.61-.3.61-.6v-8.8c0-.3-.3-.6-.61-.6h-3.84c-.3,0-.61.3-.61.6v8.8c0,.3.2.6.61.6Zm.61-8.8h2.53v7.5h-2.53v-7.5Z"/>
        <path class="cls-1" d="m22.76,46.3h3.84c.3,0,.61-.3.61-.6v-13.8c0-.3-.3-.6-.61-.6h-3.84c-.3,0-.61.3-.61.6v13.8c0,.3.3.6.61.6Zm.71-13.8h2.53v12.5h-2.53v-12.5Z"/>
        <path class="cls-1" d="m29.13,46.3h3.84c.3,0,.61-.3.61-.6v-5c0-.3-.3-.6-.61-.6h-3.84c-.3,0-.61.3-.61.6v5c0,.3.2.6.61.6Zm.61-5h2.53v3.8h-2.53v-3.8Z"/>
        <path class="cls-1" d="m35.41,46.3h3.84c.3,0,.61-.3.61-.6v-10c0-.3-.3-.6-.61-.6h-3.84c-.3,0-.61.3-.61.6v10c0,.3.3.6.61.6Zm.71-10h2.53v8.8h-2.53v-8.8Z"/>
        <path class="cls-1" d="m56.85,31.5c-.81-.8-2.12-.8-2.93,0l-1.31,1.3c-2.12-1.8-5.16-2.1-7.69-.8v-9l3.64,2.6c.1.1.2.1.4.1h3.84c.3,0,.61-.3.61-.6s-.3-.6-.61-.6h-3.54l-4.35-3.1v-.9h1.21c.2,0,.4-.1.51-.2l6.37-7.2c.2-.3.2-.7-.1-.9-.3-.2-.71-.2-.91.1l-6.17,7h-.91V5.7c0-3.1-2.53-5.7-5.77-5.7h-22.66c-3.14,0-5.77,2.5-5.77,5.7v10.2c-1.01-1.3-2.63-2.1-4.45-2.1-3.14,0-5.66,2.5-5.66,5.6s2.53,5.6,5.66,5.6c1.82,0,3.34-.8,4.45-2.1v30.2c0,3.1,2.53,5.7,5.77,5.7h22.66c3.14,0,5.77-2.5,5.77-5.7v-8.9c.91.5,2.02.8,3.14.8,4.55,0,7.89-4.3,6.78-8.7l1.92-1.9c.91-.8.91-2.1.1-2.9Zm-13.15,1.3c-.51.4-.91.9-1.31,1.4v-13l1.31.9v10.7Zm-2.53-14.1l-4.05-2.9c-.3-.3-.81-.1-1.01.3l-1.62,5.5-1.92-.3c-.3,0-.61.1-.71.4l-1.31,3.4h-8.4c-.3,0-.61.3-.61.6s.3.6.61.6h8.8c.3,0,.51-.2.61-.4l1.31-3.3,1.21.2-1.62,5.4h-10.32c-.3,0-.61.3-.61.6s.3.6.61.6h10.72c.3,0,.51-.2.61-.4l1.82-6,1.62.2c.2,0,.51-.1.61-.3l1.62-2.4h1.92v27H14.57V11.3h26.5l.1,7.4h0Zm-1.31.6h-1.01c-.2,0-.4.1-.51.3l-1.62,2.4-1.01-.2,1.31-4.5,2.83,2ZM16.49,1.3h22.66c2.43,0,4.45,2,4.45,4.4v1.8H12.04v-1.8c0-2.4,2.02-4.4,4.45-4.4ZM6.37,23.8c-2.43,0-4.45-2-4.45-4.4s2.02-4.4,4.45-4.4,4.45,2,4.45,4.4-2.02,4.4-4.45,4.4Zm32.88,33.7h-22.76c-2.43,0-4.45-2-4.45-4.4v-1.8h31.56v1.8c.1,2.4-1.92,4.4-4.35,4.4Zm4.45-7.5H12.04V8.8h31.56v10.5h-1.21v-8.6c0-.3-.3-.6-.61-.6H13.96c-.3,0-.61.3-.61.6v37.5c0,.3.3.6.61.6h27.82c.3,0,.61-.3.61-.6v-6.1c.4.5.81,1,1.21,1.4l.1,6.5h0Zm4.45-6.3c-3.14,0-5.67-2.5-5.67-5.6s2.53-5.6,5.67-5.6c1.31,0,2.53.4,3.54,1.2l-2.93,2.9-.61-.6c-.4-.4-.91-.6-1.42-.6-1.11,0-2.12.9-2.12,2.1,0,.5.2,1.1.61,1.4l3.03,3c.2.2.61.2.91,0l4.65-4.6c.4,3.5-2.33,6.4-5.66,6.4Zm7.79-10.2l-7.18,7.1-2.63-2.6c-.3-.3-.3-.8,0-1.1.3-.3.81-.3,1.11,0l1.01,1c.2.2.61.2.91,0l3.84-3.8h0l1.72-1.7c.51-.5,1.42-.1,1.42.6,0,.2-.1.4-.2.5Z"/>
        <path class="cls-1" d="m7.49,19.2c-.4-.2-.81-.3-.91-.3v-1c.51.1,1.11.4,1.11.5l.51-1c-.2-.1-.4-.2-.71-.3-.3-.1-.61-.2-.91-.2v-.7h-.51v.7c-1.11.1-1.62.8-1.62,1.6s.61,1.2,1.42,1.4l.3.1v.9c-.61-.1-1.31-.5-1.42-.6l-.51,1c.51.4,1.21.6,1.82.6v.8h.51v-.8c1.01,0,1.72-.5,1.72-1.5.2-.5-.1-1-.81-1.2Zm-1.21-.4c-.2-.1-.3-.1-.4-.2-.1-.1-.1-.2-.1-.3,0-.2.2-.4.51-.4v.9Zm.3,2.2v-.9c.2.1.3.1.4.2.1.1.1.2.1.3.1.2-.1.4-.51.4Z"/>
      </g>
    </g>
  </g>
</svg>