<?xml version="1.0" encoding="UTF-8"?>
<svg id="Capa_2" data-name="Capa 2" xmlns="http://www.w3.org/2000/svg" viewBox="0 0 78.44 79.11">
  <defs>
    <style>
      .cls-1 {
        stroke-width: 0px;
      }
    </style>
  </defs>
  <g id="_123" data-name="123">
    <g>
      <path class="cls-1" d="m41.68,79.11h-4.9c-.32,0-.59-.24-.64-.55l-1.35-8.98c-1.49-.26-2.95-.65-4.36-1.16l-5.66,7.1c-.2.25-.56.32-.83.16l-4.25-2.46c-.28-.16-.4-.5-.28-.8l3.32-8.45c-1.14-.96-2.21-2.03-3.19-3.19l-8.45,3.32c-.3.12-.64,0-.8-.28l-2.45-4.24c-.16-.28-.09-.63.16-.83l7.1-5.65c-.52-1.42-.91-2.89-1.17-4.36l-8.98-1.34c-.32-.05-.55-.32-.55-.64v-2.46c0-.36.29-.65.65-.65s.65.29.65.65v1.9l8.89,1.33c.28.04.5.26.55.54.26,1.7.71,3.38,1.34,5.02.1.26.02.56-.2.74l-7.04,5.6,1.89,3.27,8.37-3.29c.26-.1.56-.02.74.2,1.1,1.36,2.34,2.59,3.67,3.67.22.18.3.48.2.74l-3.29,8.37,3.28,1.9,5.6-7.03c.18-.22.48-.3.74-.2,1.61.61,3.29,1.06,5.01,1.34.28.04.5.27.54.55l1.34,8.89h3.78l1.33-8.89c.04-.28.26-.5.54-.55,1.71-.27,3.4-.72,5.01-1.34.27-.1.56-.02.74.2l5.6,7.03,3.28-1.9-3.29-8.37c-.1-.26-.02-.57.2-.74,1.34-1.08,2.57-2.32,3.67-3.67.18-.22.48-.3.74-.2l8.37,3.29,1.89-3.27-7.04-5.61c-.22-.18-.3-.48-.2-.74.63-1.62,1.08-3.3,1.34-5,.04-.28.26-.5.55-.54l8.89-1.34v-1.89c0-.36.29-.65.65-.65s.65.29.65.65v2.45c0,.32-.24.59-.55.64l-8.98,1.35c-.25,1.47-.65,2.93-1.17,4.35l7.1,5.66c.25.2.32.56.16.83l-2.45,4.24c-.16.28-.5.4-.8.28l-8.45-3.32c-.97,1.16-2.04,2.23-3.19,3.19l3.32,8.45c.12.3,0,.64-.28.8l-4.25,2.46c-.28.16-.63.09-.83-.16l-5.66-7.1c-1.41.51-2.87.9-4.36,1.16l-1.35,8.98c-.05.32-.32.55-.64.55Zm-2.45-21.63c-7.28,0-13.2-5.92-13.2-13.2,0-.36.29-.65.65-.65s.65.29.65.65c0,6.56,5.34,11.9,11.9,11.9s11.9-5.34,11.9-11.9c0-.36.29-.65.65-.65s.65.29.65.65c0,7.28-5.92,13.2-13.2,13.2Z"/>
      <path class="cls-1" d="m77.79,39.87H16.93c-.36,0-.65-.29-.65-.65s.29-.65.65-.65h60.86c.36,0,.65.29.65.65s-.29.65-.65.65Zm-67.29,0H.65c-.36,0-.65-.29-.65-.65s.29-.65.65-.65h9.86c.36,0,.65.29.65.65s-.29.65-.65.65Z"/>
      <path class="cls-1" d="m13.72,43.08c-2.13,0-3.86-1.73-3.86-3.87s1.73-3.86,3.86-3.86,3.87,1.73,3.87,3.86-1.73,3.87-3.87,3.87Zm0-6.43c-1.41,0-2.56,1.15-2.56,2.56s1.15,2.57,2.56,2.57,2.57-1.15,2.57-2.57-1.15-2.56-2.57-2.56Z"/>
      <path class="cls-1" d="m77.79,28.08H31.3c-.36,0-.65-.29-.65-.65s.29-.65.65-.65h46.49c.36,0,.65.29.65.65s-.29.65-.65.65Zm-52.92,0H.65c-.36,0-.65-.29-.65-.65s.29-.65.65-.65h24.22c.36,0,.65.29.65.65s-.29.65-.65.65Z"/>
      <path class="cls-1" d="m28.09,31.3c-2.13,0-3.86-1.74-3.86-3.87s1.73-3.85,3.86-3.85,3.86,1.73,3.86,3.85-1.73,3.87-3.86,3.87Zm0-6.43c-1.41,0-2.56,1.15-2.56,2.55s1.15,2.57,2.56,2.57,2.56-1.16,2.56-2.57-1.15-2.55-2.56-2.55Z"/>
      <path class="cls-1" d="m77.79,16.29h-22.63c-.36,0-.65-.29-.65-.65s.29-.65.65-.65h22.63c.36,0,.65.29.65.65s-.29.65-.65.65Zm-29.06,0H.65c-.36,0-.65-.29-.65-.65s.29-.65.65-.65h48.08c.36,0,.65.29.65.65s-.29.65-.65.65Z"/>
      <path class="cls-1" d="m51.95,19.51c-2.13,0-3.87-1.73-3.87-3.86s1.73-3.86,3.87-3.86,3.86,1.73,3.86,3.86-1.73,3.86-3.86,3.86Zm0-6.43c-1.42,0-2.57,1.15-2.57,2.56s1.15,2.56,2.57,2.56,2.56-1.15,2.56-2.56-1.15-2.56-2.56-2.56Z"/>
      <path class="cls-1" d="m77.79,4.5h-43.08c-.36,0-.65-.29-.65-.65s.29-.65.65-.65h43.08c.36,0,.65.29.65.65s-.29.65-.65.65Zm-49.51,0H.65c-.36,0-.65-.29-.65-.65s.29-.65.65-.65h27.63c.36,0,.65.29.65.65s-.29.65-.65.65Z"/>
      <path class="cls-1" d="m31.5,7.73c-2.13,0-3.87-1.74-3.87-3.87s1.73-3.85,3.87-3.85,3.87,1.73,3.87,3.85-1.74,3.87-3.87,3.87Zm0-6.43c-1.41,0-2.57,1.15-2.57,2.55s1.15,2.57,2.57,2.57,2.57-1.16,2.57-2.57-1.15-2.55-2.57-2.55Z"/>
    </g>
  </g>
</svg>