<?xml version="1.0" encoding="UTF-8"?>
<svg id="Capa_2" data-name="Capa 2" xmlns="http://www.w3.org/2000/svg" xmlns:xlink="http://www.w3.org/1999/xlink" viewBox="0 0 176.53 176.53">
  <defs>
    <style>
      .cls-1, .cls-2, .cls-3, .cls-4, .cls-5 {
        stroke-width: 0px;
      }

      .cls-1, .cls-3, .cls-6, .cls-7 {
        fill: #232323;
      }

      .cls-1, .cls-5, .cls-8 {
        fill-rule: evenodd;
      }

      .cls-9 {
        letter-spacing: .19em;
      }

      .cls-10 {
        letter-spacing: 0em;
      }

      .cls-2, .cls-8 {
        fill: none;
      }

      .cls-4, .cls-5 {
        fill: #fff;
      }

      .cls-6 {
        font-family: Montserrat-SemiBold, Montserrat;
        font-size: 17.08px;
        font-weight: 600;
      }

      .cls-11 {
        clip-path: url(#clippath);
      }

      .cls-7 {
        font-family: Montserrat-Black, Montserrat;
        font-size: 30.29px;
        font-weight: 800;
      }

      .cls-12 {
        letter-spacing: .18em;
      }

      .cls-13 {
        letter-spacing: .2em;
      }

      .cls-8 {
        stroke: #232323;
        stroke-linecap: round;
        stroke-miterlimit: 10;
        stroke-width: 2.08px;
      }
    </style>
    <clipPath id="clippath">
      <circle class="cls-2" cx="88.26" cy="88.26" r="88.26"/>
    </clipPath>
  </defs>
  <g id="OBJECTS">
    <g>
      <circle class="cls-3" cx="88.26" cy="88.26" r="88.26"/>
      <circle class="cls-4" cx="88.26" cy="88.26" r="80.5" transform="translate(-36.56 88.26) rotate(-45)"/>
      <text class="cls-7" transform="translate(22.42 107.9)"><tspan x="0" y="0">C</tspan><tspan class="cls-10" x="22.32" y="0">L</tspan><tspan x="40.71" y="0">OSED</tspan></text>
      <text class="cls-6" transform="translate(43.64 72.44)"><tspan class="cls-12" x="0" y="0">W</tspan><tspan class="cls-13" x="22.7" y="0">E ARE</tspan></text>
      <text class="cls-6" transform="translate(50.82 55.84)"><tspan class="cls-13" x="0" y="0">SOR</tspan><tspan class="cls-9" x="47.86" y="0">R</tspan><tspan class="cls-13" x="63.6" y="0">Y</tspan></text>
      <g>
        <path class="cls-1" d="m83.46,131.24c0,2.62-1.38,4.74-3.07,4.74s-3.07-2.12-3.07-4.74,1.38-4.74,3.07-4.74,3.07,2.12,3.07,4.74Z"/>
        <path class="cls-1" d="m99.21,131.24c0,2.62-1.38,4.74-3.07,4.74s-3.07-2.12-3.07-4.74,1.38-4.74,3.07-4.74,3.07,2.12,3.07,4.74Z"/>
        <path class="cls-8" d="m103.98,146.89c-2.7-4.1-8.71-6.96-15.71-6.96s-13.01,2.86-15.71,6.96"/>
      </g>
      <g class="cls-11">
        <g>
          <path class="cls-5" d="m80.64,3.08c1.27.03,1.9-.4,2.21-1.04-1.15.05-2.56-.07-2.21,1.04Z"/>
          <path class="cls-5" d="m145.97,26.33c.2.15,1.12-.24.72-.52-.2-.14-1.12.25-.72.52Z"/>
          <path class="cls-5" d="m105.77,17.98c.66-.92,1.78-1.52,2.21-2.6-1.48.04-4.26,1.8-2.21,2.6Z"/>
          <path class="cls-5" d="m124.95,15.38c-.2-.14-1.13.25-.73.52.2.14,1.12-.25.73-.52Z"/>
          <path class="cls-5" d="m172.8,92.22c-.2-.14-1.12.25-.73.52.2.15,1.11-.25.73-.52Z"/>
          <path class="cls-5" d="m137.47,37.76c-.2-.14-1.11.25-.74.52.22.15,1.12-.25.74-.52Z"/>
          <path class="cls-5" d="m53.69,27.12h1.47v-1.04h-1.47v1.04Z"/>
          <path class="cls-5" d="m149.45,67.6c.21.15,1.12-.25.74-.52-.2-.14-1.12.25-.74.52Z"/>
          <path class="cls-5" d="m160.51,68.64c-1.37,1.74,2.65,2.2,2.95,1.04-1.15-.23-.63-1.64-2.95-1.04Z"/>
          <path class="cls-5" d="m6.24,48.93c-.62.6-.97,1.4-.74,2.61,2.4-.3,3.44.35,5.16.52-.87-1.47-1.19-3.32-4.42-3.13Z"/>
          <path class="cls-5" d="m159.52,97.43c.22,1.89-4.99-.04-3.69,2.6,2.07-.28,3.83-.76,5.9-1.04.51-1.4-1.52-1.01-2.22-1.57Z"/>
          <path class="cls-5" d="m70.33,3.55c-1.14-1.43-4.33.03-4.42,1.05,1.52-.32,5.12.83,4.42-1.05Z"/>
          <path class="cls-5" d="m133.71,101.6c-1.17.78-.83,2.33,1.47,2.08.2-1.19-.18-1.96-1.47-2.08Z"/>
          <path class="cls-5" d="m60.75,5.64c0,.53,1.29.66,1.47,0-.82.05-1.14-.76-1.47,0Z"/>
          <path class="cls-5" d="m3.3,56.22c-1.69,1.18.49,2.29,1.47,3.12,1.13-.79,1.3-3.57-1.47-3.12Z"/>
          <path class="cls-5" d="m139.61,105.24c-.04.32-.11.62-.73.53v1.04c1.81.82,2.17-1.77.73-1.56Z"/>
          <path class="cls-5" d="m151.89,29.87v1.57h1.48c.03-.67.94-.73.73-1.57h-2.21Z"/>
          <path class="cls-5" d="m145.76,80.63c-.2-.15-1.12.25-.74.52.21.14,1.13-.25.74-.52Z"/>
          <path class="cls-5" d="m123.47,31.52c-.78,1.32,2.49,2.31,2.96,1.04-1.17-.22-.64-1.64-2.96-1.04Z"/>
          <path class="cls-5" d="m171.58,81.15c0,.52-.59.62-.74,1.04,1.16-.05,2.56.07,2.21-1.04h-1.47Z"/>
          <path class="cls-5" d="m29.06,32.04c-.57.12-1.45.02-1.47.53.57-.12,1.46-.02,1.47-.53Z"/>
          <path class="cls-5" d="m75.94,2.23c.21.14,1.12-.25.74-.53-.2-.14-1.12.26-.74.53Z"/>
          <path class="cls-5" d="m34.96,34.13c.03.72-.35,1.14-.74,1.56h2.21c-.06-.83.1-1.81-1.47-1.56Z"/>
          <path class="cls-5" d="m31.27,34.65v1.56h2.21c.13-1.14-.6-1.66-2.21-1.56Z"/>
          <path class="cls-5" d="m79.63,5.35c0,.29.6.59.74,0,0-.29-.59-.59-.74,0Z"/>
          <path class="cls-5" d="m33.49,36.73c0,.52-.6.61-.74,1.05.74,0,.88.42,1.47.52,0-.52.6-.62.74-1.04-.74,0-.88-.42-1.47-.52Z"/>
          <path class="cls-5" d="m87.75,6.39c-.15,1.49-.1,2.84,2.2,2.61-.02-.72.35-1.15.74-1.56-1.46-.01-.94-1.43-2.94-1.05Z"/>
          <path class="cls-5" d="m145.6,39.86c1.02-.02,1.62.24,2.22.52.34-1.62-1.99-1.96-2.22-.52Z"/>
          <path class="cls-5" d="m164.39,46.05c-2.09-.55-3.07-.55-5.17,0,.61,1.48,1.19,2.98,4.44,2.6.62-.6.97-1.4.73-2.6Z"/>
          <path class="cls-5" d="m67.1,11.08c0,.29.59.59.73,0,0-.29-.59-.59-.73,0Z"/>
          <path class="cls-5" d="m56.76,11.6c0,.29.6.59.74,0,0-.29-.59-.6-.74,0Z"/>
          <path class="cls-5" d="m120.51,41.42c-.19-.15-1.11.25-.74.52.21.14,1.12-.25.74-.52Z"/>
          <path class="cls-5" d="m46.44,12.12c-.2-.14-1.12.25-.74.52.21.14,1.12-.25.74-.52Z"/>
          <path class="cls-5" d="m79.95,45.06c.58-.11,1.46-.01,1.48-.51-.57.11-1.46,0-1.48.51Z"/>
          <path class="cls-5" d="m142.64,45.06c0,.29.61.6.74,0,0-.28-.59-.59-.74,0Z"/>
          <path class="cls-5" d="m34.96,46.63c2.15.77,2.15-2.33,0-1.56v1.56Z"/>
          <path class="cls-5" d="m60.04,46.1h-2.21c.11.62-.13,1.48.74,1.57.06-.82,1.88-.41,1.48-1.57Z"/>
          <path class="cls-5" d="m16.53,47.15c.2.14,1.12-.25.72-.52-.2-.14-1.12.25-.72.52Z"/>
          <path class="cls-5" d="m149.28,47.15v1.57c1.1-.09,2.72.19,2.95-.52-1.46,0-.93-1.42-2.95-1.04Z"/>
          <path class="cls-5" d="m105.03,49.76c-.8-1.17-2-2.07-4.43-2.09v2.61c1.3-.3,4.33.62,4.43-.52Z"/>
          <path class="cls-5" d="m3.3,79.67c2.31-.1,3.54-.97,3.69-2.61-1.39.12-1.63-.58-2.96-.52-.48,1.1-1.95,2.32-.73,3.13Z"/>
          <path class="cls-5" d="m37.17,48.71c.2.14,1.13-.25.74-.52-.2-.15-1.12.25-.74.52Z"/>
          <path class="cls-5" d="m60.04,49.76c.2.14,1.11-.25.73-.53-.2-.14-1.12.25-.73.53Z"/>
          <path class="cls-5" d="m39.39,51.84c.21.15,1.12-.25.74-.52-.2-.14-1.12.25-.74.52Z"/>
          <path class="cls-5" d="m16.53,53.4c-.22-.15-1.13.25-.75.52.2.14,1.12-.25.75-.52Z"/>
          <path class="cls-5" d="m102.08,53.92c.2.14,1.12-.25.73-.52-.21-.15-1.12.25-.73.52Z"/>
          <path class="cls-5" d="m10.62,53.92v1.56c2.15.76,2.15-2.33,0-1.56Z"/>
          <path class="cls-5" d="m19.47,54.44v1.56h2.22c.13-1.14-.6-1.66-2.22-1.56Z"/>
          <path class="cls-5" d="m105.77,54.96v1.04c.73,0,.87.42,1.48.52-.08-.82.09-1.81-1.48-1.56Z"/>
          <path class="cls-5" d="m132.32,54.96c-.57.12-1.46.02-1.47.52.57-.12,1.45-.02,1.47-.52Z"/>
          <path class="cls-5" d="m58.56,55.49c-1.27-.03-1.9.4-2.22,1.04,1.26.03,1.89-.4,2.22-1.04Z"/>
          <path class="cls-5" d="m17.25,57.05c.75,0,.88.42,1.48.52,0-.52.6-.62.74-1.04-.74,0-.88-.42-1.48-.52,0,.52-.6.62-.74,1.04Z"/>
          <path class="cls-5" d="m158.88,61.21c-.52-.64.43-1.94-1.48-1.56-2.4,1.31.77,4.95,2.95,3.13.25-1.04-1.03-1.02-1.47-1.57Z"/>
          <path class="cls-5" d="m130.84,60.17c-.2-.14-1.11.25-.74.52.21.14,1.12-.25.74-.52Z"/>
          <path class="cls-5" d="m1.03,61.21c-.01.29.59.59.73,0,0-.29-.59-.59-.73,0Z"/>
          <path class="cls-5" d="m136.91,110.32c-.21-.14-1.12.25-.74.52.2.15,1.12-.25.74-.52Z"/>
          <path class="cls-5" d="m152.4,112.4c1.67.14,2.77-.13,2.94-1.05-1.06-.13-1.24-.86-2.22-1.04.17.98-.82,1.15-.73,2.09Z"/>
          <path class="cls-5" d="m76.26,61.21c-.47,1.27,3.52,1.96,3.68,1.04-1.4-.22-1.33-1.49-3.68-1.04Z"/>
          <path class="cls-5" d="m69.58,51.01h2.21c.1-.94-.73-1.22-2.21-1.05v1.05Z"/>
          <path class="cls-5" d="m38.64,63.82c-.24,2.57,4.09,1.36,3.69-.52-2.08-.43-1.91.74-3.69.52Z"/>
          <path class="cls-5" d="m83.6,52.05c.21.15,1.12-.25.73-.52-.2-.15-1.12.25-.73.52Z"/>
          <path class="cls-5" d="m42.34,66.42c.2.15,1.11-.25.74-.52-.2-.15-1.12.25-.74.52Z"/>
          <path class="cls-5" d="m109.45,66.42c0-.29-.59-.58-.73,0,0,.3.59.6.73,0Z"/>
          <path class="cls-5" d="m93.92,55.7c.2.14,1.12-.25.73-.52-.21-.14-1.12.25-.73.52Z"/>
          <path class="cls-5" d="m20.95,68.51c.12.62-.13,1.48.74,1.56.03-.32.11-.62.73-.52-.09-.64-.22-1.23-1.48-1.04Z"/>
          <path class="cls-5" d="m28.33,69.03c.57-.11,1.46-.02,1.47-.52-.57.12-1.46.01-1.47.52Z"/>
          <path class="cls-5" d="m31.27,71.12c1.67.15,2.77-.12,2.94-1.04-1.05-.13-1.24-.86-2.21-1.04-.23.7-1.05,1-.74,2.09Z"/>
          <path class="cls-5" d="m74.79,71.63c-.07.82-1.88.41-1.47,1.57,1.33.44,2.02,1.34,3.68,1.56.04-1.59-.66-2.66-2.21-3.13Z"/>
          <path class="cls-5" d="m52.66,74.24c.21.14,1.11-.25.73-.52-.2-.14-1.11.25-.73.52Z"/>
          <path class="cls-5" d="m81.43,74.76h1.48v-1.04h-1.48v1.04Z"/>
          <path class="cls-5" d="m105.03,76.84c.57-.11,1.45-.02,1.47-.52-.57.11-1.45.01-1.47.52Z"/>
          <path class="cls-5" d="m85.81,66.11c.2.14,1.12-.25.74-.52-.21-.15-1.13.25-.74.52Z"/>
          <path class="cls-5" d="m6.94,79.44c-.63.61-.99,1.41-.74,2.61,1.11-.09,2.72.19,2.96-.52-1.96.16.69-2.92-2.21-2.09Z"/>
          <path class="cls-5" d="m5.46,81.01c.01-.29-.6-.59-.74,0,0,.29.6.59.74,0Z"/>
          <path class="cls-5" d="m156.21,87.18c2.07.1,2.02,1.7,3.69,2.08-.91-1.69,2.38-.4,1.48-2.08-2.77.49-4.23-2.21-5.17,0Z"/>
          <path class="cls-5" d="m77.74,81.53c.15.63.81.32,1.47,0,0-.53-1.29-.65-1.47,0Z"/>
          <path class="cls-5" d="m75.53,84.14c-.51,1.4,1.53,1.01,2.22,1.57.44-1.36-.3-1.88-2.22-1.57Z"/>
          <path class="cls-5" d="m17.25,84.66c-.2,1.19.19,1.96,1.48,2.08.21-1.18-.18-1.96-1.48-2.08Z"/>
          <path class="cls-5" d="m57.83,85.71c.2.14,1.12-.26.74-.52-.21-.15-1.12.25-.74.52Z"/>
          <path class="cls-5" d="m91.76,87.78c-2.25,1.76,2.72,1.58,0,0h0Z"/>
          <path class="cls-5" d="m10.62,89.87c0,.29.6.6.74,0,0-.29-.6-.59-.74,0Z"/>
          <path class="cls-5" d="m17.99,91.95c-.04-.72.35-1.15.74-1.57-.94-.02-1.02-.67-2.2-.52-.22,1.19.17,1.96,1.47,2.08Z"/>
          <path class="cls-5" d="m29.8,90.91c.2.14,1.12-.25.74-.52-.21-.14-1.12.25-.74.52Z"/>
          <path class="cls-5" d="m103.55,91.43c-.74,0-.87-.42-1.47-.51,0,.52-.6.62-.74,1.04.75,0,.89.43,1.48.52,0-.52.6-.62.74-1.04Z"/>
          <path class="cls-5" d="m12.83,91.95c0,.29.6.59.74,0,0-.29-.59-.59-.74,0Z"/>
          <path class="cls-5" d="m29.8,91.95c0,.29.6.59.74,0,0-.29-.59-.59-.74,0Z"/>
          <path class="cls-5" d="m.3,95.6v-2.08c-2.85-.41-2.85,2.49,0,2.08Z"/>
          <path class="cls-5" d="m20.21,101.85c-.02.29.59.59.73,0,0-.29-.6-.58-.73,0Z"/>
          <path class="cls-5" d="m5.46,102.89c-1.79,1.33.31,2.84,1.48,3.64.12-.61,1.16-.57,2.21-.52-.41-1.63-1.76-2.59-3.69-3.13Z"/>
          <path class="cls-5" d="m88.06,102.89c-.04.67-.94.72-.74,1.56h1.48c.83-.75.8-1.27-.74-1.56Z"/>
          <path class="cls-5" d="m131.58,104.98c-.21-.14-1.12.25-.74.52.2.14,1.12-.25.74-.52Z"/>
          <path class="cls-5" d="m28.67,104.39c-.14,1.5-.09,2.84,2.22,2.6.22-.7,1.04-.99.73-2.08-1-.16-1.42-.74-2.95-.52Z"/>
          <path class="cls-5" d="m107.99,92.2h-1.47v1.04h1.47v-1.04Z"/>
          <path class="cls-5" d="m46.76,112.27c.57-.12,1.46-.01,1.48-.51-.57.11-1.45,0-1.48.51Z"/>
          <path class="cls-5" d="m34.96,113.31c.87-.08,2.09.08,2.21-.52-.86.08-2.09-.09-2.21.52Z"/>
          <path class="cls-5" d="m45.28,113.31c.2.15,1.12-.25.74-.52-.2-.14-1.12.25-.74.52Z"/>
          <path class="cls-5" d="m152.98,113.31c0,.29.59.59.73,0,0-.29-.6-.59-.73,0Z"/>
          <path class="cls-5" d="m78.76,104.47c.2.15,1.11-.25.73-.52-.2-.14-1.12.25-.73.52Z"/>
          <path class="cls-5" d="m25.45,143.27c-.2,1.19.18,1.96,1.48,2.08.93-.61.59-2.16-1.48-2.08Z"/>
          <path class="cls-5" d="m107.26,103.66c.49,1.94-2.05,3.06,1.47,3.12-.45-1.07,1.19-3.62-1.47-3.12Z"/>
          <path class="cls-5" d="m124.22,104.7c.2.14,1.12-.25.74-.52-.2-.14-1.11.25-.74.52Z"/>
          <path class="cls-5" d="m50.73,107.6c.2.14,1.13-.25.74-.52-.2-.14-1.12.25-.74.52Z"/>
          <path class="cls-5" d="m130.85,105.74c-.23.7-1.05.99-.73,2.08h2.95c.13-1.3-1.13-1.63-2.22-2.08Z"/>
          <path class="cls-5" d="m66.67,122.69c-2.01.84,1.09,1.75,1.48.52-.74,0-.87-.42-1.48-.52Z"/>
          <path class="cls-5" d="m144.12,122.69c-.57.12-1.45.01-1.48.52.57-.12,1.45-.01,1.48-.52Z"/>
          <path class="cls-5" d="m57.37,109.16c.11-.54-.57-1.34-.74-.52-.11.55.57,1.35.74.52Z"/>
          <path class="cls-5" d="m136.75,126.85c.2.15,1.11-.25.73-.52-.21-.15-1.13.25-.73.52Z"/>
          <path class="cls-5" d="m131.58,127.37c.2.15,1.12-.25.73-.52-.21-.14-1.12.25-.73.52Z"/>
          <path class="cls-5" d="m144.87,110.43c-1.28-.04-2.29.12-2.95.52-.23,1.37,1.02,1.71,2.95,1.57v-2.09Z"/>
          <path class="cls-5" d="m89.54,127.37v1.04h2.22c.09-.93-.74-1.22-2.22-1.04Z"/>
          <path class="cls-5" d="m98.39,127.9c-3.46-.17-1.97,2.41,0,2.61,1.38-.99-.44-.95,0-2.61Z"/>
          <path class="cls-5" d="m107.98,128.94c.57-.12,1.46-.02,1.47-.53-.57.12-1.45.02-1.47.53Z"/>
          <path class="cls-5" d="m41.15,156.21c-.04.31-.11.61-.74.52v1.04c1.82.81,2.17-1.77.74-1.56Z"/>
          <path class="cls-5" d="m72.12,115.41c-.74,0-.88-.42-1.48-.52-2.01.84,1.09,1.75,1.48.52Z"/>
          <path class="cls-5" d="m35.69,130.5c.21.14,1.12-.25.74-.52-.2-.14-1.12.25-.74.52Z"/>
          <path class="cls-5" d="m62.52,116.45c.58-.11,1.47-.01,1.48-.52-.57.12-1.45.01-1.48.52Z"/>
          <path class="cls-5" d="m72.58,131.55c.2.14,1.12-.25.74-.52-.21-.14-1.12.25-.74.52Z"/>
          <path class="cls-5" d="m108.72,132.06c.21.15,1.12-.25.73-.52-.2-.15-1.1.25-.73.52Z"/>
          <path class="cls-5" d="m146.33,132.06c.83-.05,1.15.76,1.48,0-.01-.52-1.3-.65-1.48,0Z"/>
          <path class="cls-5" d="m138.95,133.11h1.48v-1.04h-1.48v1.04Z"/>
          <path class="cls-5" d="m132.33,117.2c.83-.05,1.15.76,1.48,0,0-.52-1.29-.66-1.48,0Z"/>
          <path class="cls-5" d="m34.02,153.35c0,.28.61.58.75,0,0-.29-.59-.59-.75,0Z"/>
          <path class="cls-5" d="m39.68,103.65c-.21-.14-1.12.25-.74.52.21.15,1.12-.25.74-.52Z"/>
          <path class="cls-5" d="m35.69,135.19c0-.28-.59-.59-.73,0,0,.29.6.59.73,0Z"/>
          <path class="cls-5" d="m102.81,135.19c0,.29.6.59.74,0,.01-.28-.59-.59-.74,0Z"/>
          <path class="cls-5" d="m144.87,118.76c.57-.12,1.46-.01,1.47-.52-.57.11-1.45.02-1.47.52Z"/>
          <path class="cls-5" d="m39.68,105.21c.01.52-.6.62-.74,1.04,1.17-.05,2.56.07,2.22-1.04h-1.48Z"/>
          <path class="cls-5" d="m34.96,137.27c.2.14,1.12-.25.73-.52-.2-.15-1.11.25-.73.52Z"/>
          <path class="cls-5" d="m103.55,136.76c-.19-.15-1.12.25-.74.52.22.14,1.13-.25.74-.52Z"/>
          <path class="cls-5" d="m61.79,123.22c1.42.21.58,2.02,2.95,1.56,2-.82-1.82-3.11-2.95-1.56Z"/>
          <path class="cls-5" d="m154.44,139.36c.21.15,1.13-.25.74-.52-.21-.14-1.12.25-.74.52Z"/>
          <path class="cls-5" d="m56.63,124.79c.2.15,1.12-.25.74-.52-.2-.14-1.13.25-.74.52Z"/>
          <path class="cls-5" d="m74.05,139.88c-.98-.68-2.74-.69-2.96.52.98.68,2.75.69,2.96-.52Z"/>
          <path class="cls-5" d="m154.44,140.4c.21.15,1.13-.25.74-.52-.21-.15-1.12.25-.74.52Z"/>
          <path class="cls-5" d="m156.67,140.92c1.27.03,1.88-.4,2.21-1.04-1.17.05-2.56-.07-2.21,1.04Z"/>
          <path class="cls-5" d="m65.48,125.83c.2.15,1.12-.25.74-.52-.2-.15-1.12.25-.74.52Z"/>
          <path class="cls-5" d="m158.14,142.48c0,.29.59.59.74,0,0-.29-.6-.59-.74,0Z"/>
          <path class="cls-5" d="m68.15,143.52c.21.15,1.12-.25.73-.52-.2-.14-1.12.25-.73.52Z"/>
          <path class="cls-5" d="m40.67,162.72c.57-.12,1.45-.01,1.47-.52-.57.11-1.45.01-1.47.52Z"/>
          <path class="cls-5" d="m115.36,126.58c-.2-.14-1.11.25-.73.52.19.15,1.12-.25.73-.52Z"/>
          <path class="cls-5" d="m26.41,115.11h1.48v-2.08h-1.48v2.08Z"/>
          <path class="cls-5" d="m150.76,146.13c-.77,3.02,3.2.22,0,0h0Z"/>
          <path class="cls-5" d="m74.79,146.65h-1.47c-.05.67-.95.72-.74,1.56h2.21v-1.56Z"/>
          <path class="cls-5" d="m115.71,86.9c0,.29.59.59.73,0,0-.29-.59-.59-.73,0Z"/>
          <path class="cls-5" d="m125.69,133.35c.2.14,1.12-.25.75-.52-.22-.15-1.13.25-.75.52Z"/>
          <path class="cls-5" d="m127.91,133.87c.2.14,1.12-.25.74-.52-.21-.15-1.12.25-.74.52Z"/>
          <path class="cls-5" d="m65.94,151.86c0,.29.59.59.73,0,0-.29-.59-.59-.73,0Z"/>
          <path class="cls-5" d="m54.41,137.81c.2.14,1.12-.25.74-.52-.2-.15-1.12.25-.74.52Z"/>
          <path class="cls-5" d="m74.79,153.94c-.2-.14-1.12.25-.74.52.2.14,1.12-.25.74-.52Z"/>
          <path class="cls-5" d="m138.97,138.04v1.04h2.21c.1-.94-.73-1.22-2.21-1.04Z"/>
          <path class="cls-5" d="m91.76,156.03c-.94-.03-1.03-.66-2.22-.52-1.14,1.28,2.51,1.53,2.22.52Z"/>
          <path class="cls-5" d="m170.68,157.07c.57-.11,1.45,0,1.47-.51-.58.11-1.45.01-1.47.51Z"/>
          <path class="cls-5" d="m123.48,140.13c-.45.02-.88.08-.73.51,1.21.01.41,1.45,1.47,1.57,1.29-1.06-.54-1.02.74-2.08h-1.48Z"/>
          <path class="cls-5" d="m113.15,140.64h-2.21c-.21,1.19.17,1.96,1.48,2.09.23-.71,1.05-.99.73-2.09Z"/>
          <path class="cls-5" d="m113.89,142.73c.21.14,1.13-.25.75-.52-.22-.14-1.12.25-.75.52Z"/>
          <path class="cls-5" d="m119.04,161.24c.2.14,1.12-.25.73-.52-.19-.14-1.12.25-.73.52Z"/>
          <path class="cls-5" d="m122.73,163.32v-2.08h-2.21c-.19,1.36-.24,2.6,2.21,2.08Z"/>
          <path class="cls-5" d="m143.38,162.28c.2.14,1.13-.25.74-.52-.2-.15-1.12.25-.74.52Z"/>
          <path class="cls-5" d="m63.34,99.92c0,.29.61.59.74,0,0-.29-.6-.6-.74,0Z"/>
          <path class="cls-5" d="m58.62,169.02c.99.68,2.75.69,2.96-.52-.98-.68-2.74-.68-2.96.52Z"/>
          <path class="cls-5" d="m79.88,171.94c-.94-.03-1.03-.66-2.22-.52-1.15,1.28,2.5,1.53,2.22.52Z"/>
          <path class="cls-5" d="m29.36,132.82c-1.78,1.75,2.47-1.26,0,0h0Z"/>
          <path class="cls-5" d="m74.79,163.84v1.04c.74,0,.88.42,1.47.52-.07-.82.1-1.8-1.47-1.56Z"/>
          <path class="cls-5" d="m103.55,164.36c.58-.11,1.47-.01,1.49-.52-.58.11-1.47.01-1.49.52Z"/>
          <path class="cls-5" d="m36.8,102.52c.21.15,1.12-.25.74-.52-.21-.14-1.12.26-.74.52Z"/>
          <path class="cls-5" d="m85.85,165.93c-.94-.03-1.02-.67-2.22-.53-1.14,1.28,2.51,1.54,2.22.53Z"/>
          <path class="cls-5" d="m69.63,166.45c.57-.12,1.46-.01,1.47-.52-.57.12-1.44.01-1.47.52Z"/>
          <path class="cls-5" d="m66.36,5.87c-4.69.38-.05,3.13.74,1.57-.87-.1-.8-.83-.74-1.57Z"/>
          <path class="cls-5" d="m116.11,133.35c-.3.89-.95-.11-2.22,0v1.57c1.43.24,3.78-1.41,2.22-1.57Z"/>
          <path class="cls-5" d="m33.83,99.92c1.48,0,.94,1.42,2.96,1.04.71-1.27-3.31-1.73-2.96-1.04Z"/>
        </g>
      </g>
    </g>
  </g>
</svg>