<?xml version="1.0" encoding="UTF-8"?>
<svg id="Capa_2" data-name="Capa 2" xmlns="http://www.w3.org/2000/svg" viewBox="0 0 16.76 16.88">
  <defs>
    <style>
      .cls-1 {
        fill: #fff;
        stroke-width: 0px;
      }
    </style>
  </defs>
  <g id="Object">
    <g>
      <g>
        <path class="cls-1" d="m7.13,12.13l-2.58,2.58c-.62.62-1.53.73-2.03.23l-1.58-1.58c-.49-.49-.39-1.4.23-2.03l3.9-3.9c.1-.1.1-.27,0-.37s-.27-.1-.37,0l-3.9,3.9c-.83.83-.93,2.07-.23,2.77l1.58,1.58c.31.31.73.46,1.17.46.55,0,1.14-.24,1.6-.7l2.58-2.58c.1-.1.1-.27,0-.37-.1-.1-.27-.1-.37,0Z"/>
        <path class="cls-1" d="m3.31,15.88c-.48,0-.92-.17-1.24-.49l-1.58-1.58c-.74-.74-.63-2.04.23-2.91l3.9-3.9c.14-.14.37-.14.51,0,.14.14.14.37,0,.51l-3.9,3.9c-.59.59-.69,1.43-.23,1.89l1.58,1.58c.46.46,1.3.35,1.89-.23l2.58-2.58c.14-.14.37-.14.51,0,.07.07.11.16.11.25s-.04.19-.11.26l-2.58,2.58c-.46.46-1.07.73-1.67.73Zm1.56-8.79s-.08.02-.12.05l-3.9,3.9c-.79.79-.9,1.97-.23,2.63l1.58,1.58c.28.28.67.43,1.1.43.55,0,1.1-.24,1.53-.67l2.58-2.58s.05-.07.05-.12-.02-.08-.05-.12c-.06-.06-.17-.06-.23,0l-2.58,2.58c-.66.66-1.63.77-2.17.23l-1.58-1.58c-.53-.53-.43-1.51.23-2.17l3.9-3.9s.05-.07.05-.12-.02-.08-.05-.12c-.03-.03-.07-.05-.12-.05Z"/>
      </g>
      <g>
        <path class="cls-1" d="m16.2,3.37l-1.58-1.58c-.7-.7-1.94-.59-2.77.23l-2.85,2.85c-.1.1-.1.27,0,.37.1.1.27.1.37,0l2.85-2.85c.62-.62,1.53-.73,2.03-.23l1.58,1.58c.49.49.39,1.4-.23,2.03l-4.51,4.51c-.1.1-.1.27,0,.37.1.1.27.1.37,0l4.51-4.51c.83-.83.93-2.07.23-2.77Z"/>
        <path class="cls-1" d="m11.27,10.82c-.09,0-.18-.03-.25-.11-.14-.14-.14-.37,0-.51l4.51-4.51c.59-.59.69-1.43.23-1.89l-1.58-1.58c-.46-.46-1.3-.35-1.89.23l-2.85,2.85c-.14.14-.37.14-.51,0-.07-.07-.11-.16-.11-.26s.04-.19.11-.25l2.85-2.85c.42-.42.95-.67,1.49-.72.55-.04,1.06.13,1.41.48l1.58,1.58c.74.74.63,2.04-.23,2.91l-4.51,4.51c-.07.07-.16.11-.26.11ZM13.45,1.75c.33,0,.64.11.87.34l1.58,1.58c.53.53.43,1.51-.23,2.17l-4.51,4.51s-.05.07-.05.12.02.09.05.12c.06.06.17.06.23,0l4.51-4.51c.79-.79.89-1.97.23-2.63l-1.58-1.58c-.32-.32-.76-.47-1.26-.43-.5.04-.99.28-1.37.66l-2.85,2.85s-.05.07-.05.12.02.08.05.12c.06.06.17.06.23,0l2.85-2.85c.38-.38.86-.57,1.3-.57Z"/>
      </g>
      <g>
        <path class="cls-1" d="m1.32,5.17h2.01c.14,0,.26-.12.26-.26s-.12-.26-.26-.26H1.32c-.14,0-.26.12-.26.26s.12.26.26.26Z"/>
        <path class="cls-1" d="m3.33,5.26H1.32c-.2,0-.36-.16-.36-.36s.16-.36.36-.36h2.01c.2,0,.36.16.36.36s-.16.36-.36.36Zm-2.01-.52c-.09,0-.16.07-.16.16s.07.16.16.16h2.01c.09,0,.16-.07.16-.16s-.07-.16-.16-.16H1.32Z"/>
      </g>
      <g>
        <path class="cls-1" d="m3.14,2.46c.1.1.27.1.37,0s.1-.27,0-.37L1.61.19c-.1-.1-.27-.1-.37,0-.1.1-.1.27,0,.37l1.9,1.9Z"/>
        <path class="cls-1" d="m3.32,2.63c-.09,0-.18-.03-.25-.11h0L1.17.63c-.14-.14-.14-.37,0-.51C1.31-.02,1.53-.02,1.68.12l1.9,1.9c.07.07.11.16.11.25s-.04.19-.11.26c-.07.07-.16.11-.25.11Zm-.12-.24c.06.06.17.06.23,0,.03-.03.05-.07.05-.12s-.02-.08-.05-.12L1.54.26c-.06-.06-.17-.06-.23,0-.06.06-.06.17,0,.23l1.9,1.9Z"/>
      </g>
      <g>
        <path class="cls-1" d="m5.87,2.46c.14,0,.26-.12.26-.26V.36c0-.14-.12-.26-.26-.26s-.26.12-.26.26v1.83c0,.14.12.26.26.26Z"/>
        <path class="cls-1" d="m5.87,2.56c-.2,0-.36-.16-.36-.36V.36c0-.2.16-.36.36-.36s.36.16.36.36v1.83c0,.2-.16.36-.36.36ZM5.87.2c-.09,0-.16.07-.16.16v1.83c0,.09.07.16.16.16s.16-.07.16-.16V.36c0-.09-.07-.16-.16-.16Z"/>
      </g>
      <g>
        <path class="cls-1" d="m15.3,11.72h-2.01c-.14,0-.26.12-.26.26s.12.26.26.26h2.01c.14,0,.26-.12.26-.26s-.12-.26-.26-.26Z"/>
        <path class="cls-1" d="m15.3,12.34h-2.01c-.2,0-.36-.16-.36-.36s.16-.36.36-.36h2.01c.2,0,.36.16.36.36s-.16.36-.36.36Zm-2.01-.52c-.09,0-.16.07-.16.16s.07.16.16.16h2.01c.09,0,.16-.07.16-.16s-.07-.16-.16-.16h-2.01Z"/>
      </g>
      <g>
        <path class="cls-1" d="m13.49,14.42c-.1-.1-.27-.1-.37,0-.1.1-.1.27,0,.37l1.9,1.9c.1.1.27.1.37,0,.1-.1.1-.27,0-.37l-1.9-1.9Z"/>
        <path class="cls-1" d="m15.2,16.87c-.09,0-.18-.04-.25-.11l-1.9-1.9c-.14-.14-.14-.37,0-.51.07-.07.16-.11.26-.11h0c.1,0,.19.04.25.11l1.9,1.9c.14.14.14.37,0,.51-.07.07-.16.11-.25.11Zm-1.9-2.42s-.09.02-.12.05c-.06.06-.06.17,0,.23l1.9,1.9c.06.06.17.06.23,0,.06-.06.06-.17,0-.23l-1.9-1.9h0s-.07-.05-.12-.05h0Z"/>
      </g>
      <g>
        <path class="cls-1" d="m10.76,14.42c-.14,0-.26.12-.26.26v1.83c0,.14.12.26.26.26s.26-.12.26-.26v-1.83c0-.14-.12-.26-.26-.26Z"/>
        <path class="cls-1" d="m10.76,16.88c-.2,0-.36-.16-.36-.36v-1.83c0-.2.16-.36.36-.36s.36.16.36.36v1.83c0,.2-.16.36-.36.36Zm0-2.36c-.09,0-.16.07-.16.16v1.83c0,.09.07.16.16.16s.16-.07.16-.16v-1.83c0-.09-.07-.16-.16-.16Z"/>
      </g>
    </g>
  </g>
</svg>