<?xml version="1.0" encoding="UTF-8"?>
<svg id="Capa_2" data-name="Capa 2" xmlns="http://www.w3.org/2000/svg" viewBox="0 0 218.5 269.93">
  <defs>
    <style>
      .cls-1 {
        fill: #e2c046;
      }

      .cls-1, .cls-2 {
        stroke-width: 0px;
      }

      .cls-2, .cls-3 {
        fill: #fff;
      }

      .cls-3 {
        stroke: #fff;
        stroke-miterlimit: 10;
        stroke-width: 1.58px;
      }
    </style>
  </defs>
  <g id="Capa_1-2" data-name="Capa 1">
    <g>
      <path class="cls-1" d="m70.08,0c16.99,0,31.89,3.37,44.72,10.13,12.82,6.75,22.79,16.11,29.93,28.1,7.13,11.98,10.7,25.79,10.7,41.42,0,15.62-3.57,29.43-10.7,41.42-7.13,11.98-17.11,21.35-29.93,28.1-12.82,6.75-27.73,10.13-44.72,10.13H5.22V0h64.86ZM22.06,144.74h47.1c14.11,0,26.36-2.77,36.75-8.3,10.39-5.54,18.47-13.17,24.24-22.88,5.76-9.71,8.65-21.01,8.65-33.9,0-12.74-2.88-24.01-8.65-33.79-5.77-9.79-13.85-17.45-24.24-22.99-10.39-5.54-22.64-8.3-36.75-8.3H22.06s0,130.17,0,130.17Z"/>
      <g>
        <path class="cls-3" d="m4.52,177.75c-1.16,0-2.07-.33-2.74-1-.66-.66-1-1.64-1-2.91v-5.02h1.26v4.97c0,.98.22,1.7.65,2.16.43.45,1.04.68,1.84.68s1.42-.23,1.85-.68c.43-.45.65-1.17.65-2.16v-4.97h1.22v5.02c0,1.28-.33,2.25-.99,2.91-.66.66-1.58,1-2.74,1Z"/>
        <path class="cls-3" d="m12.11,177.65v-8.83h1.03l5.84,7.25h-.54v-7.25h1.26v8.83h-1.03l-5.84-7.25h.54v7.25h-1.26Z"/>
        <path class="cls-3" d="m23.61,177.65v-8.83h1.26v8.83h-1.26Z"/>
        <path class="cls-3" d="m30.05,177.65h-1.26v-8.83h6.23v1.1h-4.97v7.73Zm-.13-4.66h4.55v1.08h-4.55v-1.08Z"/>
        <path class="cls-3" d="m41.94,177.75c-.67,0-1.3-.11-1.87-.34-.58-.23-1.07-.54-1.49-.95-.42-.41-.75-.89-.98-1.43-.24-.55-.35-1.14-.35-1.79s.12-1.24.35-1.79c.24-.55.56-1.02.98-1.43.42-.41.92-.73,1.49-.95.57-.23,1.2-.34,1.88-.34s1.3.11,1.87.33c.57.22,1.07.54,1.49.95.42.41.75.89.98,1.44s.35,1.15.35,1.8-.12,1.26-.35,1.8c-.23.55-.56,1.02-.98,1.43-.42.41-.92.72-1.49.95-.57.22-1.19.33-1.87.33Zm-.01-1.12c.5,0,.95-.08,1.37-.25.42-.17.78-.41,1.09-.71.31-.31.55-.67.72-1.08.17-.41.26-.86.26-1.35s-.09-.94-.26-1.34c-.17-.41-.41-.77-.72-1.08-.31-.31-.67-.55-1.09-.72s-.87-.25-1.37-.25-.94.08-1.36.25-.78.41-1.09.72c-.31.31-.55.67-.73,1.08-.17.41-.26.86-.26,1.34s.09.94.26,1.35c.17.41.41.77.73,1.08.31.31.68.54,1.09.71.42.17.87.25,1.36.25Z"/>
        <path class="cls-3" d="m49.82,177.65v-8.83h3.44c.77,0,1.43.12,1.98.37.55.24.97.6,1.26,1.06.29.46.44,1.01.44,1.65s-.15,1.19-.44,1.65c-.29.46-.71.81-1.26,1.05-.55.24-1.21.37-1.98.37h-2.75l.57-.58v3.27h-1.26Zm1.26-3.14l-.57-.62h2.71c.81,0,1.42-.17,1.84-.52.42-.35.62-.84.62-1.47s-.21-1.12-.62-1.46c-.42-.34-1.03-.52-1.84-.52h-2.71l.57-.63v5.22Zm4.64,3.14l-2.25-3.2h1.35l2.27,3.2h-1.38Z"/>
        <path class="cls-3" d="m60.25,177.65v-8.83h1.03l3.96,6.67h-.56l3.91-6.67h1.03v8.83s-1.2,0-1.2,0v-6.93s.28,0,.28,0l-3.48,5.85h-.58l-3.51-5.85h.32v6.93h-1.21Z"/>
        <path class="cls-3" d="m74.82,176.55h5.15v1.1h-6.41v-8.83h6.23v1.1h-4.97v6.64Zm-.11-3.92h4.54v1.07h-4.54v-1.07Z"/>
        <path class="cls-3" d="m85.85,177.75c-.67,0-1.32-.1-1.93-.31-.61-.21-1.1-.47-1.45-.8l.47-.98c.34.29.77.54,1.29.73.52.19,1.06.29,1.63.29.51,0,.93-.06,1.25-.18.32-.12.56-.28.71-.49.15-.21.23-.44.23-.7,0-.3-.1-.55-.3-.73s-.45-.33-.77-.45c-.32-.11-.66-.21-1.04-.3-.38-.08-.76-.18-1.14-.3-.38-.11-.73-.26-1.05-.44s-.57-.41-.76-.71c-.19-.3-.29-.68-.29-1.15s.12-.87.36-1.26c.24-.38.61-.69,1.11-.92.5-.23,1.14-.35,1.91-.35.51,0,1.02.07,1.53.2s.94.33,1.31.58l-.42,1.01c-.38-.25-.78-.44-1.2-.55-.42-.11-.83-.17-1.22-.17-.5,0-.9.06-1.22.19-.32.13-.55.29-.7.5-.15.21-.22.45-.22.71,0,.31.1.56.3.74.2.19.45.33.77.44.32.11.66.21,1.04.3.38.09.76.19,1.14.3.38.11.73.25,1.05.43.32.18.57.41.76.71.19.29.29.67.29,1.14s-.12.86-.37,1.24c-.24.38-.62.69-1.13.92-.51.23-1.15.35-1.92.35Z"/>
        <path class="cls-3" d="m4.79,192.33c-.73,0-1.43-.11-2.1-.34-.67-.22-1.19-.51-1.58-.87l.51-1.07c.37.32.83.58,1.4.79.57.21,1.16.32,1.77.32.56,0,1.01-.06,1.36-.19.35-.13.6-.3.77-.53.16-.22.25-.48.25-.76,0-.33-.11-.59-.32-.79s-.49-.36-.84-.49-.72-.23-1.13-.32c-.41-.09-.82-.2-1.24-.32-.42-.12-.79-.28-1.14-.47s-.62-.45-.83-.77c-.21-.32-.32-.74-.32-1.25s.13-.95.39-1.36c.26-.42.66-.75,1.21-1,.54-.25,1.24-.38,2.08-.38.56,0,1.11.07,1.66.22.55.15,1.02.36,1.42.63l-.45,1.1c-.41-.27-.84-.47-1.3-.6-.46-.12-.9-.18-1.33-.18-.54,0-.98.07-1.33.21-.35.14-.6.32-.76.55-.16.23-.24.48-.24.77,0,.34.11.61.32.81.21.2.49.36.84.48.34.12.72.23,1.13.32.41.1.82.2,1.24.32.42.12.79.27,1.14.47.34.19.62.45.83.77.21.32.32.73.32,1.23s-.13.93-.4,1.35c-.26.42-.67.75-1.23,1-.55.25-1.25.38-2.09.38Z"/>
        <path class="cls-3" d="m13.25,191.03h5.59v1.19h-6.96v-9.59h6.77v1.19h-5.4v7.21Zm-.12-4.26h4.93v1.16h-4.93v-1.16Z"/>
        <path class="cls-3" d="m22.43,192.22v-9.59h1.12l6.34,7.88h-.59v-7.88h1.37v9.59h-1.12l-6.34-7.88h.59v7.88h-1.37Z"/>
        <path class="cls-3" d="m33.47,192.22l4.34-9.59h1.36l4.36,9.59h-1.44l-3.88-8.82h.55l-3.88,8.82h-1.41Zm1.85-2.4l.37-1.1h5.4l.4,1.1h-6.16Z"/>
        <path class="cls-3" d="m1.63,206.22v-8.7h3.67c.93,0,1.75.18,2.45.55.71.36,1.26.87,1.65,1.53.39.65.59,1.41.59,2.27s-.2,1.62-.59,2.27c-.39.65-.94,1.16-1.65,1.53-.71.36-1.53.55-2.45.55H1.63Zm1.24-1.08h2.35c.72,0,1.34-.14,1.87-.41.53-.27.93-.66,1.22-1.15.29-.49.43-1.06.43-1.71s-.15-1.23-.43-1.72c-.29-.49-.7-.87-1.22-1.14-.53-.27-1.15-.41-1.87-.41h-2.35v6.54Z"/>
        <path class="cls-3" d="m17.07,206.32c-.66,0-1.28-.11-1.85-.34-.57-.22-1.06-.54-1.47-.94-.41-.4-.74-.87-.97-1.41-.23-.54-.35-1.13-.35-1.76s.12-1.23.35-1.76c.23-.54.55-1.01.97-1.41.41-.4.9-.71,1.47-.94.56-.22,1.18-.34,1.85-.34s1.28.11,1.84.33c.56.22,1.05.53,1.47.93.41.4.74.87.96,1.42s.34,1.13.34,1.77-.11,1.24-.34,1.78c-.23.54-.55,1.01-.96,1.41-.41.4-.9.71-1.47.93-.56.22-1.18.33-1.84.33Zm-.01-1.11c.49,0,.94-.08,1.35-.25.41-.17.77-.4,1.07-.7.3-.3.54-.66.71-1.06.17-.41.25-.85.25-1.33s-.08-.92-.25-1.32c-.17-.4-.41-.76-.71-1.06-.3-.31-.66-.54-1.07-.71-.41-.17-.86-.25-1.35-.25s-.93.08-1.34.25c-.41.17-.77.4-1.08.71-.31.31-.54.66-.71,1.06-.17.4-.25.84-.25,1.32s.08.92.25,1.33c.17.41.41.76.71,1.06.31.3.66.54,1.08.7.41.17.86.25,1.34.25Z"/>
        <path class="cls-3" d="m26.43,206.22v-7.62h-2.98v-1.08h7.2v1.08h-2.98v7.62h-1.23Z"/>
        <path class="cls-3" d="m31.48,206.22l3.94-8.7h1.23l3.95,8.7h-1.3l-3.52-8h.5l-3.52,8h-1.28Zm1.68-2.17l.34-.99h4.9l.36.99h-5.59Z"/>
        <path class="cls-3" d="m46.91,206.32c-.66,0-1.27-.11-1.83-.33-.56-.22-1.04-.53-1.45-.93-.41-.4-.73-.87-.96-1.41-.23-.54-.35-1.13-.35-1.78s.12-1.24.35-1.78c.23-.54.55-1.01.97-1.41.41-.4.9-.71,1.46-.93.56-.22,1.17-.33,1.83-.33s1.29.11,1.86.34c.57.23,1.05.57,1.45,1.01l-.81.78c-.33-.35-.7-.61-1.12-.78-.41-.17-.86-.25-1.33-.25s-.94.08-1.36.25c-.42.17-.78.4-1.09.7-.31.3-.54.65-.71,1.06-.17.41-.25.86-.25,1.34s.08.93.25,1.34c.17.41.41.76.71,1.06.31.3.67.53,1.09.7.42.17.87.25,1.36.25s.92-.08,1.33-.25c.41-.17.79-.43,1.12-.79l.81.78c-.4.45-.88.79-1.45,1.02-.57.23-1.19.35-1.87.35Z"/>
        <path class="cls-3" d="m53.24,206.22v-8.7h1.24v8.7h-1.24Z"/>
        <path class="cls-3" d="m62.27,206.32c-.66,0-1.28-.11-1.85-.34-.57-.22-1.06-.54-1.47-.94-.41-.4-.74-.87-.97-1.41-.23-.54-.35-1.13-.35-1.76s.12-1.23.35-1.76c.23-.54.55-1.01.97-1.41.41-.4.9-.71,1.47-.94.56-.22,1.18-.34,1.85-.34s1.28.11,1.84.33c.56.22,1.05.53,1.47.93.41.4.74.87.96,1.42s.34,1.13.34,1.77-.11,1.24-.34,1.78c-.23.54-.55,1.01-.96,1.41-.41.4-.9.71-1.47.93-.56.22-1.18.33-1.84.33Zm-.01-1.11c.49,0,.94-.08,1.35-.25.41-.17.77-.4,1.07-.7.3-.3.54-.66.71-1.06.17-.41.25-.85.25-1.33s-.08-.92-.25-1.32c-.17-.4-.41-.76-.71-1.06-.3-.31-.66-.54-1.07-.71-.41-.17-.86-.25-1.35-.25s-.93.08-1.34.25c-.41.17-.77.4-1.08.71-.31.31-.54.66-.71,1.06-.17.4-.25.84-.25,1.32s.08.92.25,1.33c.17.41.41.76.71,1.06.31.3.66.54,1.08.7.41.17.86.25,1.34.25Z"/>
        <path class="cls-3" d="m70.02,206.22v-8.7h1.02l5.75,7.15h-.53v-7.15h1.24v8.7h-1.02l-5.75-7.15h.53v7.15h-1.24Z"/>
        <path class="cls-3" d="m82.6,205.14h5.07v1.08h-6.31v-8.7h6.14v1.08h-4.9v6.54Zm-.11-3.87h4.47v1.06h-4.47v-1.06Z"/>
        <path class="cls-3" d="m93.46,206.32c-.66,0-1.3-.1-1.9-.3-.6-.2-1.08-.47-1.43-.79l.46-.97c.33.29.75.53,1.27.72.51.19,1.05.29,1.6.29.51,0,.92-.06,1.23-.17.31-.12.55-.28.7-.48.15-.2.22-.43.22-.69,0-.3-.1-.54-.29-.72s-.45-.33-.76-.44-.65-.21-1.03-.29c-.37-.08-.75-.18-1.12-.29-.38-.11-.72-.25-1.03-.43s-.56-.41-.75-.7c-.19-.29-.29-.67-.29-1.14s.12-.86.35-1.24c.24-.38.6-.68,1.09-.91.49-.23,1.12-.34,1.88-.34.51,0,1.01.07,1.5.2s.93.32,1.29.57l-.41.99c-.37-.25-.77-.43-1.18-.54-.41-.11-.82-.17-1.21-.17-.49,0-.89.06-1.21.19-.32.12-.54.29-.69.5-.14.21-.22.44-.22.7,0,.31.1.55.29.73.19.18.45.33.76.43.31.11.65.21,1.03.29.37.09.75.18,1.12.29.38.11.72.25,1.03.42.31.17.56.41.75.7.19.29.29.66.29,1.12s-.12.85-.36,1.22c-.24.38-.61.68-1.11.91-.5.23-1.13.34-1.9.34Z"/>
        <path class="cls-3" d="m1.24,232.05v-19.02h7.42c1.67,0,3.09.26,4.27.79,1.18.53,2.08,1.29,2.72,2.28.63,1,.95,2.18.95,3.56s-.32,2.56-.95,3.55c-.63.99-1.54,1.74-2.72,2.27-1.18.53-2.6.79-4.27.79H2.73l1.22-1.25v7.04H1.24Zm2.72-6.77l-1.22-1.33h5.84c1.74,0,3.06-.38,3.95-1.13.9-.75,1.35-1.81,1.35-3.17s-.45-2.41-1.35-3.15c-.9-.74-2.21-1.11-3.95-1.11H2.73l1.22-1.36v11.25Zm10,6.77l-4.84-6.9h2.91l4.89,6.9h-2.96Z"/>
        <path class="cls-3" d="m23.71,232.05v-19.02h2.72v19.02h-2.72Z"/>
        <path class="cls-3" d="m43.35,232.27c-1.45,0-2.79-.24-4.01-.72-1.22-.48-2.28-1.16-3.18-2.04-.9-.88-1.6-1.91-2.11-3.08-.51-1.18-.76-2.47-.76-3.89s.25-2.71.76-3.89c.51-1.18,1.21-2.21,2.12-3.08.91-.88,1.97-1.56,3.19-2.04,1.22-.48,2.56-.72,4.01-.72s2.82.25,4.06.75c1.24.5,2.3,1.24,3.17,2.21l-1.77,1.71c-.72-.76-1.54-1.33-2.45-1.7-.91-.37-1.87-.56-2.91-.56s-2.06.18-2.98.54c-.92.36-1.71.87-2.38,1.52-.67.65-1.19,1.43-1.56,2.32-.37.9-.56,1.87-.56,2.92s.19,2.02.56,2.92c.37.9.89,1.67,1.56,2.32.67.65,1.46,1.16,2.38,1.52.91.36,1.91.54,2.98.54s2-.19,2.91-.56c.91-.37,1.72-.95,2.45-1.73l1.77,1.71c-.87.98-1.92,1.72-3.17,2.23-1.24.51-2.6.76-4.09.76Z"/>
        <path class="cls-3" d="m59.93,232.05h-2.72v-19.02h2.72v19.02Zm11.17-8.48h-11.44v-2.36h11.44v2.36Zm-.24-10.54h2.72v19.02h-2.72v-19.02Z"/>
        <path class="cls-3" d="m86.58,232.05v-7.28l.62,1.68-8.18-13.42h2.91l6.87,11.33h-1.58l6.9-11.33h2.69l-8.15,13.42.6-1.68v7.28h-2.69Z"/>
      </g>
      <g>
        <g>
          <polygon class="cls-2" points="121.55 88.24 121.29 80.2 106.04 80.2 105.27 103.74 121.55 88.24"/>
          <polygon class="cls-2" points="122.43 115.61 121.78 95.29 105.03 111.25 104.33 132.87 122.43 115.61"/>
          <path class="cls-2" d="m123.34,143.68l-.68-21.01c-6.19,5.9-12.38,11.8-18.58,17.7l-.72,22.35,19.98-19.04Z"/>
          <polygon class="cls-2" points="124.5 179.27 123.57 150.73 103.12 170.22 102.14 200.57 124.5 179.27"/>
          <polygon class="cls-2" points="125.7 216.22 124.73 186.32 101.89 208.08 100.86 239.89 125.7 216.22"/>
          <path class="cls-2" d="m100.62,247.39l-.32,9.74,13.66,12.8,13.06-12.8-1.1-33.85c-8.44,8.04-16.87,16.08-25.31,24.11Z"/>
        </g>
        <polygon class="cls-2" points="127.24 56.89 131.39 57.01 125.62 39.68 109.18 39.68 127.24 56.89"/>
        <path class="cls-2" d="m101.87,49.16c-1.7,2.32-5.97,8.11-5.94,8.1l10.04,17.46h15.31s2.61-4.57,2.61-4.57l-22.02-20.99Z"/>
      </g>
      <g>
        <path class="cls-2" d="m99.95,37.07c-4.36,1.75-26.83,8.99-13.23,42.86-5.46-5.7-16.11-2.52-11.46,2.28,3.74,3.85,21.21,12.28,43.77,3.22,19.84-7.97,27.1-17.69,29.48-30,1.71-8.87-7.99-4.24-10.12,2.65-.09.3-.18.6-.24.9-4-9.34-13.57-31.8-38.21-21.91Zm17.46,44.33c-6.27,4.03-23.58,5.61-31.09.05,1.9.65,4.67,1.35,6.25,1.52-4.61-3.4-9.74-16.71-8.2-24.81,1.58-8.31,7.21-19.45,23.97-21.84-32.58,8.34-26.04,54.91,9.07,45.08Z"/>
        <path class="cls-2" d="m126.96,47.83c6.78,11.31,4.57,27.82-4.92,35.42-3.02,2.42-5.95,3.27-8.5,4.02-13.07,3.82-26.9-1.63-27.22-5.82-.09-1.19.91-2.32.56-4.77-.23-1.64-.91-2.76-1.25-3.38,0,0-1.18-2.11-2.79-9.22-.3-1.33-1.29-14.53,8.96-22.82,1.42-1.15,9.16-7.14,19.4-5.1,9.95,1.98,14.8,10.07,15.76,11.67Z"/>
      </g>
      <path class="cls-2" d="m218.5,223.85l-35.75-50.16c1.96-.64,3.85-1.36,5.66-2.17,8.91-3.97,15.77-9.68,20.58-17.13,4.81-7.45,7.21-16.33,7.21-26.64s-2.4-19.6-7.21-27.05c-4.81-7.45-11.67-13.16-20.58-17.13-8.92-3.97-19.57-5.95-31.97-5.95h-39.04c.06.64.09,1.3.09,1.98v11.39h38.53c14.62,0,25.73,3.21,33.32,9.61,7.59,6.4,11.39,15.46,11.39,27.15s-3.8,20.55-11.39,26.96c-7.6,6.41-18.7,9.6-33.32,9.6h-38.53v13.17h38.95c4.12,0,8.05-.23,11.79-.67l33.34,47.04h16.92Z"/>
    </g>
  </g>
</svg>