<?xml version="1.0" encoding="utf-8"?>
<svg xmlns="http://www.w3.org/2000/svg" 
     viewBox="0 0 1000 300" 
     fill="currentColor">

  <g>
    <rect x="241.65" y="87.73" width="31.77" height="13.83"/>
    <rect x="189.44" y="140.52" width="14.3" height="117.9"/>
    <rect x="115.11" y="150.04" width="68.51" height="14.82"/>

    <path d="M291.89,141.91c0,12.58-10.19,22.77-22.77,22.77h-56.69v-14.48h56.69v0
             c5.19-0.07,9.37-3.75,9.37-8.29s-4.18-8.23-9.37-8.29v0h-28.35v-14.48h28.35
             C281.7,119.14,291.89,129.34,291.89,141.91z"/>

    <path d="M251.05,198.85c0,11.88-9.63,21.5-21.5,21.5h-17.12v-14h17.12
             c4.14,0,7.49-3.36,7.49-7.5c0-4.14-3.35-7.5-7.49-7.5h-17.12v-14h17.12
             C241.42,177.35,251.05,186.98,251.05,198.85z"/>

    <path d="M229.66,62.1v52.83h-13.46V62.1c-0.02-3.88-3.17-7.03-7.06-7.03
             c-3.89,0-7.04,3.14-7.06,7.03v19.41h-13.46V62.1c0-11.33,9.19-20.52,20.52-20.52
             C220.47,41.58,229.66,50.77,229.66,62.1z"/>

    <path d="M209.91,120.03v14.38h-55.15c-12.91,0-23.38-10.47-23.38-23.38
             c0-12.91,10.46-23.38,23.38-23.38h22.03v14.37h-22.03
             c-4.97,0-9.01,4.03-9.01,9.01c0,4.97,4.03,9,9.01,9H209.91z"/>
  </g>

</svg>
