<?xml version="1.0" encoding="UTF-8"?>
<svg id="Capa_2" data-name="Capa 2" xmlns="http://www.w3.org/2000/svg" viewBox="0 0 512.85 663.59">
  <defs>
    <style>
      .cls-1 {
        fill: #fefefe;
      }

      .cls-1, .cls-2, .cls-3 {
        stroke-width: 0px;
      }

      .cls-2 {
        fill: #232827;
      }

      .cls-3 {
        fill: #fecb01;
      }
    </style>
  </defs>
  <g id="Capa_1-2" data-name="Capa 1">
    <g>
      <path class="cls-1" d="m192.46,266.45c2.5-6.33,4.85-11.86,6.86-17.51,1.79-5.03,3.33-10.2,2.85-15.65-.53-5.97-4.76-8.74-10.42-6.8-4.39,1.5-7.79,4.52-10.89,7.86-4.87,5.26-9.23,10.98-11.93,17.61-4.85,11.93-12.9,21.7-20.57,31.73-3.66,4.79-7.77,9.25-12.77,12.73-3.61,2.52-4.62,2.05-5.04-2.32-.62-6.62.6-13.1,1.55-19.61.4-2.79,1.75-6.47-1.92-8.06-3.78-1.63-5.22,2.04-6.93,4.3-3.63,4.81-6.97,9.85-11.44,13.97-.89.82-1.85,2.04-3.13,1.6-1.43-.49-1.68-2.1-1.82-3.45-.3-2.87-.23-5.73.36-8.59.76-3.66,2.28-7.01,3.89-10.34.89-1.84.21-3.25-1.37-4.18-1.56-.92-3.1-.38-3.89,1.1-4.39,8.14-7.26,16.65-4.3,25.94,1.99,6.24,7.28,7.81,12.68,4.11,2.97-2.04,5.2-4.84,7.52-7.54.57-.66.98-1.9,2.11-1.51,1.28.44.55,1.63.49,2.49-.3,4.51-.76,9.03.48,13.49,1.59,5.73,5.45,7.62,10.98,5.35,3.62-1.49,6.63-3.91,9.28-6.68,11.55-12.07,21.49-25.3,28.63-40.5,3.47-7.39,7.94-14.08,14.07-19.53,2.11-1.88,4.88-5.07,7.14-3.77,2.23,1.29.73,5.22.14,7.97-2.13,10-7,18.95-10.78,28.32-.91,2.26-2.89,4.9-.31,7.18,2.61,2.3,4.89.01,7.01-1.3,4.58-2.82,9.31-5.25,14.61-6.34,5.25-1.08,7.75.38,9.13,5.58,1.87,7.04,1.03,14.14.11,21.23-.2,1.55-1.41,2.3-2.38,3.21-18.06,17.05-35.28,34.9-51.55,53.67-10.06,11.61-19.81,23.46-26.43,37.49-2.11,4.48-3.83,9.1-3.84,14.15,0,7.65,5.09,12.25,12.71,11.51,4.71-.46,9.07-2.04,13.19-4.28,14.33-7.81,25.21-19.32,33.95-32.8,15.01-23.14,24.04-48.72,29.52-75.62.47-2.3,1.35-3.99,3.08-5.51,11.31-9.98,22.56-20.02,33.83-30.04,1.93-1.72,4.76-3.51,2.27-6.32-2.58-2.92-4.66,0-6.5,1.62-9.17,8.05-18.26,16.19-27.43,24.24-.92.81-1.56,2.28-3.32,2.04,0-3.08.08-6.08-.02-9.09-.1-3.02-.65-6-1.64-8.86-2.39-6.89-7.63-9.82-14.76-8.53-4.31.78-8.31,2.44-13.07,4.24Zm54.54,152.75c-.1-5.4.24-11.07-5.11-14.04-5.45-3.03-10.28.03-14.86,2.95-.12.07-.24.14-.35.22-19.34,15.86-33.02,35.41-38.07,60.18-3.06,15.02,4.4,26.02,18.79,29.2,1.74.38,3.52.73,5.28.77,2.67.06,6.59,1.62,6.95-2.65.37-4.32-3.66-3.46-6.37-3.66-12.58-.93-19.1-7.15-18.84-18.19.06-2.45.33-4.95.95-7.32,5.47-20.95,16.99-38.07,33.37-52.02,1.74-1.49,3.84-2.68,5.94-3.6,3.59-1.57,4.96-.74,5.78,3.07.59,2.72.41,5.45.01,8.18-2.11,14.53-6.52,28.54-9.87,42.79-9.98,42.36-20.89,84.54-26.27,127.84-1.25,10.08-1.79,20.27,1.26,30.17,2.69,8.71,9.13,10.99,16.95,6.24,4.14-2.51,7.58-5.86,10.84-9.4,9.39-10.24,17.24-21.64,24.73-33.28,26.53-41.26,49.3-84.64,71.76-128.18,7.52-14.59,14.86-29.27,22.29-43.9.99-1.96,1.78-4.07-.57-5.4-2.6-1.47-4.01.42-5.07,2.55-.43.86-.85,1.72-1.29,2.57-12.56,24.46-24.89,49.04-37.73,73.34-18.86,35.7-38.09,71.21-60.8,104.68-7.08,10.43-14.37,20.76-24.02,29.07-2.43,2.09-5.19,5.11-8.56,3.65-3.25-1.41-3.29-5.41-3.71-8.65-1.86-14.22.62-28.17,2.97-42.08,6.81-40.39,16.65-80.12,26.26-119.9,2.82-11.69,6.58-23.2,7.35-35.17Zm140.93,126.39c.29.07.57.13.86.2-.31,1.85-.61,3.71-.93,5.56-4.5,25.77-9.23,51.5-11.52,77.6-.31,3.56-.55,7.12.41,10.62.53,1.92,1.89,3.23,3.87,3.05,3.2-.28,4.35-2.99,5.55-5.46.7-1.43,1.16-3.55-.43-4.01-4.83-1.41-3.05-4.82-2.76-7.73,2.68-26.18,7.31-52.07,12.03-77.94,1.42-7.79,1.63-16.14,5.17-23.16,10.66-21.1,18.36-43.28,25.5-65.7,2.28-7.17,4.65-14.35,4.65-22,0-2.24-.17-4.46-2.72-5.45-2.78-1.08-4.43.64-5.87,2.55-3.17,4.18-5.25,8.96-7.16,13.8-9.25,23.51-15.04,48-20.58,72.57-.36,1.61-.31,3.43-1.92,4.64-3.73-7.99-9.12-9.7-16.71-5.52-2.3,1.27-4.47,2.77-6.12,4.78-3.81,4.61-8.26,8.62-11.63,13.67-4.8,7.2-10.66,13.58-17.21,19.27-2.69,2.34-5.48,4.56-8.75,6.06-4.29,1.96-6.2,1-6.79-3.59-.28-2.16-.28-4.38-.19-6.56.28-6.47,1.78-12.73,3.34-18.98.49-1.96.43-3.99-2.01-4.68-2.07-.58-3.54.47-4.04,2.47-2.3,9.18-4.51,18.42-3.56,27.98.93,9.34,7.16,12.86,15.68,8.95,6.2-2.84,11.21-7.33,15.9-12.18,1.63-1.69,3.13-3.5,5.42-6.08-.25,5.96-.78,10.5.76,14.89,1.98,5.64,6.88,7.54,12.12,4.68,4.34-2.37,7.29-6.18,10.05-10.12,3.27-4.68,6.4-9.46,9.6-14.2Zm-56.79-276.36c.72,1.41.27,2.59.1,3.72-1.2,7.71-2.61,15.4-3.63,23.13-.37,2.77-1.46,4.81-3.35,6.76-7.81,8.11-14.82,16.9-21.1,26.24-17.21,25.62-29.4,53.12-31.38,84.4-.48,7.57-.22,15.12,2.91,22.2,3.35,7.58,9.62,8.85,15.8,3.38,3.01-2.67,5.25-5.95,7.26-9.39,3.67-6.27,6.58-12.91,9.1-19.72,12.45-33.53,19.04-68.5,25.33-103.53.44-2.44,1.3-4.28,3.09-5.99,11.52-11.03,23.98-20.86,37.22-29.72,2.39-1.6,4.8-3.18,7.14-4.84,1.66-1.18,2.33-2.84,1.07-4.61-1.13-1.59-2.77-1.56-4.39-.59-.82.49-1.61,1.04-2.41,1.56-12.49,8.21-24.56,16.98-35.79,26.87-.66.58-1.21,1.75-2.33,1.29-1.47-.61-.64-1.86-.5-2.85,1.51-10.58,3.03-21.15,4.6-31.72.31-2.12.72-4.28-1.89-5.15-2.7-.9-3.48,1.42-4.58,3.09-3.46,5.26-6.8,10.6-10.39,15.78-2.1,3.03-4.39,5.98-6.93,8.64-2.92,3.07-4.95,2.44-6-1.59-.88-3.36-.86-6.76-.42-10.2.63-4.92,2.1-9.6,3.73-14.26.64-1.84.52-3.63-1.65-4.41-1.64-.59-3.12.04-3.75,1.64-3.66,9.27-6.41,18.76-3.84,28.79,2.33,9.11,9.44,11.03,16.28,4.62,1.19-1.12,2.23-2.42,3.23-3.72,2.49-3.21,4.92-6.47,7.48-9.85ZM65.22,145.6c.46,1.26.7,1.61.7,1.97.02,2.29.55,4.28,3.34,4.13,2.49-.13,2.93-2.11,2.99-4.16.09-3.29.3-6.58.19-9.86-.08-2.59-.24-5.41-3.56-6.18-3.41-.79-4.56,1.95-5.8,4.14-3.92,6.94-6.52,14.46-8.97,22-19.31,59.35-35.23,119.65-50.14,180.23-1.86,7.56-4.15,15.11-3.96,23,.24,10.14,5.93,14.78,15.8,13.11,8.36-1.41,15.84-5.17,23.18-9.14,14.08-7.6,27.94-15.63,42.14-23.01,12.01-6.25,24.23-12.25,38.16-13.01,2.22-.12,4.31-.46,4.16-3.31-.15-2.86-2.32-2.93-4.5-2.86-8.06.25-15.61,2.62-23.03,5.54-18.92,7.45-36.06,18.34-53.87,27.94-8.18,4.41-16.3,9.02-25.38,11.41-7.54,1.99-10.36-.24-10.29-7.91.02-1.77.15-3.57.44-5.32,1.96-11.48,4.95-22.73,7.82-33.99,13.68-53.69,27.71-107.27,45.19-159.88,1.57-4.74,3.39-9.39,5.36-14.82Zm347.76,412.07c-1.02-8.04,4.34-23.32,10.39-30.6,5.36-6.46,8.57-6.79,15-1.45,1.56,1.29,3.1,1.9,4.72.4,1.63-1.5,1.21-3.12-.04-4.74-5.03-6.5-13.5-7.62-20.02-2.58-2.3,1.77-4.25,3.9-5.86,6.29-5.68,8.41-9.14,17.72-10.66,27.72-.34,2.26-.31,4.7.14,6.94.93,4.56,4.76,6.1,8.75,3.74,2.02-1.2,3.65-2.87,5.14-4.68,4.23-5.12,8.47-10.23,13.01-15.7.31,2.09.55,3.71.78,5.32.66,4.76,1.63,9.44,3.46,13.9,4.42,10.79,12.47,12.75,21.27,5.17,1.45-1.25,2.83-2.61,4.07-4.06,6.91-8.07,11.97-17.3,16.62-26.78.94-1.91.82-3.59-1.06-4.58-1.89-.99-3.44-.14-4.4,1.71-1.33,2.54-2.57,5.13-3.97,7.64-4.15,7.42-8.36,14.81-14.63,20.71-5.92,5.57-9.44,4.7-12.28-2.96-2.84-7.67-3.33-15.76-4.01-23.81-.15-1.74.16-3.7-2.05-4.46-2.35-.8-3.52.81-4.7,2.37-4.14,5.45-8.2,10.96-12.43,16.34-2.15,2.73-4.59,5.22-7.21,8.16Zm-127.86-369.83c.12,23.13,18.04,41.17,40.73,41.04,21.94-.13,40.22-18.53,40.18-40.45-.04-22.82-18.35-41.21-40.86-41.04-22.12.17-40.17,18.41-40.06,40.45Zm-79.2,1.97c21.12,0,42.24,0,63.36,0,.96,0,1.92-.02,2.88-.02,1.26,0,1.62-.71,1.57-1.86-.05-1.06-.62-1.43-1.56-1.45-.96-.02-1.92-.02-2.88-.02-42.24,0-84.48,0-126.72,0-1.1,0-2.2,0-3.29.07-1.14.08-1.13.96-1.13,1.81,0,.77.27,1.36,1.12,1.41,1.09.06,2.19.07,3.29.07,21.12,0,42.24,0,63.36,0Zm121.33-121.38c0-6.03,0-12.06,0-18.09,0-15.76.01-31.51-.03-47.27,0-.98.6-2.31-.77-2.87-.58-.24-1.61-.32-1.96.01-.97.95-.49,2.33-.49,3.52-.02,42.88-.03,85.77.04,128.65,0,1.25-1.35,3.75,1.67,3.58,2.85-.16,1.45-2.55,1.46-3.83.1-21.24.07-42.47.07-63.71Zm111.71,7.34c-.43-.45-.82-1.06-1.37-1.41-.96-.61-1.47.3-2.01.84-3.2,3.19-6.39,6.4-9.57,9.61-20.87,20.98-41.74,41.95-62.56,62.97-.82.83-3.14,1.54-1.23,3.44,1.92,1.9,2.61-.43,3.43-1.25,23.92-23.93,47.79-47.92,71.64-71.92.63-.63,1.58-1.08,1.67-2.28Zm-148.88,74.6c-1.11-1.23-1.88-2.15-2.73-3-20.79-20.9-41.6-41.79-62.4-62.68-3.19-3.21-6.38-6.41-9.57-9.63-.7-.71-1.31-1.37-2.37-.39-1.1,1.01-.96,1.8.1,2.67.42.35.78.77,1.17,1.16,19.53,19.64,39.06,39.28,58.59,58.92,4.45,4.47,8.9,8.94,13.36,13.4.53.53.97,1.48,1.99.88.58-.34,1.11-.79,1.86-1.33Zm154.95,39.42c20.98,0,41.96,0,62.93,0,1.1,0,2.19,0,3.29-.03.92-.02,1.53-.4,1.6-1.43.07-1.16-.39-1.82-1.6-1.84-.96-.02-1.92-.03-2.88-.03-42.23,0-84.46,0-126.69,0-.96,0-1.92.02-2.88.02-1.13,0-1.3.74-1.31,1.64,0,.9.17,1.64,1.31,1.64.96,0,1.92.02,2.88.02,21.11,0,42.23,0,63.34,0Zm4.44-53c-.14-2.39-1.42-2.15-2.91-1.52-11.2,4.75-22.39,9.51-33.6,14.23-1.1.46-1.99.78-1.29,2.32.63,1.38,1.29,1.31,2.52.79,11.19-4.78,22.4-9.48,33.61-14.22.79-.34,1.92-.43,1.67-1.6Zm-72.01-71.84c.13-1.1-.62-1.35-1.46-1.62-1.72-.55-1.72.9-2.1,1.8-4.51,10.99-9.02,21.98-13.45,33-.41,1.03-1.82,2.45.55,3.25,1.98.67,2-.96,2.4-1.92,4.47-10.86,8.87-21.74,13.3-32.62.26-.63.51-1.27.76-1.89Zm-87.36,34.04c.09.19-.2-.43-.46-1.06-4.42-10.59-8.8-21.2-13.3-31.76-.46-1.07-.24-3.52-2.77-2.27-2.38,1.18-.47,2.57-.03,3.67,3.18,7.85,6.48,15.65,9.74,23.47,1.31,3.15,2.57,6.33,3.93,9.46.34.8.67,1.88,2.05,1.06.75-.44,1.55-.64.84-2.59Zm-51.06,53.65c.57-1.86-.44-1.98-1.16-2.27-11.33-4.65-22.68-9.28-34.01-13.95-1.14-.47-1.99-.84-2.53.74-.41,1.23.06,1.66,1.13,2.1,11.46,4.71,22.91,9.43,34.32,14.27,1.92.81,2.04-.42,2.24-.89Zm158.63,3.29c-.24.11-.49.23-.73.34-7.52,3.18-15.05,6.35-22.57,9.53-.93.39-1.52.85-1.03,2.13.64,1.65,1.68,1.07,2.64.68,4.03-1.64,8.04-3.34,12.06-5.02,3.27-1.36,6.55-2.68,9.79-4.11.74-.32,2.02-.51,1.32-1.96-.34-.7-.32-1.69-1.48-1.6Zm-102.14-41.97c-1.3.45-2.42.79-1.66,2.57,3.17,7.38,6.29,14.78,9.33,22.21.52,1.27,1.06,1.75,2.4,1.24,1.67-.64.91-1.63.49-2.62-3.04-7.28-6.08-14.57-9.1-21.86-.31-.76-.47-1.6-1.46-1.53Zm61.45,1.3c-.08-.83-.92-1.11-1.62-1.37-1.7-.63-1.69.94-2.05,1.81-2.91,7.03-5.78,14.07-8.6,21.14-.43,1.08-1.73,2.44.6,3.22,2.01.66,1.99-1.01,2.37-1.94,2.91-7.03,5.72-14.09,8.57-21.15.2-.5.43-1,.73-1.7Zm-79.15,52.33c-.1-.86-.72-1.08-1.38-1.35-7.45-3.02-14.9-6.04-22.32-9.14-1.06-.44-1.76-.55-2.28.62-.46,1.05-.35,1.71.87,2.2,7.58,3.06,15.15,6.16,22.68,9.33,1.95.82,1.92-.72,2.42-1.67Zm87.49,480.44c-.63,3.04-1.91,3.6-4.79,3.4-5.34-.37-5.36.04-5.36,5.55,0,1.5-.03,3,.01,4.5.02.73-.28,1.86.98,1.76,1.21-.1.76-1.22.79-1.93.07-1.63-.04-3.28.07-4.91.23-3.39,3.11-3.73,5.39-3.82,2.34-.09,2.17,2.18,2.12,3.96-.03,1.22-.12,2.48.11,3.67.49,2.63,2.05,3.32,4.75,2.27-4.19-2.63-4.23-7.93.56-11.03-3.41.91-3.39-1.62-4.64-3.43Zm-67.89,11.35c-2.83,1.03-4.2,2.98-6.51,2.39-1.48-.37-2.77-1.2-2.83-2.58-.09-1.98,1.75-1.09,2.77-1.2,1.49-.15,3.01-.13,4.5-.02,2.62.19,2.66-1.16,1.91-3.02-1.11-2.76-3.25-4.11-6.12-3.76-3.27.39-5.14,2.5-5.32,5.78-.17,3.03,1.13,5.47,4.16,6.28,2.93.79,5.59.2,7.44-3.88Zm20.2-2.04c0-5.61-.76-6.36-6.33-6.24-3.15.07-5.98,2.92-6.06,6.11-.11,4.37,2.73,5.92,11,5.98q1.38.01,1.38-5.85Zm33.74.28c0-5.74-.97-6.68-6.37-6.51-3.16.1-5.96,2.96-6.01,6.15-.08,4.43,2.98,6.43,11.04,5.76,2.97-.25.45-3.86,1.35-5.4Zm107.41,1.93c-2.51.6-3.83,2.72-6.03,2.26-1.65-.34-3.12-1.1-3.09-2.72.04-1.77,1.86-.99,2.93-1.11,1.22-.13,2.47-.12,3.69-.01,3.42.31,3.36-1.48,2.18-3.7-1.38-2.6-3.71-3.67-6.55-2.95-2.99.77-4.57,2.86-4.56,6.01.01,3.11,1.44,5.33,4.52,5.99,2.83.61,5.32,0,6.91-3.79Zm-75.66.08c-2.73.66-4.03,2.77-6.34,2.16-1.48-.39-2.77-1.13-2.84-2.54-.1-2.02,1.75-1.11,2.78-1.24,1.21-.16,2.46-.02,3.69-.04,3.14-.07,3.83-1.24,2.22-3.9-1.43-2.36-3.62-3.39-6.29-2.76-2.99.71-4.64,2.74-4.72,5.89-.07,2.93,1.2,5.2,3.98,6.02,2.91.85,5.65.39,7.51-3.58Zm55.76-1.94q0-6.7-6.37-6.57c-3.18.07-5.97,2.88-6.05,6.1-.1,4.36,2.61,6.19,10.99,5.79,3.03-.14.52-3.81,1.43-5.33Zm-29.36.21q0-6.63-6.18-6.79c-3.39-.09-6.22,2.76-6.21,6.27.01,4.72,3.18,6.67,11.15,5.69,2.86-.35.34-3.71,1.24-5.17Zm-132.64,5.57c.34,0,.69,0,1.03,0,1.82-4.91,3.66-9.81,5.44-14.74.28-.78,1.26-1.91-.08-2.43-1.37-.53-1.42,1.02-1.71,1.77-1.33,3.43-2.53,6.9-4.12,11.3-1.69-4.6-3-8.17-4.29-11.74-.3-.83-.62-1.57-1.67-1.37-.75.15-.63.72-.43,1.26,1.94,5.31,3.88,10.63,5.82,15.94Zm53.11-8.36c-1.25-3.23-2.95-4.29-5.4-3.91-1.71.27-3.21,1.17-3.37,3.09-.25,2.81,1.99,3.2,3.99,3.75.26.07.52.18.78.25,1.11.32,2.3.85,1.92,2.16-.41,1.41-1.84,1.25-3.11,1.33-1.58.1-1.88-2.65-4-1.45,1.13,3.08,3.52,3.52,6.25,3.02,1.58-.29,2.72-1.25,2.87-3.03.13-1.59-.75-2.47-2.03-3.25-1.58-.97-5.62-.06-4.2-3.27,1.22-2.77,3.55.5,6.31,1.31Zm92.4,8.25c.42-.03.84-.05,1.26-.08,0-2.23.09-4.47-.02-6.7-.17-3.56-2.3-5.79-5.3-5.39-2.91.38-6.68.15-5.29,5.12.14.51-.08,1.11.04,1.63.4,1.75-.82,5.12.74,5,2.38-.19.62-3.31,1.15-5.08.07-.25.01-.54.02-.82.05-2.36,1.05-4.14,3.56-4.12,2.6.02,3.24,1.98,3.35,4.27.1,2.06-.54,4.23.5,6.17Zm-28.16-8.38c-.23-3.06-2.06-3.78-4.12-3.81-2.06-.03-3.87.94-4.12,3.19-.25,2.19,1.36,3.06,3.28,3.45.67.14,1.32.37,1.95.61.96.36,1.78.95,1.45,2.09-.31,1.06-1.32,1.11-2.3,1.32-1.91.42-2.47-2.04-4.69-1.82.89,3.36,3.21,3.7,5.86,3.41,1.63-.18,2.82-1.09,3.18-2.73.38-1.74-.62-2.75-2.03-3.61-1.57-.96-5.58-.02-4.15-3.27,1.19-2.7,3.52.42,5.69,1.18Zm75.83.53c-.52-3.75-2.39-4.49-4.67-4.32-1.88.14-3.52,1.12-3.7,3.2-.19,2.2,1.41,3.04,3.32,3.43.67.14,1.32.36,1.95.61.94.37,1.77.94,1.41,2.11-.34,1.07-1.35,1.08-2.31,1.3-1.91.43-2.45-2.09-4.24-1.85.78,2.94,1.8,3.7,4.65,3.53,1.94-.11,3.6-.82,3.95-2.86.45-2.66-1.44-3.54-3.62-4.01-.4-.09-.78-.26-1.16-.38-1.08-.35-2.29-.79-1.71-2.2.57-1.37,1.87-1.51,3.1-.85.8.42,1.46,1.09,3.03,2.31Zm-141.85-137.76c2.87-.2,5.19-1.48,5.48-4.71.18-2.01-1.21-3.26-3.34-3.25-2.44,0-6.08,3.13-6.06,5.29.03,2.47,1.93,2.57,3.92,2.68Zm-25.82,136.87h.01c0-2.47,0-4.93,0-7.4,0-.74-.25-1.39-1.15-1.26-.65.09-.8.67-.8,1.25,0,4.93,0,9.87.01,14.8,0,.74.22,1.38,1.15,1.25.68-.1.77-.68.78-1.23.01-2.47,0-4.93,0-7.4Zm141.48-8.69c-.25.01-.5.02-.75.04v17.37c.25-.02.5-.04.75-.05v-17.35Z"/>
      <path class="cls-2" d="m192.46,266.45c4.76-1.8,8.76-3.47,13.07-4.24,7.13-1.28,12.38,1.64,14.76,8.53.99,2.86,1.54,5.84,1.64,8.86.1,3,.02,6.01.02,9.09,1.76.24,2.4-1.23,3.32-2.04,9.17-8.05,18.26-16.19,27.43-24.24,1.85-1.62,3.92-4.54,6.5-1.62,2.49,2.81-.34,4.61-2.27,6.32-11.27,10.02-22.52,20.06-33.83,30.04-1.73,1.52-2.61,3.22-3.08,5.51-5.48,26.9-14.52,52.48-29.52,75.62-8.74,13.48-19.62,24.99-33.95,32.8-4.12,2.25-8.48,3.83-13.19,4.28-7.62.74-12.72-3.86-12.71-11.51,0-5.05,1.72-9.67,3.84-14.15,6.62-14.03,16.37-25.88,26.43-37.49,16.27-18.77,33.49-36.62,51.55-53.67.97-.92,2.18-1.67,2.38-3.21.93-7.08,1.76-14.19-.11-21.23-1.38-5.21-3.88-6.67-9.13-5.58-5.3,1.09-10.03,3.52-14.61,6.34-2.12,1.31-4.4,3.59-7.01,1.3-2.58-2.28-.6-4.92.31-7.18,3.78-9.37,8.65-18.32,10.78-28.32.59-2.76,2.09-6.68-.14-7.97-2.26-1.31-5.03,1.89-7.14,3.77-6.13,5.45-10.6,12.15-14.07,19.53-7.14,15.2-17.08,28.43-28.63,40.5-2.65,2.77-5.65,5.19-9.28,6.68-5.53,2.27-9.38.39-10.98-5.35-1.24-4.46-.78-8.97-.48-13.49.06-.87.78-2.05-.49-2.49-1.13-.39-1.54.85-2.11,1.51-2.32,2.7-4.56,5.5-7.52,7.54-5.39,3.7-10.69,2.13-12.68-4.11-2.96-9.29-.09-17.8,4.3-25.94.79-1.47,2.34-2.02,3.89-1.1,1.58.93,2.25,2.35,1.37,4.18-1.61,3.33-3.12,6.68-3.89,10.34-.59,2.86-.66,5.72-.36,8.59.14,1.35.39,2.96,1.82,3.45,1.28.44,2.24-.78,3.13-1.6,4.47-4.12,7.81-9.15,11.44-13.97,1.7-2.26,3.15-5.93,6.93-4.3,3.66,1.58,2.32,5.26,1.92,8.06-.94,6.52-2.17,12.99-1.55,19.61.41,4.37,1.42,4.84,5.04,2.32,5-3.48,9.11-7.95,12.77-12.73,7.68-10.03,15.72-19.8,20.57-31.73,2.69-6.63,7.06-12.35,11.93-17.61,3.1-3.34,6.5-6.36,10.89-7.86,5.66-1.94,9.89.84,10.42,6.8.48,5.45-1.06,10.62-2.85,15.65-2.01,5.65-4.36,11.18-6.86,17.51Zm19.9,41.05c-1.28,1.18-1.97,1.79-2.64,2.44-16.07,15.52-31.41,31.72-46.01,48.63-8.24,9.54-16.01,19.44-21.94,30.64-2.17,4.11-4.2,8.32-4.68,13.04-.58,5.72,1.34,7.59,7.07,6.77,3.56-.51,6.82-1.95,9.95-3.67,9.39-5.16,17-12.38,23.83-20.5,14.82-17.63,23.01-38.6,30.03-60.13,1.75-5.37,3.52-10.78,4.38-17.22Z"/>
      <path class="cls-2" d="m247,419.2c-.77,11.97-4.53,23.48-7.35,35.17-9.61,39.78-19.45,79.51-26.26,119.9-2.34,13.9-4.82,27.86-2.97,42.08.42,3.24.46,7.24,3.71,8.65,3.37,1.46,6.13-1.56,8.56-3.65,9.65-8.31,16.94-18.64,24.02-29.07,22.71-33.47,41.94-68.98,60.8-104.68,12.84-24.31,25.17-48.89,37.73-73.34.44-.85.86-1.71,1.29-2.57,1.06-2.12,2.47-4.02,5.07-2.55,2.35,1.33,1.56,3.45.57,5.4-7.43,14.63-14.77,29.31-22.29,43.9-22.45,43.55-45.23,86.92-71.76,128.18-7.49,11.64-15.34,23.04-24.73,33.28-3.25,3.55-6.7,6.89-10.84,9.4-7.83,4.75-14.27,2.48-16.95-6.24-3.05-9.91-2.51-20.09-1.26-30.17,5.38-43.3,16.28-85.48,26.27-127.84,3.36-14.25,7.76-28.25,9.87-42.79.4-2.73.58-5.46-.01-8.18-.82-3.81-2.19-4.64-5.78-3.07-2.11.92-4.2,2.11-5.94,3.6-16.37,13.96-27.89,31.08-33.37,52.02-.62,2.36-.89,4.87-.95,7.32-.26,11.05,6.26,17.26,18.84,18.19,2.71.2,6.74-.66,6.37,3.66-.36,4.26-4.29,2.7-6.95,2.65-1.77-.04-3.55-.38-5.28-.77-14.4-3.18-21.86-14.18-18.79-29.2,5.05-24.77,18.73-44.32,38.07-60.18.11-.09.23-.15.35-.22,4.59-2.91,9.41-5.98,14.86-2.95,5.35,2.97,5.01,8.65,5.11,14.04Z"/>
      <path class="cls-2" d="m387.93,545.6c-3.19,4.74-6.32,9.52-9.6,14.2-2.76,3.94-5.7,7.75-10.05,10.12-5.24,2.86-10.15.96-12.12-4.68-1.54-4.39-1.01-8.93-.76-14.89-2.29,2.58-3.79,4.39-5.42,6.08-4.69,4.85-9.7,9.34-15.9,12.18-8.52,3.91-14.75.39-15.68-8.95-.95-9.56,1.27-18.8,3.56-27.98.5-2,1.97-3.05,4.04-2.47,2.44.68,2.5,2.72,2.01,4.68-1.56,6.25-3.06,12.51-3.34,18.98-.09,2.18-.09,4.4.19,6.56.59,4.59,2.5,5.55,6.79,3.59,3.27-1.49,6.06-3.72,8.75-6.06,6.55-5.7,12.41-12.08,17.21-19.27,3.37-5.05,7.82-9.06,11.63-13.67,1.66-2.01,3.82-3.51,6.12-4.78,7.59-4.18,12.98-2.47,16.71,5.52,1.62-1.21,1.56-3.03,1.92-4.64,5.54-24.57,11.32-49.06,20.58-72.57,1.91-4.84,3.99-9.62,7.16-13.8,1.45-1.91,3.09-3.63,5.87-2.55,2.55.99,2.73,3.2,2.72,5.45,0,7.66-2.37,14.84-4.65,22-7.14,22.42-14.84,44.6-25.5,65.7-3.55,7.03-3.75,15.37-5.17,23.16-4.72,25.87-9.35,51.75-12.03,77.94-.3,2.91-2.07,6.32,2.76,7.73,1.59.46,1.13,2.58.43,4.01-1.21,2.47-2.36,5.18-5.55,5.46-1.97.17-3.34-1.14-3.87-3.05-.96-3.5-.72-7.06-.41-10.62,2.3-26.1,7.02-51.83,11.52-77.6.32-1.85.62-3.7.93-5.56-.29-.07-.57-.13-.86-.2Zm-26.69,11.71c.29,2.54-.44,6.09,1.95,7.15,2.86,1.27,4.82-1.94,6.48-3.94,6.47-7.81,11.76-16.45,16.99-25.12.48-.8,1.21-1.57.14-2.47-1.49-1.27-.99-3.01-1.03-4.61-.15-4.87-2.23-6.19-6.58-3.97-1.68.86-3.3,2-4.64,3.32-8.21,8.16-12.39,18.17-13.32,29.64Zm59.81-107.42c-5.26,11.63-8.89,23.79-11.7,36.22,4.64-11.83,9.01-23.75,11.7-36.22Z"/>
      <path class="cls-2" d="m331.14,269.24c-2.56,3.37-4.99,6.63-7.48,9.85-1,1.3-2.04,2.6-3.23,3.72-6.84,6.41-13.95,4.49-16.28-4.62-2.57-10.03.18-19.52,3.84-28.79.63-1.6,2.1-2.23,3.75-1.64,2.16.78,2.29,2.57,1.65,4.41-1.63,4.66-3.1,9.34-3.73,14.26-.44,3.44-.46,6.84.42,10.2,1.05,4.02,3.08,4.66,6,1.59,2.54-2.67,4.83-5.61,6.93-8.64,3.59-5.17,6.93-10.51,10.39-15.78,1.1-1.67,1.88-3.99,4.58-3.09,2.61.87,2.21,3.03,1.89,5.15-1.57,10.57-3.08,21.14-4.6,31.72-.14.99-.97,2.24.5,2.85,1.12.46,1.67-.71,2.33-1.29,11.23-9.89,23.3-18.67,35.79-26.87.8-.53,1.59-1.07,2.41-1.56,1.61-.97,3.26-1,4.39.59,1.26,1.77.59,3.43-1.07,4.61-2.34,1.67-4.75,3.24-7.14,4.84-13.24,8.86-25.7,18.69-37.22,29.72-1.78,1.7-2.65,3.55-3.09,5.99-6.29,35.03-12.87,70-25.33,103.53-2.53,6.8-5.43,13.44-9.1,19.72-2.01,3.44-4.25,6.72-7.26,9.39-6.18,5.48-12.45,4.21-15.8-3.38-3.12-7.08-3.39-14.63-2.91-22.2,1.98-31.27,14.17-58.78,31.38-84.4,6.28-9.35,13.28-18.13,21.1-26.24,1.88-1.96,2.98-3.99,3.35-6.76,1.03-7.73,2.43-15.42,3.63-23.13.18-1.13.62-2.32-.1-3.72Zm-7.07,43.59c-.33.2-.75.34-.99.62-20.18,23.83-35.65,50.18-42.42,80.99-2.56,11.67-4.12,23.52-1.36,35.44.55,2.37.98,5.4,3.6,6.02,2.69.64,4.27-2.04,5.77-3.92,5.28-6.61,8.55-14.3,11.51-22.12,9.89-26.06,16.15-53.1,21.37-80.4,1.06-5.52,3.05-10.95,2.45-16.73.2,0,.4,0,.6,0-.06-.17-.11-.35-.17-.52-.12.2-.24.41-.36.61Zm11.4-21.94c-.1-.11-.19-.2-.27-.29-.09.18-.21.35-.25.54-.02.07.15.18.24.27.1-.17.19-.35.28-.51Z"/>
      <path class="cls-2" d="m65.22,145.6c-1.97,5.43-3.79,10.09-5.36,14.82-17.49,52.61-31.52,106.2-45.19,159.88-2.87,11.27-5.87,22.51-7.82,33.99-.3,1.75-.43,3.54-.44,5.32-.07,7.67,2.75,9.9,10.29,7.91,9.08-2.39,17.2-7,25.38-11.41,17.81-9.59,34.95-20.48,53.87-27.94,7.42-2.92,14.97-5.29,23.03-5.54,2.18-.07,4.35,0,4.5,2.86.15,2.85-1.94,3.19-4.16,3.31-13.93.76-26.15,6.76-38.16,13.01-14.2,7.38-28.06,15.41-42.14,23.01-7.34,3.96-14.82,7.73-23.18,9.14-9.87,1.67-15.56-2.97-15.8-13.11-.19-7.89,2.1-15.44,3.96-23,14.91-60.58,30.83-120.87,50.14-180.23,2.45-7.54,5.04-15.06,8.97-22,1.24-2.19,2.38-4.93,5.8-4.14,3.31.77,3.48,3.58,3.56,6.18.1,3.28-.1,6.57-.19,9.86-.06,2.05-.49,4.02-2.99,4.16-2.79.15-3.32-1.84-3.34-4.13,0-.36-.24-.71-.7-1.97Z"/>
      <path class="cls-2" d="m412.98,557.67c2.62-2.94,5.07-5.44,7.21-8.16,4.23-5.38,8.3-10.89,12.43-16.34,1.18-1.56,2.35-3.17,4.7-2.37,2.21.76,1.9,2.71,2.05,4.46.68,8.05,1.17,16.14,4.01,23.81,2.83,7.67,6.36,8.53,12.28,2.96,6.27-5.9,10.48-13.29,14.63-20.71,1.4-2.5,2.64-5.09,3.97-7.64.97-1.85,2.52-2.7,4.4-1.71,1.88.99,2,2.67,1.06,4.58-4.65,9.48-9.71,18.7-16.62,26.78-1.24,1.45-2.62,2.81-4.07,4.06-8.8,7.58-16.85,5.62-21.27-5.17-1.83-4.46-2.8-9.14-3.46-13.9-.22-1.61-.47-3.23-.78-5.32-4.53,5.47-8.78,10.58-13.01,15.7-1.49,1.81-3.12,3.48-5.14,4.68-3.98,2.37-7.82.82-8.75-3.74-.46-2.24-.48-4.68-.14-6.94,1.52-10,4.99-19.3,10.66-27.72,1.61-2.39,3.57-4.52,5.86-6.29,6.53-5.03,14.99-3.92,20.02,2.58,1.25,1.61,1.67,3.23.04,4.74-1.63,1.5-3.17.89-4.72-.4-6.43-5.34-9.63-5.01-15,1.45-6.05,7.29-11.41,22.56-10.39,30.6Z"/>
      <path class="cls-2" d="m285.12,187.84c-.12-22.04,17.94-40.28,40.06-40.45,22.5-.18,40.82,18.22,40.86,41.04.04,21.92-18.24,40.32-40.18,40.45-22.7.14-40.61-17.91-40.73-41.04Zm77.64.47c-.07-20.98-16.76-37.73-37.48-37.61-20.26.12-36.94,16.75-36.94,36.83,0,21.4,16.49,38.16,37.42,38.02,20.38-.14,37.07-16.93,37-37.24Z"/>
      <path class="cls-2" d="m205.92,189.82c-21.12,0-42.24,0-63.36,0-1.1,0-2.19,0-3.29-.07-.84-.05-1.11-.63-1.12-1.41,0-.85-.01-1.73,1.13-1.81,1.09-.08,2.19-.07,3.29-.07,42.24,0,84.48,0,126.72,0,.96,0,1.92,0,2.88.02.94.02,1.51.4,1.56,1.45.05,1.15-.32,1.86-1.57,1.86-.96,0-1.92.02-2.88.02-21.12,0-42.24,0-63.36,0Z"/>
      <path class="cls-2" d="m327.25,68.44c0,21.24.03,42.47-.07,63.71,0,1.27,1.39,3.67-1.46,3.83-3.02.17-1.67-2.33-1.67-3.58-.08-42.88-.07-85.77-.04-128.65,0-1.19-.49-2.57.49-3.52.35-.34,1.38-.25,1.96-.01,1.37.56.77,1.89.77,2.87.04,15.76.03,31.51.03,47.27,0,6.03,0,12.06,0,18.09Z"/>
      <path class="cls-2" d="m438.96,75.78c-.09,1.21-1.04,1.65-1.67,2.28-23.86,24-47.72,47.98-71.64,71.92-.82.82-1.51,3.15-3.43,1.25-1.92-1.9.4-2.61,1.23-3.44,20.82-21.03,41.7-42,62.56-62.97,3.19-3.21,6.37-6.42,9.57-9.61.54-.54,1.05-1.45,2.01-.84.55.35.94.96,1.37,1.41Z"/>
      <path class="cls-2" d="m290.08,150.38c-.75.54-1.28.99-1.86,1.33-1.02.6-1.46-.35-1.99-.88-4.47-4.45-8.92-8.92-13.36-13.4-19.53-19.64-39.06-39.28-58.59-58.92-.39-.39-.75-.81-1.17-1.16-1.06-.87-1.2-1.65-.1-2.67,1.06-.98,1.67-.32,2.37.39,3.19,3.21,6.38,6.42,9.57,9.63,20.8,20.89,41.6,41.78,62.4,62.68.84.85,1.61,1.77,2.73,3Z"/>
      <path class="cls-2" d="m445.03,189.8c-21.11,0-42.23,0-63.34,0-.96,0-1.92-.02-2.88-.02-1.13,0-1.31-.74-1.31-1.64,0-.9.17-1.64,1.31-1.64.96,0,1.92-.02,2.88-.02,42.23,0,84.46,0,126.69,0,.96,0,1.92,0,2.88.03,1.21.02,1.67.68,1.6,1.84-.06,1.03-.67,1.41-1.6,1.43-1.1.03-2.19.03-3.29.03-20.98,0-41.96,0-62.93,0Z"/>
      <path class="cls-2" d="m449.47,136.8c.26,1.17-.87,1.26-1.67,1.6-11.2,4.74-22.42,9.44-33.61,14.22-1.23.53-1.9.6-2.52-.79-.7-1.54.19-1.86,1.29-2.32,11.21-4.73,22.4-9.48,33.6-14.23,1.49-.63,2.77-.87,2.91,1.52Z"/>
      <path class="cls-2" d="m377.46,64.96c-.25.63-.5,1.26-.76,1.9-4.42,10.88-8.83,21.76-13.3,32.62-.4.96-.42,2.59-2.4,1.92-2.37-.8-.97-2.22-.55-3.25,4.43-11.02,8.94-22.01,13.45-33,.37-.91.37-2.35,2.1-1.8.83.27,1.59.51,1.46,1.61Z"/>
      <path class="cls-2" d="m290.09,99c.71,1.95-.09,2.15-.84,2.59-1.38.82-1.71-.27-2.05-1.06-1.35-3.13-2.61-6.31-3.93-9.46-3.26-7.82-6.56-15.62-9.74-23.47-.45-1.1-2.35-2.5.03-3.67,2.53-1.25,2.31,1.2,2.77,2.27,4.49,10.56,8.88,21.17,13.3,31.76.26.63.55,1.25.46,1.06Z"/>
      <path class="cls-2" d="m239.04,152.65c-.2.47-.32,1.7-2.24.89-11.41-4.83-22.86-9.55-34.32-14.27-1.07-.44-1.55-.87-1.13-2.1.53-1.58,1.38-1.21,2.53-.74,11.33,4.67,22.67,9.3,34.01,13.95.72.29,1.72.41,1.16,2.27Z"/>
      <path class="cls-2" d="m397.66,155.94c1.17-.08,1.14.9,1.48,1.6.7,1.45-.59,1.63-1.32,1.96-3.24,1.42-6.52,2.74-9.79,4.11-4.02,1.68-8.02,3.38-12.06,5.02-.96.39-2,.97-2.64-.68-.5-1.28.1-1.74,1.03-2.13,7.52-3.19,15.04-6.36,22.57-9.53.25-.1.49-.22.74-.34Z"/>
      <path class="cls-2" d="m295.53,113.98c.99-.08,1.15.77,1.46,1.53,3.02,7.29,6.06,14.58,9.1,21.86.42,1,1.18,1.98-.49,2.62-1.34.52-1.88.03-2.4-1.24-3.05-7.43-6.16-14.83-9.33-22.21-.76-1.78.36-2.12,1.66-2.57Z"/>
      <path class="cls-2" d="m356.98,115.28c-.3.71-.53,1.2-.73,1.7-2.85,7.05-5.66,14.12-8.57,21.15-.39.93-.37,2.61-2.37,1.94-2.33-.77-1.03-2.14-.6-3.22,2.82-7.07,5.69-14.11,8.6-21.14.36-.87.36-2.44,2.05-1.81.7.26,1.54.54,1.62,1.37Z"/>
      <path class="cls-2" d="m277.82,167.61c-.5.94-.47,2.49-2.42,1.67-7.54-3.17-15.1-6.27-22.68-9.33-1.22-.49-1.33-1.15-.87-2.2.52-1.17,1.22-1.07,2.28-.62,7.42,3.09,14.87,6.11,22.32,9.14.66.27,1.28.49,1.38,1.35Z"/>
      <path class="cls-2" d="m365.32,648.05c1.25,1.81,1.22,4.34,4.64,3.43-4.79,3.1-4.75,8.39-.56,11.03-2.71,1.05-4.26.36-4.75-2.27-.22-1.19-.14-2.45-.11-3.67.05-1.78.21-4.05-2.12-3.96-2.28.09-5.16.43-5.39,3.82-.11,1.63,0,3.28-.07,4.91-.03.71.42,1.84-.79,1.93-1.27.1-.96-1.03-.98-1.76-.05-1.5-.01-3-.01-4.5,0-5.52.03-5.92,5.36-5.55,2.88.2,4.16-.36,4.79-3.4Z"/>
      <path class="cls-2" d="m297.42,659.4c-1.85,4.07-4.51,4.66-7.44,3.88-3.03-.81-4.33-3.25-4.16-6.28.18-3.28,2.05-5.39,5.32-5.78,2.87-.34,5.02,1,6.12,3.76.75,1.86.71,3.21-1.91,3.02-1.5-.11-3.02-.13-4.5.02-1.02.1-2.86-.78-2.77,1.2.06,1.38,1.35,2.2,2.83,2.58,2.31.58,3.69-1.36,6.51-2.39Zm-9.47-3.12c1.47,0,2.68.09,3.87-.02,1.14-.11,2.51.59,3.35-.66.17-.25-.16-1.05-.48-1.4-1.1-1.18-2.48-1.69-4.09-1.15-1.22.41-2.16,1.13-2.65,3.23Z"/>
      <path class="cls-2" d="m317.63,657.36q0,5.86-1.38,5.85c-8.27-.06-11.12-1.61-11-5.98.08-3.19,2.91-6.04,6.06-6.11,5.56-.12,6.33.63,6.33,6.24Zm-1.74.24c-.12-2.82-1.54-4.58-4.2-4.66-2.68-.08-4.31,1.62-4.36,4.32-.04,2.65,1.3,4.45,4.12,4.51,2.79.06,4.12-1.63,4.43-4.17Z"/>
      <path class="cls-2" d="m351.37,657.64c-.9,1.54,1.62,5.15-1.35,5.4-8.05.67-11.12-1.32-11.04-5.76.06-3.19,2.85-6.06,6.01-6.15,5.41-.17,6.37.77,6.37,6.51Zm-1.73-.25c-.23-2.75-1.69-4.48-4.36-4.45-2.67.02-4.24,1.77-4.2,4.48.04,2.68,1.46,4.39,4.28,4.35,2.79-.04,4.05-1.78,4.28-4.38Z"/>
      <path class="cls-2" d="m458.78,659.57c-1.59,3.78-4.08,4.4-6.91,3.79-3.08-.66-4.51-2.88-4.52-5.99-.01-3.15,1.57-5.25,4.56-6.01,2.84-.73,5.17.35,6.55,2.95,1.18,2.22,1.24,4.01-2.18,3.7-1.22-.11-2.47-.12-3.69.01-1.07.11-2.89-.67-2.93,1.11-.03,1.61,1.44,2.38,3.09,2.72,2.2.45,3.52-1.66,6.03-2.26Zm-5.5-3.23c1.15-.45,3.24.8,3.35-1.01.12-1.81-1.84-2.49-3.54-2.44-1.53.05-3.33.78-3.16,2.41.19,1.88,2.21.58,3.34,1.04Z"/>
      <path class="cls-2" d="m383.12,659.65c-1.86,3.97-4.61,4.43-7.51,3.58-2.78-.82-4.06-3.09-3.98-6.02.08-3.15,1.72-5.19,4.72-5.89,2.67-.63,4.86.39,6.29,2.76,1.61,2.66.92,3.83-2.22,3.9-1.23.03-2.48-.11-3.69.04-1.03.13-2.88-.77-2.78,1.24.07,1.41,1.37,2.15,2.84,2.54,2.3.61,3.61-1.5,6.34-2.16Zm-5.44-3.2c.78-1.09,3.2,1.17,3.22-1.38,0-1.53-1.83-2.21-3.4-2.19-1.57.02-3.34.74-3.29,2.32.07,2.02,2.13.66,3.47,1.25Z"/>
      <path class="cls-2" d="m438.88,657.71c-.9,1.52,1.6,5.18-1.43,5.33-8.38.4-11.1-1.43-10.99-5.79.08-3.22,2.87-6.04,6.05-6.1q6.37-.13,6.37,6.57Zm-1.85-.39c-.22-2.73-1.69-4.45-4.37-4.37-2.64.08-4.22,1.77-4.14,4.53.07,2.73,1.57,4.33,4.33,4.3,2.82-.03,4.04-1.81,4.19-4.45Z"/>
      <path class="cls-2" d="m409.51,657.92c-.89,1.46,1.63,4.81-1.24,5.17-7.98.98-11.14-.97-11.15-5.69,0-3.5,2.81-6.35,6.21-6.27q6.18.16,6.18,6.79Zm-6.22,3.91c2.88-.2,4.33-1.9,4.33-4.5,0-2.64-1.63-4.45-4.33-4.41-2.66.04-4.28,1.77-4.26,4.48.03,2.69,1.6,4.19,4.25,4.43Z"/>
      <path class="cls-2" d="m276.87,663.49c-1.94-5.31-3.88-10.63-5.82-15.94-.2-.55-.33-1.11.43-1.26,1.05-.21,1.37.54,1.67,1.37,1.28,3.58,2.6,7.14,4.29,11.74,1.59-4.4,2.79-7.87,4.12-11.3.29-.75.34-2.3,1.71-1.77,1.34.52.36,1.65.08,2.43-1.78,4.93-3.62,9.83-5.44,14.74-.34,0-.69,0-1.03,0Z"/>
      <path class="cls-2" d="m329.98,655.13c-2.75-.81-5.08-4.08-6.31-1.31-1.42,3.21,2.63,2.3,4.2,3.27,1.27.78,2.16,1.66,2.03,3.25-.15,1.78-1.29,2.74-2.87,3.03-2.73.5-5.12.06-6.25-3.02,2.12-1.2,2.42,1.55,4,1.45,1.27-.08,2.7.08,3.11-1.33.39-1.31-.8-1.84-1.92-2.16-.26-.07-.52-.18-.78-.25-2-.55-4.24-.94-3.99-3.75.17-1.92,1.67-2.82,3.37-3.09,2.45-.38,4.15.68,5.4,3.91Z"/>
      <path class="cls-2" d="m422.38,663.38c-1.03-1.95-.4-4.12-.5-6.17-.11-2.29-.75-4.25-3.35-4.27-2.51-.02-3.5,1.76-3.56,4.12,0,.27.05.57-.02.82-.52,1.77,1.23,4.9-1.15,5.08-1.56.12-.34-3.24-.74-5-.12-.52.1-1.12-.04-1.63-1.39-4.97,2.38-4.74,5.29-5.12,3-.4,5.12,1.83,5.3,5.39.11,2.23.02,4.47.02,6.7-.42.03-.84.05-1.26.08Z"/>
      <path class="cls-2" d="m394.23,655c-2.17-.76-4.5-3.88-5.69-1.18-1.43,3.25,2.59,2.31,4.15,3.27,1.41.86,2.41,1.88,2.03,3.61-.36,1.64-1.55,2.55-3.18,2.73-2.64.3-4.96-.05-5.86-3.41,2.22-.22,2.78,2.24,4.69,1.82.98-.22,1.99-.27,2.3-1.32.34-1.14-.49-1.73-1.45-2.09-.64-.24-1.29-.47-1.95-.61-1.92-.4-3.53-1.26-3.28-3.45.26-2.25,2.07-3.22,4.12-3.19,2.06.03,3.89.75,4.12,3.81Z"/>
      <path class="cls-2" d="m470.06,655.52c-1.57-1.21-2.24-1.88-3.03-2.31-1.23-.65-2.54-.51-3.1.85-.59,1.41.63,1.85,1.71,2.2.39.13.77.3,1.16.38,2.18.47,4.06,1.36,3.62,4.01-.34,2.05-2.01,2.75-3.95,2.86-2.85.16-3.87-.59-4.65-3.53,1.79-.24,2.33,2.28,4.24,1.85.97-.22,1.98-.22,2.31-1.3.37-1.17-.47-1.73-1.41-2.11-.63-.25-1.29-.48-1.95-.61-1.91-.39-3.51-1.23-3.32-3.43.18-2.08,1.82-3.06,3.7-3.2,2.28-.16,4.15.58,4.67,4.32Z"/>
      <path class="cls-2" d="m328.2,517.76c-1.99-.1-3.9-.2-3.92-2.68-.02-2.16,3.62-5.28,6.06-5.29,2.14,0,3.52,1.24,3.34,3.25-.29,3.23-2.61,4.51-5.48,4.71Z"/>
      <path class="cls-2" d="m302.38,654.63c0,2.47,0,4.93,0,7.4,0,.55-.1,1.14-.78,1.23-.92.13-1.15-.5-1.15-1.25-.01-4.93-.01-9.87-.01-14.8,0-.58.15-1.15.8-1.25.9-.13,1.15.52,1.15,1.26.01,2.47,0,4.93,0,7.4h-.01Z"/>
      <path class="cls-2" d="m443.86,645.94v17.35c-.25.02-.5.04-.75.05v-17.37c.25-.01.5-.02.75-.04Z"/>
      <path class="cls-1" d="m361.23,557.31c.92-11.48,5.11-21.48,13.32-29.64,1.33-1.33,2.96-2.47,4.64-3.32,4.35-2.22,6.43-.9,6.58,3.97.05,1.6-.45,3.34,1.03,4.61,1.06.91.34,1.67-.14,2.47-5.23,8.67-10.52,17.3-16.99,25.12-1.66,2.01-3.62,5.21-6.48,3.94-2.39-1.07-1.66-4.61-1.95-7.15Z"/>
      <path class="cls-1" d="m421.04,449.89c-2.69,12.47-7.06,24.39-11.7,36.22,2.81-12.43,6.45-24.59,11.7-36.22Z"/>
      <path class="cls-1" d="m324.07,312.83c.12-.2.24-.41.36-.61.06.17.11.35.17.52-.2,0-.4,0-.6,0,0,0,.07.1.07.1Z"/>
      <path class="cls-1" d="m335.47,290.89c-.09.17-.19.34-.28.51-.08-.09-.25-.2-.24-.27.04-.19.16-.36.25-.54.08.09.17.18.27.29Z"/>
      <path class="cls-1" d="m362.76,188.32c.07,20.31-16.62,37.1-37,37.24-20.93.14-37.42-16.62-37.42-38.02,0-20.07,16.68-36.7,36.94-36.83,20.72-.13,37.41,16.62,37.48,37.61Zm-37.12,34.33c19.64-.12,34.77-15.44,34.66-35.09-.11-19.4-15.69-34.54-35.4-34.41-18.89.13-34.25,15.68-34.32,34.75-.08,19.36,15.58,34.87,35.06,34.75Z"/>
      <path class="cls-1" d="m287.95,656.28c.5-2.09,1.43-2.82,2.65-3.23,1.61-.54,2.98-.03,4.09,1.15.32.34.65,1.14.48,1.4-.84,1.24-2.21.55-3.35.66-1.19.11-2.41.02-3.87.02Z"/>
      <path class="cls-1" d="m315.89,657.6c-.31,2.55-1.64,4.23-4.43,4.17-2.82-.06-4.17-1.85-4.12-4.51.05-2.71,1.68-4.41,4.36-4.32,2.66.08,4.08,1.84,4.2,4.66Z"/>
      <path class="cls-1" d="m349.64,657.39c-.23,2.6-1.48,4.34-4.28,4.38-2.82.04-4.23-1.67-4.28-4.35-.04-2.72,1.53-4.46,4.2-4.48,2.66-.02,4.13,1.7,4.36,4.45Z"/>
      <path class="cls-1" d="m453.28,656.34c-1.13-.46-3.15.84-3.34-1.04-.17-1.63,1.63-2.36,3.16-2.41,1.7-.06,3.65.63,3.54,2.44-.12,1.81-2.21.56-3.35,1.01Z"/>
      <path class="cls-1" d="m377.68,656.45c-1.34-.6-3.4.76-3.47-1.25-.05-1.57,1.72-2.3,3.29-2.32,1.57-.02,3.41.66,3.4,2.19-.01,2.55-2.44.29-3.22,1.38Z"/>
      <path class="cls-1" d="m437.03,657.31c-.15,2.64-1.37,4.42-4.19,4.45-2.76.03-4.26-1.57-4.33-4.3-.07-2.76,1.51-4.45,4.14-4.53,2.68-.08,4.15,1.64,4.37,4.37Z"/>
      <path class="cls-1" d="m403.29,661.84c-2.65-.24-4.23-1.74-4.25-4.43-.03-2.71,1.6-4.44,4.26-4.48,2.7-.04,4.32,1.77,4.33,4.41,0,2.6-1.45,4.3-4.33,4.5Z"/>
      <path class="cls-3" d="m325.64,222.65c-19.49.12-35.14-15.39-35.06-34.75.07-19.07,15.43-34.62,34.32-34.75,19.71-.13,35.29,15.01,35.4,34.41.11,19.66-15.01,34.97-34.66,35.09Z"/>
    </g>
  </g>
</svg>