<?xml version="1.0" encoding="UTF-8"?>
<svg id="Capa_2" data-name="Capa 2" xmlns="http://www.w3.org/2000/svg" viewBox="0 0 757.51 424.24">
  <defs>
    <style>
      .cls-1 {
        letter-spacing: -.02em;
      }

      .cls-2, .cls-3 {
        fill: #2176ff;
      }

      .cls-2, .cls-3, .cls-4 {
        stroke-width: 0px;
      }

      .cls-3 {
        opacity: .15;
      }

      .cls-5 {
        font-family: Montserrat-Regular, Montserrat;
        font-size: 18.82px;
      }

      .cls-5, .cls-4 {
        fill: #0a2540;
      }

      .cls-6 {
        letter-spacing: -.01em;
      }

      .cls-7 {
        letter-spacing: -.02em;
      }

      .cls-8 {
        letter-spacing: -.01em;
      }

      .cls-9 {
        letter-spacing: -.04em;
      }

      .cls-10 {
        letter-spacing: 0em;
      }

      .cls-11 {
        letter-spacing: 0em;
      }

      .cls-12 {
        letter-spacing: -.01em;
      }
    </style>
  </defs>
  <g id="Capa_1-2" data-name="Capa 1">
    <g>
      <g>
        <g>
          <g>
            <g>
              <path class="cls-3" d="m62.13,362.11C22.06,322.05,0,268.78,0,212.12c0-37.86,10.1-75.03,29.21-107.48l1.57-2.67,8.03,4.72-1.57,2.68c-18.26,31.02-27.92,66.55-27.92,102.75,0,54.17,21.1,105.1,59.4,143.41l2.2,2.19-6.58,6.58-2.19-2.19Z"/>
              <path class="cls-2" d="m64.32,359.92C24.85,320.44,3.1,267.95,3.1,212.12c0-37.31,9.95-73.93,28.78-105.9l2.68,1.57c-18.55,31.5-28.35,67.57-28.35,104.33,0,55,21.42,106.71,60.31,145.6l-2.19,2.19Z"/>
            </g>
            <g>
              <path class="cls-3" d="m212.12,424.24c-38.48,0-76.18-10.41-109-30.11l-2.66-1.6,4.79-7.98,2.66,1.6c31.38,18.83,67.41,28.78,104.21,28.78,111.83,0,202.81-90.98,202.81-202.81,0-32.62-7.93-65.03-22.92-93.74l-1.44-2.75,8.26-4.31,1.44,2.75c15.68,30.03,23.98,63.94,23.98,98.05,0,116.96-95.16,212.12-212.12,212.12Z"/>
              <path class="cls-2" d="m212.12,421.13c-37.92,0-75.06-10.26-107.4-29.67l1.6-2.66c31.86,19.12,68.45,29.22,105.8,29.22,113.54,0,205.91-92.37,205.91-205.91,0-33.12-8.05-66.03-23.27-95.18l2.75-1.44c15.45,29.59,23.62,63,23.62,96.62,0,115.25-93.76,209.02-209.02,209.02Z"/>
            </g>
            <g>
              <path class="cls-3" d="m364.09,77.82C325.59,34.28,270.2,9.31,212.12,9.31s-107.13,21.92-145.68,61.72l-2.16,2.23-6.69-6.48,2.16-2.23C100.07,22.92,154.18,0,212.12,0s118.68,26.12,158.95,71.65l2.06,2.33-6.98,6.17-2.06-2.33Z"/>
              <path class="cls-2" d="m366.42,75.76C327.32,31.56,271.08,6.21,212.12,6.21s-108.77,22.25-147.91,62.66l-2.23-2.16C101.71,25.69,155.03,3.1,212.12,3.1s116.94,25.73,156.62,70.6l-2.33,2.06Z"/>
            </g>
          </g>
          <g>
            <g>
              <path class="cls-3" d="m32.02,257.67c-3.73-14.79-5.62-30.1-5.63-45.49-.01-47.04,17.59-91.93,49.58-126.39,31.81-34.27,74.92-55.16,121.37-58.82l3.09-.24.73,9.28-3.09.24C107,43.43,35.68,120.71,35.7,212.18c0,14.63,1.8,29.17,5.34,43.22l.76,3.01-9.03,2.27-.76-3.01Z"/>
              <path class="cls-2" d="m35.03,256.91c-3.67-14.54-5.53-29.59-5.53-44.73-.01-46.26,17.3-90.39,48.75-124.27,31.28-33.7,73.66-54.24,119.34-57.84l.24,3.1C105.15,40.46,32.57,119.1,32.6,212.18c0,14.88,1.83,29.68,5.44,43.98l-3.01.76Z"/>
            </g>
            <g>
              <path class="cls-3" d="m156.49,389.38c-50.2-15.74-91.54-52.27-113.42-100.23l-1.29-2.82,8.47-3.87,1.29,2.82c20.79,45.56,60.06,80.26,107.74,95.21l2.96.93-2.79,8.89-2.96-.93Z"/>
              <path class="cls-2" d="m157.42,386.42c-49.36-15.47-90.01-51.39-111.53-98.55l2.82-1.29c21.16,46.36,61.12,81.67,109.63,96.88l-.93,2.96Z"/>
            </g>
            <g>
              <path class="cls-3" d="m212.08,397.86c-2.71,0-5.45-.06-8.13-.18l-3.1-.13.4-9.3,3.1.13c2.57.11,5.18.17,7.74.17,47.22-.01,91.52-18.38,124.83-51.71,33.31-33.33,51.65-77.64,51.64-124.76-.03-82.58-56.15-153.23-136.48-171.83l-3.02-.7,2.1-9.07,3.02.7c40.2,9.3,76.67,32.23,102.7,64.55,26.42,32.81,40.98,74.13,40.99,116.34.02,49.61-19.29,96.26-54.36,131.35-35.07,35.09-81.71,54.42-131.32,54.44h-.1Z"/>
              <path class="cls-2" d="m212.08,394.75c-2.66,0-5.35-.06-8-.17l.13-3.1c2.61.11,5.25.17,7.87.17h.1c47.95-.01,93.03-18.7,126.93-52.62,33.9-33.92,52.56-79.01,52.54-126.96-.03-84.03-57.13-155.93-138.88-174.85l.7-3.02c39.52,9.15,75.39,31.69,100.98,63.48,25.98,32.26,40.29,72.89,40.3,114.4.02,48.78-18.97,94.65-53.45,129.15-34.48,34.51-80.34,53.52-129.12,53.53h-.1Z"/>
            </g>
          </g>
        </g>
        <g>
          <path class="cls-3" d="m197.7,39.77c-4.5,0-8.16-3.66-8.16-8.16,0-4.5,3.66-8.16,8.16-8.16,4.5,0,8.16,3.66,8.16,8.16,0,4.5-3.66,8.16-8.16,8.16h0Z"/>
          <path class="cls-2" d="m202.76,31.61c0,2.79-2.26,5.05-5.05,5.06-2.79,0-5.05-2.26-5.06-5.05,0-2.79,2.26-5.05,5.05-5.06,2.79,0,5.05,2.26,5.06,5.05Z"/>
          <path class="cls-3" d="m254.13,43.87c-4.5,0-8.15-3.66-8.16-8.15,0-4.5,3.66-8.16,8.15-8.16,2.18,0,4.23.85,5.77,2.39,1.54,1.54,2.39,3.59,2.39,5.77,0,2.18-.85,4.23-2.39,5.77-1.54,1.54-3.59,2.39-5.77,2.39h0Z"/>
          <path class="cls-2" d="m259.18,35.71c0,2.79-2.26,5.05-5.05,5.06-2.79,0-5.05-2.26-5.06-5.05,0-2.79,2.26-5.05,5.05-5.06,2.79,0,5.05,2.26,5.06,5.05Z"/>
          <path class="cls-3" d="m367.54,82.85c-4.5,0-8.15-3.66-8.16-8.15,0-4.5,3.66-8.16,8.15-8.16,4.5,0,8.16,3.66,8.16,8.15,0,4.5-3.66,8.16-8.16,8.16h0Z"/>
          <path class="cls-2" d="m372.6,74.69c0,2.79-2.26,5.05-5.05,5.06-2.79,0-5.05-2.26-5.06-5.05,0-2.79,2.26-5.05,5.05-5.06,2.79,0,5.05,2.26,5.06,5.05Z"/>
          <path class="cls-3" d="m395.88,124.33c-4.5,0-8.16-3.66-8.16-8.16,0-4.5,3.66-8.16,8.16-8.16,4.5,0,8.16,3.66,8.16,8.15,0,4.5-3.66,8.16-8.15,8.16h0Z"/>
          <path class="cls-2" d="m400.93,116.17c0,2.79-2.26,5.05-5.05,5.06-2.79,0-5.05-2.26-5.06-5.05,0-2.79,2.26-5.05,5.05-5.06,2.79,0,5.05,2.26,5.06,5.05Z"/>
          <path class="cls-3" d="m432.58,114.21c-4.5,0-8.16-3.66-8.16-8.16,0-4.5,3.66-8.16,8.16-8.16,4.5,0,8.16,3.66,8.16,8.15,0,4.5-3.66,8.16-8.15,8.16h0Z"/>
          <path class="cls-2" d="m437.63,106.05c0,2.79-2.26,5.05-5.05,5.06-2.79,0-5.05-2.26-5.06-5.05,0-2.79,2.26-5.05,5.05-5.06,2.79,0,5.05,2.26,5.06,5.05Z"/>
          <path class="cls-3" d="m204.14,401.36c-4.5,0-8.15-3.66-8.16-8.15,0-2.18.85-4.23,2.39-5.77,1.54-1.54,3.59-2.39,5.77-2.39,4.5,0,8.16,3.66,8.16,8.15,0,2.18-.85,4.23-2.39,5.77-1.54,1.54-3.59,2.39-5.77,2.39h0Z"/>
          <path class="cls-2" d="m209.2,393.2c0,2.79-2.26,5.05-5.05,5.06-2.79,0-5.05-2.26-5.06-5.05,0-2.79,2.26-5.05,5.05-5.06,2.79,0,5.05,2.26,5.06,5.05Z"/>
          <path class="cls-3" d="m157.89,393.1c-4.5,0-8.16-3.66-8.16-8.16,0-4.5,3.66-8.16,8.16-8.16,4.5,0,8.16,3.66,8.16,8.15,0,4.5-3.66,8.16-8.15,8.16h0Z"/>
          <path class="cls-2" d="m162.94,384.94c0,2.79-2.26,5.05-5.05,5.06-2.79,0-5.05-2.26-5.06-5.05,0-2.79,2.26-5.05,5.05-5.06,2.79,0,5.05,2.26,5.06,5.05Z"/>
          <path class="cls-3" d="m55.38,408.96c-4.5,0-8.16-3.66-8.16-8.16,0-4.5,3.66-8.16,8.16-8.16,4.5,0,8.16,3.66,8.16,8.15,0,4.5-3.66,8.16-8.15,8.16h0Z"/>
          <path class="cls-2" d="m60.43,400.8c0,2.79-2.26,5.05-5.05,5.06-2.79,0-5.05-2.26-5.06-5.05,0-2.79,2.26-5.05,5.05-5.06,2.79,0,5.05,2.26,5.06,5.05Z"/>
          <path class="cls-3" d="m105.57,398.17c-4.5,0-8.15-3.66-8.16-8.15,0-2.18.85-4.23,2.39-5.77,1.54-1.54,3.59-2.39,5.77-2.39,4.5,0,8.16,3.66,8.16,8.15,0,2.18-.85,4.23-2.39,5.77-1.54,1.54-3.59,2.39-5.77,2.39h0Z"/>
          <path class="cls-2" d="m110.63,390.01c0,2.79-2.26,5.05-5.05,5.06-2.79,0-5.05-2.26-5.06-5.05,0-2.79,2.26-5.05,5.05-5.06,2.79,0,5.05,2.26,5.06,5.05Z"/>
          <path class="cls-3" d="m47.31,295.38c-4.5,0-8.16-3.66-8.16-8.15,0-4.5,3.66-8.16,8.16-8.16,4.5,0,8.16,3.66,8.16,8.16,0,4.5-3.66,8.16-8.15,8.16h0Z"/>
          <path class="cls-2" d="m52.36,287.22c0,2.79-2.26,5.05-5.05,5.06-2.79,0-5.05-2.26-5.06-5.05,0-2.79,2.26-5.05,5.05-5.06,2.79,0,5.05,2.26,5.06,5.05Z"/>
          <path class="cls-3" d="m65.47,367.03c-4.5,0-8.16-3.66-8.16-8.15,0-2.18.85-4.23,2.39-5.77,1.54-1.54,3.59-2.39,5.77-2.39,4.5,0,8.16,3.66,8.16,8.15,0,2.18-.85,4.23-2.39,5.77-1.54,1.54-3.59,2.39-5.77,2.39h0Z"/>
          <path class="cls-2" d="m70.52,358.87c0,2.79-2.26,5.05-5.05,5.06-2.79,0-5.05-2.26-5.06-5.05,0-2.79,2.26-5.05,5.05-5.06,2.79,0,5.05,2.26,5.06,5.05Z"/>
          <path class="cls-3" d="m37.19,264.69c-4.5,0-8.15-3.66-8.16-8.15,0-2.18.85-4.23,2.39-5.77,1.54-1.54,3.59-2.39,5.77-2.39,4.5,0,8.16,3.66,8.16,8.15,0,2.18-.85,4.23-2.39,5.77-1.54,1.54-3.59,2.39-5.77,2.39h0Z"/>
          <path class="cls-2" d="m42.24,256.53c0,2.79-2.26,5.05-5.05,5.06-2.79,0-5.05-2.26-5.06-5.05,0-2.79,2.26-5.05,5.05-5.06,2.79,0,5.05,2.26,5.06,5.05Z"/>
          <path class="cls-3" d="m63.05,76.04c-4.5,0-8.16-3.66-8.16-8.16,0-4.5,3.66-8.16,8.16-8.16,4.5,0,8.16,3.66,8.16,8.16,0,2.18-.85,4.23-2.39,5.77-1.54,1.54-3.59,2.39-5.77,2.39h0Z"/>
          <path class="cls-2" d="m68.11,67.88c0,2.79-2.26,5.05-5.05,5.06-2.79,0-5.05-2.26-5.06-5.05,0-2.79,2.26-5.05,5.05-5.06,2.79,0,5.05,2.26,5.06,5.05Z"/>
          <path class="cls-3" d="m33.63,115.22c-4.5,0-8.16-3.66-8.16-8.16,0-2.18.85-4.23,2.39-5.77,1.54-1.54,3.59-2.39,5.77-2.39,4.5,0,8.16,3.66,8.16,8.16,0,4.5-3.66,8.16-8.16,8.16h0Z"/>
          <path class="cls-2" d="m38.68,107.06c0,2.79-2.26,5.05-5.05,5.06-2.79,0-5.05-2.26-5.06-5.05,0-2.79,2.26-5.05,5.05-5.06,2.79,0,5.05,2.26,5.06,5.05Z"/>
        </g>
      </g>
      <g>
        <path class="cls-4" d="m215.21,158.08l-28.27,108.46h-31.98l-17.3-71.38-17.92,71.38h-31.98l-27.5-108.46h28.28l15.61,78.95,19.31-78.95h29.05l18.54,78.95,15.76-78.95h28.43Z"/>
        <path class="cls-4" d="m254.92,158.08v108.46h-26.42v-108.46h26.42Z"/>
        <path class="cls-4" d="m276.55,183.5c4.64-8.39,11.1-14.93,19.39-19.62,8.29-4.69,17.69-7.03,28.2-7.03,12.88,0,23.9,3.4,33.06,10.2,9.17,6.8,15.3,16.07,18.39,27.81h-29.05c-2.16-4.53-5.23-7.98-9.19-10.35-3.97-2.37-8.47-3.55-13.52-3.55-8.14,0-14.73,2.83-19.78,8.5-5.05,5.67-7.57,13.24-7.57,22.71s2.52,17.05,7.57,22.71c5.05,5.67,11.64,8.5,19.78,8.5,5.05,0,9.55-1.18,13.52-3.55,3.96-2.37,7.03-5.82,9.19-10.35h29.05c-3.09,11.74-9.22,20.99-18.39,27.73-9.17,6.75-20.19,10.12-33.06,10.12-10.51,0-19.91-2.34-28.2-7.03-8.29-4.68-14.75-11.2-19.39-19.54-4.64-8.34-6.95-17.87-6.95-28.58s2.32-20.26,6.95-28.66Z"/>
      </g>
      <g>
        <path class="cls-4" d="m512.39,166.73c8.55,4.53,15.17,10.89,19.85,19.08,4.69,8.19,7.03,17.64,7.03,28.35s-2.34,20.04-7.03,28.27c-4.69,8.24-11.33,14.63-19.93,19.16-8.6,4.53-18.57,6.8-29.9,6.8h-40.64v-108.46h40.64c11.43,0,21.42,2.27,29.98,6.8Zm-8.34,70.61c5.56-5.46,8.34-13.18,8.34-23.18s-2.78-17.77-8.34-23.33c-5.56-5.56-13.34-8.34-23.33-8.34h-12.51v63.04h12.51c9.99,0,17.77-2.73,23.33-8.19Z"/>
        <path class="cls-4" d="m635.84,158.08v21.17h-28.74v87.3h-26.42v-87.3h-28.74v-21.17h83.9Z"/>
        <path class="cls-4" d="m716.65,247.38h-40.48l-6.49,19.16h-27.66l39.25-108.46h30.59l39.24,108.46h-27.96l-6.49-19.16Zm-6.8-20.39l-13.44-39.71-13.29,39.71h26.73Z"/>
      </g>
      <text class="cls-5" transform="translate(436.85 298.94)"><tspan x="0" y="0">Inn</tspan><tspan class="cls-8" x="31.12" y="0">o</tspan><tspan class="cls-1" x="42.64" y="0">v</tspan><tspan x="52.46" y="0">a</tspan><tspan class="cls-10" x="63.56" y="0">c</tspan><tspan x="74" y="0">ión Dig</tspan><tspan class="cls-11" x="142" y="0">i</tspan><tspan class="cls-1" x="146.9" y="0">t</tspan><tspan x="154.16" y="0">al </tspan><tspan class="cls-8" x="175.25" y="0">P</tspan><tspan x="188.48" y="0">a</tspan><tspan class="cls-9" x="199.58" y="0">r</tspan><tspan x="206.35" y="0">a </tspan><tspan class="cls-12" x="222.39" y="0">T</tspan><tspan x="232.92" y="0">u </tspan><tspan class="cls-7" x="250.5" y="0">F</tspan><tspan x="262.07" y="0">utu</tspan><tspan class="cls-6" x="295" y="0">r</tspan><tspan x="302.3" y="0">o</tspan></text>
    </g>
  </g>
</svg>