<?xml version="1.0" encoding="UTF-8"?>
<svg id="Capa_2" data-name="Capa 2" xmlns="http://www.w3.org/2000/svg" viewBox="0 0 56.24 58.8">
  <defs>
    <style>
      .cls-1 {
        stroke-width: 0px;
      }
    </style>
  </defs>
  <g id="_1" data-name="1">
    <g id="_611_Hash_Tag_Marketing_Online_Mobile" data-name="611, Hash Tag, Marketing, Online, Mobile">
      <g>
        <path class="cls-1" d="m26.5,5h5.06c.3,0,.61-.3.61-.6s-.3-.6-.61-.6h-5.06c-.3,0-.61.3-.61.6s.2.6.61.6Z"/>
        <path class="cls-1" d="m31.56,53.8h-5.06c-.3,0-.61.3-.61.6s.3.6.61.6h5.06c.3,0,.61-.3.61-.6.1-.3-.2-.6-.61-.6Z"/>
        <path class="cls-1" d="m2.23,13.8c.5,0,.91.4.91.9s-.41.9-.91.9-.91-.4-.91-.9.41-.9.91-.9Z"/>
        <path class="cls-1" d="m8.5,5.1c.5,0,.91.4.91.9s-.41.9-.91.9-.91-.4-.91-.9.41-.9.91-.9Z"/>
        <path class="cls-1" d="m55.33,13.8c.5,0,.91.4.91.9s-.41.9-.91.9-.91-.4-.91-.9.41-.9.91-.9Z"/>
        <path class="cls-1" d="m54.63,38.2c.5,0,.91.4.91.9s-.41.9-.91.9-.91-.4-.91-.9.41-.9.91-.9Z"/>
        <path class="cls-1" d="m51.49,48.8c.5,0,.91.4.91.9s-.41.9-.91.9-.91-.4-.91-.9.41-.9.91-.9Z"/>
        <path class="cls-1" d="m4.75,36.3c.5,0,.91.4.91.9s-.41.9-.91.9-.91-.4-.91-.9.41-.9.91-.9Z"/>
        <path class="cls-1" d="m7.28,52.6c.5,0,.91.4.91.9s-.41.9-.91.9-.91-.4-.91-.9.41-.9.91-.9Z"/>
        <path class="cls-1" d="m4.45,40.7c-2.43,0-4.45,2-4.45,4.4s2.02,4.4,4.45,4.4,4.45-2,4.45-4.4-2.02-4.4-4.45-4.4Zm0,7.5c-1.72,0-3.14-1.4-3.14-3.1s1.42-3.1,3.14-3.1,3.14,1.4,3.14,3.1c0,1.6-1.42,3.1-3.14,3.1Z"/>
        <path class="cls-1" d="m53.11,11.3c1.72,0,3.14-1.4,3.14-3.1s-1.42-3.1-3.14-3.1-3.14,1.4-3.14,3.1,1.42,3.1,3.14,3.1Zm0-5c1.01,0,1.92.8,1.92,1.9s-.81,1.9-1.92,1.9c-1.01,0-1.92-.8-1.92-1.9s.81-1.9,1.92-1.9Z"/>
        <path class="cls-1" d="m48.05,22.5h-1.92V5.7c0-3.1-2.53-5.7-5.77-5.7h-22.66c-3.14,0-5.77,2.5-5.77,5.7v16.8h-1.82c-3.84,0-6.98,3.1-6.98,6.9s3.14,6.9,6.98,6.9h1.82v16.8c0,3.1,2.53,5.7,5.77,5.7h22.76c3.14,0,5.77-2.5,5.77-5.7v-16.8h1.92c3.84,0,6.98-3.1,6.98-6.9-.1-3.8-3.24-6.9-7.08-6.9ZM17.7,1.3h22.76c2.43,0,4.45,2,4.45,4.4v1.8H13.25v-1.8c0-2.4,1.92-4.4,4.45-4.4Zm-4.45,7.5h31.66v13.8h-2.63c.71-2.2-1.31-4.3-3.64-3.8l-3.64.9-.3-1.1c-.3-1.3-1.52-2.3-2.93-2.3-1.92,0-3.44,1.8-2.93,3.7l.3,1.1-4.05,1-.91-3.6c-.3-1.3-1.52-2.3-2.93-2.3-1.92,0-3.44,1.8-2.93,3.7l.61,2.5h-5.67v-13.6h0Zm21.85,16.3l1.31,5.3c.1.3.4.5.81.5,1.72-.4,1.82-.5,2.12-.5,1.01,0,1.72.8,1.72,1.7,0,.8-.51,1.5-1.31,1.7l-1.72.4c-.3.1-.51.4-.51.8l1.01,4.2c.3,1.1-.61,2.2-1.72,2.2-.81,0-1.52-.5-1.72-1.3l-1.01-4.2c-.1-.3-.4-.5-.81-.5l-5.36,1.3c-.3.1-.51.4-.51.8l.4,1.7c.1.5,0,1.1-.3,1.5-.91,1.1-2.73.8-3.03-.6l-.4-1.7c-.1-.3-.4-.5-.81-.5-4.45,1.1-4.25,1.1-4.65,1.1-1.01,0-1.72-.8-1.72-1.7,0-.8.51-1.5,1.31-1.7l4.25-1c.3-.1.51-.4.51-.8l-1.21-5.4c-.1-.3-.4-.5-.81-.5-1.72.5-1.82.5-2.12.5-1.01,0-1.72-.8-1.72-1.7,0-.8.51-1.5,1.31-1.7l1.72-.4c.3-.1.51-.4.51-.8l-1.01-4.2c-.1-.5,0-1.1.3-1.5.91-1.1,2.73-.8,3.03.6l1.01,4.2c.1.3.4.5.81.5l5.36-1.3c.3-.1.51-.4.51-.8l-.4-1.7c-.3-1.1.61-2.2,1.72-2.2.81,0,1.52.5,1.72,1.3l.4,1.7c.1.3.4.5.81.5,4.45-1.1,4.25-1.1,4.65-1.1,1.01,0,1.72.8,1.72,1.7,0,.8-.51,1.5-1.31,1.7l-4.45,1.2c-.2,0-.3.1-.4.3,0,.1-.1.3,0,.4Zm-30.65,4.3c0-3.1,2.53-5.6,5.67-5.6h8.09-.2c-1.32.3-2.33,1.5-2.33,2.9,0,1.9,1.82,3.4,3.74,2.9l1.11-.3,1.01,4-3.64.9c-.51.1-1.01.4-1.42.8h-6.58c-2.93,0-5.46-2.5-5.46-5.6Zm35.91,28.1h-22.66c-2.43,0-4.45-2-4.45-4.4v-1.8h31.66v1.8c0,2.4-2.02,4.4-4.55,4.4Zm4.55-7.5H13.25v-1.3h15.88c.3,0,.61-.3.61-.6s-.3-.6-.61-.6h-15.88v-1.3h8.9c.3,0,.61-.3.61-.6s-.3-.6-.61-.6h-8.9v-1.3h5.77c.3,0,.61-.3.61-.6s-.3-.6-.61-.6h-5.77v-6.3h2.73c-.71,2.2,1.31,4.3,3.64,3.8l3.64-.9.3,1.1c.3,1.3,1.52,2.3,2.93,2.3,1.92,0,3.44-1.8,2.93-3.7l-.3-1.1,4.05-1,.91,3.6c.3,1.3,1.52,2.3,2.93,2.3,1.92,0,3.44-1.8,2.93-3.7l-.61-2.5h5.66v13.6h-.1Zm3.14-15h-8.19.2c1.32-.3,2.33-1.5,2.33-2.9,0-1.9-1.82-3.4-3.74-2.9l-1.11.3-1.01-4,3.64-.9c.51-.1,1.01-.4,1.42-.8h6.58c3.14,0,5.67,2.5,5.67,5.6-.1,3.1-2.63,5.6-5.77,5.6Z"/>
        <path class="cls-1" d="m31.66,26c-.1-.3-.4-.5-.81-.5l-5.36,1.3c-.3.1-.51.4-.51.8l1.32,5.3c.1.3.4.5.81.5l5.36-1.3c.3-.1.51-.4.51-.8l-1.31-5.3Zm-4.15,5.9l-1.01-4,4.05-1,1.01,4-4.05,1Z"/>
      </g>
    </g>
  </g>
</svg>