<?xml version="1.0" encoding="UTF-8"?>
<svg id="Capa_2" data-name="Capa 2" xmlns="http://www.w3.org/2000/svg" viewBox="0 0 56.85 54.4">
  <defs>
    <style>
      .cls-1 {
        stroke-width: 0px;
      }
    </style>
  </defs>
  <g id="_1" data-name="1">
    <g id="_606_Cash_Money_Wallet" data-name="606, Cash, Money, Wallet">
      <g>
        <path class="cls-1" d="m51.79,43.1c.3,0,.61-.3.61-.6v-7.5c0-.3-.3-.6-.61-.6h-1.92v-8.1c0-.3-.3-.6-.61-.6h-2.53v-9.4c0-.3-.3-.6-.61-.6h-5.66V7.6c0-.3-.3-.6-.61-.6h-6.98v-3.8c0-.3-.3-.6-.61-.6H14.57c-.3,0-.61.3-.61.6v12.5h-5.06c-3.14,0-5.66,2.5-5.66,5.6v29.2c0,2.2,1.82,3.9,3.95,3.9h38.85c2.23,0,3.95-1.8,3.95-3.9v-7.3l1.82-.1h0Zm-.61-1.3h-5.67c-1.72,0-3.14-1.4-3.14-3.1s1.42-3.1,3.14-3.1h5.67v6.2Zm-5.67-25v2.5h-5.06v-2.5h5.06Zm-6.37-8.7v11.3h-6.37v-11.3h6.37ZM15.17,3.7h16.49v15.6H15.17V3.7Zm-6.37,13.1h5.06v2.5h-3.14c-.3,0-.61.3-.61.6s.3.6.61.6h34.8v5H8.8c-2.43,0-4.45-2-4.45-4.4.1-2.3,2.02-4.3,4.45-4.3Zm37.12,36.3H7.08c-1.52,0-2.73-1.2-2.73-2.7v-2.3h44.31v2.3c0,1.5-1.21,2.7-2.73,2.7Zm2.73-6.3H4.45v-15h34.8c.3,0,.61-.3.61-.6s-.3-.6-.61-.6H4.45v-5.8c1.01,1.3,2.63,2.1,4.45,2.1h39.86v7.5h-3.14c-2.43,0-4.45,2-4.45,4.4s2.02,4.4,4.45,4.4h3.14v3.6h-.1Z"/>
        <path class="cls-1" d="m45.52,36.8c-1.01,0-1.92.8-1.92,1.9,0,1,.81,1.9,1.92,1.9,1.01,0,1.92-.8,1.92-1.9s-.91-1.9-1.92-1.9Zm0,2.5c-.3,0-.61-.3-.61-.6s.3-.6.61-.6.61.3.61.6-.3.6-.61.6Z"/>
        <path class="cls-1" d="m38.24,0c.5,0,.91.4.91.9s-.41.9-.91.9-.91-.4-.91-.9.41-.9.91-.9Z"/>
        <path class="cls-1" d="m52.8,28.7c.5,0,.91.4.91.9s-.41.9-.91.9-.91-.4-.91-.9.41-.9.91-.9Z"/>
        <path class="cls-1" d="m54.02,13.1c.5,0,.91.4.91.9s-.41.9-.91.9-.91-.4-.91-.9.41-.9.91-.9Z"/>
        <path class="cls-1" d="m11.03,2.5c.5,0,.91.4.91.9s-.41.9-.91.9-.91-.4-.91-.9.41-.9.91-.9Z"/>
        <path class="cls-1" d="m.91,15.6c.5,0,.91.4.91.9s-.41.9-.91.9-.91-.4-.91-.9.41-.9.91-.9Z"/>
        <path class="cls-1" d="m.91,42.5c.5,0,.91.4.91.9s-.41.9-.91.9-.91-.4-.91-.9.41-.9.91-.9Z"/>
        <path class="cls-1" d="m52.2,44.3c.5,0,.91.4.91.9s-.41.9-.91.9-.91-.4-.91-.9.41-.9.91-.9Z"/>
        <path class="cls-1" d="m17.7,18.1h11.43c.3,0,.61-.3.61-.6s-.3-.6-.61-.6h-11.43c-.3,0-.61.3-.61.6s.2.6.61.6Z"/>
        <path class="cls-1" d="m17.7,15.6h11.43c.3,0,.61-.3.61-.6s-.3-.6-.61-.6h-11.43c-.3,0-.61.3-.61.6s.2.6.61.6Z"/>
        <path class="cls-1" d="m17.7,13.1h11.43c.3,0,.61-.3.61-.6s-.3-.6-.61-.6h-11.43c-.3,0-.61.3-.61.6s.2.6.61.6Z"/>
        <path class="cls-1" d="m49.26,12.4c3.14,0,5.66-2.5,5.66-5.6s-2.53-5.6-5.66-5.6-5.67,2.5-5.67,5.6,2.53,5.6,5.67,5.6Zm0-10c2.43,0,4.45,2,4.45,4.4s-2.02,4.4-4.45,4.4-4.45-2-4.45-4.4,2.02-4.4,4.45-4.4Z"/>
        <path class="cls-1" d="m47.85,7.8l-.51,1c.51.4,1.21.6,1.82.6v.8h.51v-.8c.71,0,1.32-.3,1.62-.8.2-.4.2-.9,0-1.3-.1-.3-.4-.5-.81-.7-.41-.2-.81-.3-.91-.3v-1c.51.1,1.11.4,1.11.5l.51-1c-.2-.1-.41-.2-.71-.3-.3-.1-.61-.2-.91-.2v-.7h-.51v.7c-.71.1-1.21.4-1.52,1-.2.4-.2.9,0,1.2.1.3.4.5.71.7.4.2.81.3.91.3v.9c-.61-.1-1.21-.5-1.32-.6Zm1.72-.3c.2.1.3.1.41.2.1.1.2.2.2.3,0,.2-.2.4-.51.4v-.9h-.1Zm-.71-1.5c-.1-.1-.1-.2-.1-.3,0-.2.2-.4.51-.4v.9c-.2-.1-.3-.1-.41-.2Z"/>
        <path class="cls-1" d="m4.45,10.6c2.43,0,4.45-2,4.45-4.4S6.88,1.8,4.45,1.8,0,3.8,0,6.2s2.02,4.4,4.45,4.4Zm0-7.5c1.72,0,3.14,1.4,3.14,3.1s-1.42,3.1-3.14,3.1-3.14-1.4-3.14-3.1c-.1-1.7,1.31-3.1,3.14-3.1Z"/>
        <path class="cls-1" d="m53.71,17.4c-1.72,0-3.14,1.4-3.14,3.1s1.42,3.1,3.14,3.1,3.14-1.4,3.14-3.1-1.42-3.1-3.14-3.1Zm0,5c-1.01,0-1.92-.8-1.92-1.9s.81-1.9,1.92-1.9c1.01,0,1.92.8,1.92,1.9s-.91,1.9-1.92,1.9Z"/>
        <path class="cls-1" d="m25.9,33.1H6.98c-.3,0-.61.3-.61.6v6.3c0,.3.3.6.61.6h19.02c.3,0,.61-.3.61-.6v-6.3c-.1-.4-.3-.6-.71-.6Zm-.61,6.2H7.59v-5h17.7v5Z"/>
        <path class="cls-1" d="m25.9,41.8H6.98c-.3,0-.61.3-.61.6s.3.6.61.6h19.02c.3,0,.61-.3.61-.6-.1-.3-.3-.6-.71-.6Z"/>
      </g>
    </g>
  </g>
</svg>