<?xml version="1.0" encoding="UTF-8"?>
<svg id="Capa_2" data-name="Capa 2" xmlns="http://www.w3.org/2000/svg" viewBox="0 0 19.43 19.2">
  <defs>
    <style>
      .cls-1 {
        fill: #fff;
        stroke-width: 0px;
      }
    </style>
  </defs>
  <g id="Object">
    <g>
      <g>
        <path class="cls-1" d="m19.07.1H.36C.22.1.1.22.1.36v18.47c0,.14.12.26.26.26h18.71c.14,0,.26-.12.26-.26V.36c0-.14-.12-.26-.26-.26Zm-.26,18.47H.62V4.44h18.18v14.13Zm0-14.65H.62V.62h18.18v3.3Z"/>
        <path class="cls-1" d="m19.07,19.2H.36c-.2,0-.36-.16-.36-.36V.36c0-.2.16-.36.36-.36h18.71c.2,0,.36.16.36.36v18.47c0,.2-.16.36-.36.36ZM.36.2c-.09,0-.16.07-.16.16v18.47c0,.09.07.16.16.16h18.71c.09,0,.16-.07.16-.16V.36c0-.09-.07-.16-.16-.16H.36Zm18.45,18.47H.62c-.05,0-.1-.04-.1-.1V4.44c0-.05.04-.1.1-.1h18.18c.05,0,.1.04.1.1v14.13c0,.05-.04.1-.1.1Zm-18.09-.2h17.99V4.54H.72v13.93ZM18.81,4.02H.62c-.05,0-.1-.04-.1-.1V.62c0-.05.04-.1.1-.1h18.18c.05,0,.1.04.1.1v3.3c0,.05-.04.1-.1.1ZM.72,3.82h17.99V.72H.72v3.1Z"/>
      </g>
      <g>
        <path class="cls-1" d="m2.19,3.16c.48,0,.86-.39.86-.86s-.39-.86-.86-.86-.86.39-.86.86.39.86.86.86Zm0-1.2c.19,0,.34.15.34.34s-.15.34-.34.34-.34-.15-.34-.34.15-.34.34-.34Z"/>
        <path class="cls-1" d="m2.19,3.26c-.53,0-.96-.43-.96-.96s.43-.96.96-.96.96.43.96.96-.43.96-.96.96Zm0-1.72c-.42,0-.76.34-.76.76s.34.76.76.76.76-.34.76-.76-.34-.76-.76-.76Zm0,1.2c-.24,0-.44-.2-.44-.44s.2-.44.44-.44.44.2.44.44-.2.44-.44.44Zm0-.67c-.13,0-.24.11-.24.24s.11.24.24.24.24-.11.24-.24-.11-.24-.24-.24Z"/>
      </g>
      <g>
        <path class="cls-1" d="m4.37,3.16c.48,0,.86-.39.86-.86s-.39-.86-.86-.86-.86.39-.86.86.39.86.86.86Zm0-1.2c.19,0,.34.15.34.34s-.15.34-.34.34-.34-.15-.34-.34.15-.34.34-.34Z"/>
        <path class="cls-1" d="m4.37,3.26c-.53,0-.96-.43-.96-.96s.43-.96.96-.96.96.43.96.96-.43.96-.96.96Zm0-1.72c-.42,0-.76.34-.76.76s.34.76.76.76.76-.34.76-.76-.34-.76-.76-.76Zm0,1.2c-.24,0-.44-.2-.44-.44s.2-.44.44-.44.44.2.44.44-.2.44-.44.44Zm0-.67c-.13,0-.24.11-.24.24s.11.24.24.24.24-.11.24-.24-.11-.24-.24-.24Z"/>
      </g>
      <g>
        <path class="cls-1" d="m6.55,3.16c.48,0,.86-.39.86-.86s-.39-.86-.86-.86-.86.39-.86.86.39.86.86.86Zm0-1.2c.19,0,.34.15.34.34s-.15.34-.34.34-.34-.15-.34-.34.15-.34.34-.34Z"/>
        <path class="cls-1" d="m6.55,3.26c-.53,0-.96-.43-.96-.96s.43-.96.96-.96.96.43.96.96-.43.96-.96.96Zm0-1.72c-.42,0-.76.34-.76.76s.34.76.76.76.76-.34.76-.76-.34-.76-.76-.76Zm0,1.2c-.24,0-.44-.2-.44-.44s.2-.44.44-.44.44.2.44.44-.2.44-.44.44Zm0-.67c-.13,0-.24.11-.24.24s.11.24.24.24.24-.11.24-.24-.11-.24-.24-.24Z"/>
      </g>
      <g>
        <path class="cls-1" d="m7.31,14.54c.05.05.12.07.18.07s.13-.02.18-.07l6.9-6.73c.1-.1.11-.27,0-.37-.1-.1-.27-.11-.37,0l-6.72,6.55-2.18-2.1c-.1-.1-.27-.1-.37,0-.1.1-.1.27,0,.37l2.36,2.27Z"/>
        <path class="cls-1" d="m7.5,14.71c-.09,0-.18-.04-.25-.1l-2.36-2.27c-.07-.07-.11-.16-.11-.25,0-.1.03-.19.1-.26.14-.14.37-.15.51,0l2.11,2.03,6.65-6.48c.14-.14.37-.14.51,0,.14.14.14.37,0,.51l-6.9,6.73c-.07.07-.16.1-.25.1Zm-2.36-2.8s-.09.02-.12.05c-.03.03-.05.07-.05.12,0,.04.02.08.05.11l2.36,2.27h0c.06.06.17.06.23,0l6.9-6.73c.06-.06.07-.17,0-.23-.06-.06-.17-.07-.23,0l-6.72,6.55s-.1.04-.14,0l-2.18-2.1s-.07-.05-.11-.05Z"/>
      </g>
    </g>
  </g>
</svg>