<?xml version="1.0" encoding="UTF-8"?>
<svg id="Capa_2" data-name="Capa 2" xmlns="http://www.w3.org/2000/svg" viewBox="0 0 56.75 56.8">
  <defs>
    <style>
      .cls-1 {
        stroke-width: 0px;
      }
    </style>
  </defs>
  <g id="_1" data-name="1">
    <g id="_613_Conversion_Marketing_Browser_Web" data-name="613, Conversion, Marketing, Browser, Web">
      <g>
        <path class="cls-1" d="m28.43,46.2c.73,0,1.31.58,1.31,1.3s-.59,1.3-1.31,1.3-1.31-.58-1.31-1.3.59-1.3,1.31-1.3Z"/>
        <path class="cls-1" d="m51.79,53.1h-6.37c-.3,0-.61.3-.61.6s.3.6.61.6h6.37c.3,0,.61-.3.61-.6.1-.3-.2-.6-.61-.6Z"/>
        <path class="cls-1" d="m11.33,53.1h-6.37c-.3,0-.61.3-.61.6s.3.6.61.6h6.37c.3,0,.61-.3.61-.6.1-.3-.2-.6-.61-.6Z"/>
        <path class="cls-1" d="m53.01,10.6h-6.27v-6.3c0-2.1-1.72-3.7-3.84-3.7H13.96c-2.12,0-3.84,1.7-3.84,3.8v6.2H3.84c-2.12,0-3.84,1.7-3.84,3.8v33.6c0,2.1,1.72,3.8,3.84,3.8h13.15c-.4.5-.61,1.2-.61,1.9,0,1.7,1.42,3.1,3.14,3.1h17.7c1.72,0,3.14-1.4,3.14-3.1,0-.7-.2-1.4-.61-1.9h13.15c2.12,0,3.84-1.7,3.84-3.8V14.4c.1-2.1-1.62-3.8-3.74-3.8ZM5.06,41.2h46.84v1.9H5.06v-1.9Zm46.73-1.2H5.06V15.6h5.06v13.1c0,2.1,1.72,3.8,3.84,3.8h28.93c2.12,0,3.84-1.7,3.84-3.8v-13.1h5.06v24.4ZM28.43,5h17.1v1.9h-17.1v-1.9Zm17.1,3.1v20.6c0,1.4-1.11,2.6-2.63,2.6H13.96c-1.42,0-2.63-1.1-2.63-2.6V8.1h34.19Zm-.1-4.4h-17v-1.9h14.47c1.21.1,2.23.8,2.53,1.9ZM13.96,1.9h13.25v5h-15.88v-2.4c0-1.5,1.21-2.6,2.63-2.6Zm25.19,51.8c0,1-.81,1.9-1.92,1.9h-17.6c-1.01,0-1.92-.8-1.92-1.9,0-1,.81-1.9,1.92-1.9h17.7c1.01.1,1.82.9,1.82,1.9Zm16.49-5.7c0,1.4-1.21,2.6-2.63,2.6H3.84c-1.42,0-2.63-1.2-2.63-2.6V14.4c0-1.4,1.21-2.6,2.63-2.6h6.27v2.5h-5.66c-.3,0-.61.3-.61.6v28.8c0,.3.3.6.61.6h48.05c.3,0,.61-.3.61-.6V15c0-.3-.3-.6-.61-.6h-5.67v-2.5h6.27c1.42,0,2.63,1.2,2.63,2.6v33.5h-.1Z"/>
        <path class="cls-1" d="m14.87,3.1c.5,0,.91.4.91.9s-.41.9-.91.9-.91-.4-.91-.9.41-.9.91-.9Z"/>
        <path class="cls-1" d="m18.01,3.1c.5,0,.91.4.91.9s-.41.9-.91.9-.91-.4-.91-.9.41-.9.91-.9Z"/>
        <path class="cls-1" d="m21.14,3.1c.5,0,.91.4.91.9s-.41.9-.91.9-.91-.4-.91-.9.41-.9.91-.9Z"/>
        <path class="cls-1" d="m50.28,0c.5,0,.91.4.91.9s-.41.9-.91.9-.91-.4-.91-.9.41-.9.91-.9Z"/>
        <path class="cls-1" d="m9.1.1c.5,0,.91.4.91.9s-.41.9-.91.9-.91-.4-.91-.9.41-.9.91-.9Z"/>
        <path class="cls-1" d="m13.86,21.2h8.9c.3,0,.61-.3.61-.6v-.9c0-2-1.21-3.8-3.03-4.6.61-.5.91-1.3.91-2.2,0-1.6-1.32-3-3.04-3-1.62,0-3.03,1.3-3.03,3,0,.9.4,1.6.91,2.2-1.82.8-3.03,2.6-3.03,4.6v.9c.2.3.51.6.81.6Zm2.73-8.2c0-1,.81-1.7,1.72-1.7,1.01,0,1.72.8,1.72,1.7,0,1-.81,1.7-1.72,1.7s-1.72-.8-1.72-1.7Zm-2.02,6.7c0-2.1,1.72-3.8,3.84-3.8s3.84,1.7,3.84,3.8v.3h-1.11v-.6c0-.3-.3-.6-.61-.6s-.61.3-.61.6v.6h-2.93v-.6c0-.3-.3-.6-.61-.6s-.61.3-.61.6v.6h-1.11v-.3h-.1Z"/>
        <path class="cls-1" d="m27.21,21.2h15.78c.3,0,.61-.3.61-.6v-3.1c0-.3-.3-.6-.61-.6h-15.78c-.3,0-.61.3-.61.6v3.1c-.1.3.2.6.61.6Zm.61-3.1h14.57v1.9h-14.57v-1.9Z"/>
        <path class="cls-1" d="m27.21,15.6h15.78c.3,0,.61-.3.61-.6v-3.1c0-.3-.3-.6-.61-.6h-15.78c-.3,0-.61.3-.61.6v3.1c-.1.3.2.6.61.6Zm.61-3.1h14.57v1.9h-14.57v-1.9Z"/>
        <path class="cls-1" d="m42.99,23.1H14.57c-.3,0-.61.3-.61.6s.3.6.61.6h28.43c.3,0,.61-.3.61-.6s-.3-.6-.61-.6Z"/>
        <path class="cls-1" d="m42.99,25.6H14.57c-.3,0-.61.3-.61.6s.3.6.61.6h28.43c.3,0,.61-.3.61-.6s-.3-.6-.61-.6Z"/>
        <path class="cls-1" d="m42.99,28.1H14.57c-.3,0-.61.3-.61.6s.3.6.61.6h28.43c.3,0,.61-.3.61-.6s-.3-.6-.61-.6Z"/>
        <path class="cls-1" d="m3.14,8.7c1.72,0,3.14-1.4,3.14-3.1s-1.42-3.1-3.14-3.1S0,3.9,0,5.6s1.42,3.1,3.14,3.1Zm0-5c1.01,0,1.92.8,1.92,1.9,0,1-.81,1.9-1.92,1.9s-1.92-.8-1.92-1.9c0-1,.91-1.9,1.92-1.9Z"/>
        <path class="cls-1" d="m53.11,8.1c1.42,0,2.53-1.1,2.53-2.5s-1.11-2.5-2.53-2.5-2.53,1.1-2.53,2.5,1.11,2.5,2.53,2.5Zm0-3.7c.71,0,1.32.6,1.32,1.3s-.61,1.3-1.32,1.3-1.32-.6-1.32-1.3c0-.8.61-1.3,1.32-1.3Z"/>
      </g>
    </g>
  </g>
</svg>