<?xml version="1.0" encoding="UTF-8"?>
<svg id="Capa_2" data-name="Capa 2" xmlns="http://www.w3.org/2000/svg" viewBox="0 0 79.17 73.79">
  <defs>
    <style>
      .cls-1 {
        stroke-width: 0px;
      }
    </style>
  </defs>
  <g id="_123" data-name="123">
    <g>
      <path class="cls-1" d="m39.59,40.23c-.1,0-.2-.02-.29-.07L.36,20.7c-.22-.11-.36-.33-.36-.58s.14-.47.36-.58L39.3.07c.18-.09.4-.09.58,0l38.93,19.47c.22.11.36.33.36.58s-.14.47-.36.58l-38.93,19.46c-.09.05-.19.07-.29.07ZM2.1,20.12l37.48,18.74,37.48-18.74L39.59,1.38,2.1,20.12Z"/>
      <path class="cls-1" d="m39.59,57.02c-.1,0-.2-.02-.29-.07L.36,37.48c-.22-.11-.36-.33-.36-.58s.14-.47.36-.58l16.78-8.38c.18-.09.4-.09.58,0l21.87,10.93,21.86-10.93c.18-.09.4-.09.58,0l16.78,8.38c.22.11.36.33.36.58s-.14.47-.36.58l-38.93,19.47c-.09.05-.19.07-.29.07ZM2.1,36.9l37.48,18.75,37.47-18.75-15.32-7.66-21.86,10.93c-.18.09-.4.09-.58,0l-21.87-10.93-15.33,7.66Z"/>
      <path class="cls-1" d="m39.59,73.79c-.1,0-.2-.02-.29-.07L.36,54.26c-.22-.11-.36-.33-.36-.58s.14-.47.36-.58l16.78-8.39c.18-.09.4-.09.58,0l21.87,10.93,21.86-10.93c.18-.09.4-.09.58,0l16.78,8.39c.22.11.36.33.36.58s-.14.47-.36.58l-38.93,19.46c-.09.05-.19.07-.29.07ZM2.1,53.68l37.48,18.74,37.48-18.74-15.33-7.67-21.86,10.93c-.18.09-.4.09-.58,0l-21.87-10.93-15.33,7.67Z"/>
      <path class="cls-1" d="m10.66,25.53c-.23,0-.46-.12-.57-.34-.17-.32-.05-.71.27-.88L47.78,4.33c.32-.17.71-.05.88.27.17.32.05.71-.27.88L10.96,25.45c-.1.05-.2.08-.3.08Z"/>
      <path class="cls-1" d="m20.08,30.42c-.24,0-.46-.13-.58-.35-.17-.32-.04-.71.28-.88L57.65,9.51c.32-.17.71-.04.88.28.16.32.04.71-.28.88L20.38,30.35c-.1.05-.2.07-.3.07Z"/>
      <path class="cls-1" d="m29.62,34.85c-.24,0-.47-.13-.58-.36-.16-.32-.03-.71.29-.87l38.48-19.29c.32-.16.71-.03.87.29.16.32.03.71-.29.87l-38.48,19.29c-.09.05-.19.07-.29.07Z"/>
    </g>
  </g>
</svg>