<?xml version="1.0" encoding="UTF-8"?>
<svg id="Capa_2" data-name="Capa 2" xmlns="http://www.w3.org/2000/svg" viewBox="0 0 19.43 19.2">
  <defs>
    <style>
      .cls-1 {
        fill: #fff;
        stroke-width: 0px;
      }
    </style>
  </defs>
  <g id="Object">
    <g>
      <g>
        <path class="cls-1" d="m19.07.1H.36C.22.1.1.22.1.36v18.47c0,.14.12.26.26.26h18.71c.14,0,.26-.12.26-.26V.36c0-.14-.12-.26-.26-.26Zm-.26.52v3.3H.62V.62h18.18ZM.62,18.57V4.44h18.18v14.13H.62Z"/>
        <path class="cls-1" d="m19.07,19.2H.36c-.2,0-.36-.16-.36-.36V.36c0-.2.16-.36.36-.36h18.71c.2,0,.36.16.36.36v18.47c0,.2-.16.36-.36.36ZM.36.2c-.09,0-.16.07-.16.16v18.47c0,.09.07.16.16.16h18.71c.09,0,.16-.07.16-.16V.36c0-.09-.07-.16-.16-.16H.36Zm18.45,18.47H.62c-.05,0-.1-.04-.1-.1V4.44c0-.05.04-.1.1-.1h18.18c.05,0,.1.04.1.1v14.13c0,.05-.04.1-.1.1Zm-18.09-.2h17.99V4.54H.72v13.93ZM18.81,4.02H.62c-.05,0-.1-.04-.1-.1V.62c0-.05.04-.1.1-.1h18.18c.05,0,.1.04.1.1v3.3c0,.05-.04.1-.1.1ZM.72,3.82h17.99V.72H.72v3.1Z"/>
      </g>
      <g>
        <path class="cls-1" d="m2.19,3.16c.48,0,.86-.39.86-.86s-.39-.86-.86-.86-.86.39-.86.86.39.86.86.86Zm0-1.2c.19,0,.34.15.34.34s-.15.34-.34.34-.34-.15-.34-.34.15-.34.34-.34Z"/>
        <path class="cls-1" d="m2.19,3.26c-.53,0-.96-.43-.96-.96s.43-.96.96-.96.96.43.96.96-.43.96-.96.96Zm0-1.72c-.42,0-.76.34-.76.76s.34.76.76.76.76-.34.76-.76-.34-.76-.76-.76Zm0,1.2c-.24,0-.44-.2-.44-.44s.2-.44.44-.44.44.2.44.44-.2.44-.44.44Zm0-.67c-.13,0-.24.11-.24.24s.11.24.24.24.24-.11.24-.24-.11-.24-.24-.24Z"/>
      </g>
      <g>
        <path class="cls-1" d="m4.37,3.16c.48,0,.86-.39.86-.86s-.39-.86-.86-.86-.86.39-.86.86.39.86.86.86Zm0-1.2c.19,0,.34.15.34.34s-.15.34-.34.34-.34-.15-.34-.34.15-.34.34-.34Z"/>
        <path class="cls-1" d="m4.37,3.26c-.53,0-.96-.43-.96-.96s.43-.96.96-.96.96.43.96.96-.43.96-.96.96Zm0-1.72c-.42,0-.76.34-.76.76s.34.76.76.76.76-.34.76-.76-.34-.76-.76-.76Zm0,1.2c-.24,0-.44-.2-.44-.44s.2-.44.44-.44.44.2.44.44-.2.44-.44.44Zm0-.67c-.13,0-.24.11-.24.24s.11.24.24.24.24-.11.24-.24-.11-.24-.24-.24Z"/>
      </g>
      <g>
        <path class="cls-1" d="m6.55,3.16c.48,0,.86-.39.86-.86s-.39-.86-.86-.86-.86.39-.86.86.39.86.86.86Zm0-1.2c.19,0,.34.15.34.34s-.15.34-.34.34-.34-.15-.34-.34.15-.34.34-.34Z"/>
        <path class="cls-1" d="m6.55,3.26c-.53,0-.96-.43-.96-.96s.43-.96.96-.96.96.43.96.96-.43.96-.96.96Zm0-1.72c-.42,0-.76.34-.76.76s.34.76.76.76.76-.34.76-.76-.34-.76-.76-.76Zm0,1.2c-.24,0-.44-.2-.44-.44s.2-.44.44-.44.44.2.44.44-.2.44-.44.44Zm0-.67c-.13,0-.24.11-.24.24s.11.24.24.24.24-.11.24-.24-.11-.24-.24-.24Z"/>
      </g>
      <g>
        <path class="cls-1" d="m6.76,8.27c-.12-.08-.28-.05-.36.08l-1.67,2.54c-.06.09-.06.2,0,.29l1.67,2.54c.05.08.13.12.22.12.05,0,.1-.01.14-.04.12-.08.15-.24.08-.36l-1.57-2.4,1.57-2.4c.08-.12.05-.28-.08-.36Z"/>
        <path class="cls-1" d="m6.62,13.94c-.12,0-.24-.06-.3-.16l-1.67-2.54c-.08-.12-.08-.27,0-.39l1.67-2.54c.05-.08.13-.14.23-.16.09-.02.19,0,.27.05h0c.08.05.14.13.16.23s0,.19-.05.27l-1.54,2.35,1.54,2.35c.05.08.07.18.05.27-.02.09-.08.17-.16.23-.06.04-.13.06-.2.06Zm0-5.61s-.02,0-.03,0c-.04,0-.08.03-.1.07l-1.67,2.54c-.04.05-.04.12,0,.18l1.67,2.54c.05.07.15.1.23.05.04-.02.06-.06.07-.1,0-.04,0-.09-.02-.12l-1.57-2.4s-.02-.08,0-.11l1.57-2.4s.03-.08.02-.12c0-.04-.03-.08-.07-.1h0s-.06-.03-.09-.03Z"/>
      </g>
      <g>
        <path class="cls-1" d="m13.07,8.35c-.08-.12-.24-.16-.36-.08-.12.08-.15.24-.08.36l1.57,2.4-1.57,2.4c-.08.12-.05.28.08.36.04.03.09.04.14.04.09,0,.17-.04.22-.12l1.67-2.54c.06-.09.06-.2,0-.29l-1.67-2.54Z"/>
        <path class="cls-1" d="m12.85,13.94c-.07,0-.14-.02-.2-.06-.08-.05-.14-.13-.16-.23-.02-.09,0-.19.05-.27l1.54-2.35-1.54-2.35c-.05-.08-.07-.18-.05-.27s.08-.18.16-.23c.08-.05.18-.07.27-.05.09.02.18.07.23.16l1.67,2.54c.08.12.08.27,0,.39l-1.67,2.54c-.07.1-.18.16-.3.16Zm0-5.61s-.06,0-.09.03c-.04.02-.06.06-.07.1,0,.04,0,.09.02.12l1.57,2.4s.02.08,0,.11l-1.57,2.4s-.03.08-.02.12c0,.04.03.08.07.1.07.05.18.03.23-.05l1.67-2.54c.04-.05.04-.12,0-.18l-1.67-2.54h0s-.06-.06-.1-.07c-.01,0-.02,0-.03,0Z"/>
      </g>
      <g>
        <path class="cls-1" d="m11.48,6.14c-.14-.05-.29.02-.34.16l-3.31,8.99c-.05.14.02.29.16.34.03.01.06.02.09.02.11,0,.21-.07.25-.17l3.31-8.99c.05-.14-.02-.29-.16-.34Z"/>
        <path class="cls-1" d="m8.08,15.73s-.08,0-.12-.02c-.19-.07-.28-.28-.21-.46l3.31-8.99c.07-.19.28-.28.46-.21h0c.19.07.28.28.21.46l-3.31,8.99c-.05.14-.19.24-.34.24Zm3.31-9.51c-.07,0-.13.04-.15.11l-3.31,8.99c-.03.08.01.18.1.21.08.03.18-.01.21-.1l3.31-8.99c.03-.08-.01-.18-.1-.21-.02,0-.04,0-.06,0Z"/>
      </g>
    </g>
  </g>
</svg>