<?xml version="1.0" encoding="UTF-8"?>
<svg id="Capa_2" data-name="Capa 2" xmlns="http://www.w3.org/2000/svg" viewBox="0 0 19.14 19.14">
  <defs>
    <style>
      .cls-1 {
        fill: #fff;
        stroke-width: 0px;
      }
    </style>
  </defs>
  <g id="Object">
    <g>
      <g>
        <path class="cls-1" d="m18.78,19.04H.36c-.14,0-.26-.12-.26-.26V.36C.1.22.22.1.36.1h18.42c.14,0,.26.12.26.26v18.42c0,.14-.12.26-.26.26Zm-18.15-.52h17.89V.62H.62v17.89Z"/>
        <path class="cls-1" d="m18.78,19.14H.36c-.2,0-.36-.16-.36-.36V.36c0-.2.16-.36.36-.36h18.42c.2,0,.36.16.36.36v18.42c0,.2-.16.36-.36.36ZM.36.2c-.09,0-.16.07-.16.16v18.42c0,.09.07.16.16.16h18.42c.09,0,.16-.07.16-.16V.36c0-.09-.07-.16-.16-.16H.36Zm18.15,18.42H.62c-.05,0-.1-.04-.1-.1V.62c0-.05.04-.1.1-.1h17.89c.05,0,.1.04.1.1v17.89c0,.05-.04.1-.1.1Zm-17.79-.2h17.69V.72H.72v17.69Z"/>
      </g>
      <g>
        <path class="cls-1" d="m4.36,6.57c-.97,0-1.75-.79-1.75-1.75s.79-1.75,1.75-1.75,1.75.79,1.75,1.75-.79,1.75-1.75,1.75Zm0-2.98c-.68,0-1.23.55-1.23,1.23s.55,1.23,1.23,1.23,1.23-.55,1.23-1.23-.55-1.23-1.23-1.23Z"/>
        <path class="cls-1" d="m4.36,6.66c-1.02,0-1.85-.83-1.85-1.85s.83-1.85,1.85-1.85,1.85.83,1.85,1.85-.83,1.85-1.85,1.85Zm0-3.51c-.91,0-1.65.74-1.65,1.65s.74,1.65,1.65,1.65,1.65-.74,1.65-1.65-.74-1.65-1.65-1.65Zm0,2.98c-.73,0-1.33-.6-1.33-1.33s.59-1.33,1.33-1.33,1.33.59,1.33,1.33-.6,1.33-1.33,1.33Zm0-2.46c-.62,0-1.13.51-1.13,1.13s.51,1.13,1.13,1.13,1.13-.51,1.13-1.13-.51-1.13-1.13-1.13Z"/>
      </g>
      <g>
        <path class="cls-1" d="m.36,13.53c-.08,0-.16-.04-.21-.11-.09-.12-.06-.28.05-.37l6.75-5.02c.09-.07.22-.07.32,0l4.53,3.45,6.52-6.86c.1-.1.27-.11.37,0,.1.1.11.27,0,.37l-6.68,7.03c-.09.1-.24.11-.35.03l-4.56-3.47L.52,13.48s-.1.05-.16.05Z"/>
        <path class="cls-1" d="m.36,13.63c-.11,0-.22-.05-.29-.15-.12-.16-.09-.39.07-.5l6.75-5.02c.13-.1.31-.09.43,0l4.46,3.39,6.46-6.79c.14-.14.37-.15.51-.01.14.14.15.37.01.51l-6.68,7.03c-.13.13-.33.15-.48.04l-4.5-3.42L.58,13.56c-.06.05-.14.07-.21.07Zm6.75-5.54s-.07.01-.1.03L.26,13.14c-.07.05-.09.16-.03.23.05.07.16.09.23.03l6.59-4.9s.08-.03.12,0l4.56,3.47c.07.05.16.04.22-.02l6.68-7.03c.06-.07.06-.17,0-.23-.06-.06-.17-.06-.23,0l-6.52,6.86s-.09.04-.13.01l-4.53-3.45s-.06-.03-.1-.03Z"/>
      </g>
    </g>
  </g>
</svg>