<?xml version="1.0" encoding="UTF-8"?>
<svg id="Capa_2" data-name="Capa 2" xmlns="http://www.w3.org/2000/svg" viewBox="0 0 58.77 56.6">
  <defs>
    <style>
      .cls-1 {
        stroke-width: 0px;
      }
    </style>
  </defs>
  <g id="_1" data-name="1">
    <g id="_617_Marketing_Remarketing_Seo_Speech" data-name="617, Marketing, Remarketing, Seo Speech">
      <g>
        <path class="cls-1" d="m15.38,50.5c.3.2.71.1.91-.2.2-.3.1-.7-.2-.9-7.28-4.4-11.63-12.1-11.63-20.6,0-10.1,6.07-19,15.58-22.7.3-.1.51-.5.4-.8-.1-.3-.51-.5-.81-.4C9.91,8.7,3.24,18,3.24,28.7c0,9.2,4.75,17.3,12.14,21.8Z"/>
        <path class="cls-1" d="m55.03,28.8c0-13.8-11.03-25.1-24.89-25.6l1.31-2.3c.2-.3,0-.7-.3-.8-.3-.2-.71-.1-.81.3-.4.7-1.72,3.2-1.82,3.3-.1.1-.1.3,0,.5,0,.1,0,0,1.82,3.1.1.2.3.3.51.3.51,0,.81-.5.51-.9l-1.21-2c13.05.6,23.57,11.3,23.57,24.3s-11.03,24.4-24.68,24.4H.61c-.3,0-.61.3-.61.6s.3.6.61.6h28.63c14.16-.2,25.8-11.7,25.8-25.8Z"/>
        <path class="cls-1" d="m58.07,53.3c-.1-.2,0-.1-2.63-2.7-.2-.2-.61-.2-.91,0-.2.2-.2.6,0,.9l1.42,1.4h-11.13c-.3,0-.61.3-.61.6s.3.6.61.6h11.13l-1.42,1.4c-.4.4-.1,1.1.4,1.1.2,0,.3-.1.4-.2.51-.5,2.53-2.5,2.53-2.5.1-.1.1-.2.1-.2h0c.2-.1.2-.2.1-.4Z"/>
        <path class="cls-1" d="m29.13,10.7c-10.12,0-18.31,8.1-18.31,18.1s8.19,18.1,18.31,18.1,18.31-8.1,18.31-18.1-8.19-18.1-18.31-18.1Zm0,35c-9.41,0-17.1-7.6-17.1-16.9s7.69-16.9,17.1-16.9,17.1,7.6,17.1,16.9-7.69,16.9-17.1,16.9Z"/>
        <path class="cls-1" d="m14.36,14.2c.2-.2.2-.6,0-.9-.2-.3-.61-.2-.91,0-8.6,8.5-8.6,22.4,0,30.9.1.1.3.2.4.2.61,0,.81-.7.4-1.1-7.99-8-7.99-21,.1-29.1Z"/>
        <path class="cls-1" d="m43.9,43.4c-.2.2-.2.6,0,.9.2.2.61.2.91,0,8.6-8.5,8.6-22.4,0-30.9-.2-.2-.61-.2-.91,0-.2.2-.2.6,0,.9,8.19,8,8.19,21,0,29.1Z"/>
        <path class="cls-1" d="m16.69,24.8c.3,0,.51-.2.61-.4,1.82-4.8,6.58-8.1,11.84-8.1.3,0,.61-.3.61-.6s-.3-.6-.61-.6c-5.87,0-11.03,3.6-13.05,8.9-.1.3.2.8.61.8Z"/>
        <path class="cls-1" d="m40.97,34.9c-.3-.2-.71-.1-.91.2-1.62,2.8-4.25,4.8-7.38,5.7-.3.1-.51.4-.4.8.1.3.4.5.81.4,3.44-1,6.37-3.2,8.19-6.3.1-.3,0-.6-.3-.8Z"/>
        <path class="cls-1" d="m32.37,14.3c-.81.4-1.31,1.3-1.11,2.1l-7.18,7.3-6.58,2.9c-.3.1-.51.5-.3.8l.4,1c-1.62.8-2.43,2.8-1.62,4.5.4.8,1.11,1.5,1.92,1.8.81.3,1.72.3,2.53,0l.51,1.2c.1.3.51.5.81.3l.51-.2.61,1.2c.1.2.3.4.61.4.2,0,.3-.1.4-.1l2.43,5.4c.3.7,1.01,1.1,1.82,1.1,1.42,0,2.33-1.5,1.82-2.7l-1.42-3.2.71-.3c.91-.4,1.42-1.5.91-2.5-.2-.5-.61-.8-1.01-1h-.81l-.3-.7.51-.2,10.12-.6c.51.8,1.62,1.2,2.53.8,1.01-.4,1.42-1.6,1.01-2.6l-7.08-15.6c-.51-1.1-1.72-1.5-2.73-1.1Zm-3.64,17.8l-3.44-7.6,6.58-6.7,6.27,13.8-9.41.5Zm-11.43.4c-.51-1.1,0-2.3,1.01-2.8l1.82,4c-1.21.4-2.43-.1-2.83-1.2Zm1.42-4.9l5.56-2.5,3.34,7.3-.61.3h0l-4.86,2.2-3.44-7.3Zm9.81,15.2c-.3.2-.81,0-.91-.3l-2.43-5.4,1.32-.6c1.01,2.2,1.21,2.8,2.43,5.4.1.3,0,.7-.4.9Zm.3-6.1l-.71.3-.51-1.1.61-.3h0s.3-.2.51,0c.4.1.61.9.1,1.1Zm-1.72-1.9l-.61.3h0s-.2.1-2.63,1.2l-.3-.7,3.24-1.4.3.6Zm13.56-2.4c-.4.2-.81,0-.91-.3l-7.08-15.6h0c-.2-.3,0-.8.3-.9.4-.2.81,0,.91.3l7.08,15.6c.2.3,0,.7-.3.9Z"/>
        <path class="cls-1" d="m24.08,28.1c.3-.1.51-.5.3-.8-.2-.3-.51-.5-.81-.3l-3.14,1.3c-.3.1-.51.5-.3.8.1.3.51.5.81.3l3.14-1.3Z"/>
        <path class="cls-1" d="m24.89,29.9c.3-.1.51-.5.3-.8-.1-.3-.51-.5-.81-.3l-3.14,1.3c-.3.1-.51.5-.3.8.1.3.51.5.81.3l3.14-1.3Z"/>
        <path class="cls-1" d="m26.1,30.9c-.1-.3-.51-.5-.81-.3l-3.14,1.4c-.3.1-.51.5-.3.8.1.3.51.5.81.3l3.14-1.4c.3-.1.4-.5.3-.8Z"/>
        <path class="cls-1" d="m4.96,7.9c1.42,0,2.53-1.1,2.53-2.5s-1.11-2.5-2.53-2.5-2.53,1.1-2.53,2.5,1.21,2.5,2.53,2.5Zm0-3.7c.71,0,1.31.6,1.31,1.3s-.61,1.3-1.31,1.3-1.31-.6-1.31-1.3c.1-.8.61-1.3,1.31-1.3Z"/>
        <path class="cls-1" d="m54.32,9.8c2.43,0,4.45-2,4.45-4.4s-2.02-4.4-4.45-4.4-4.45,2-4.45,4.4,2.02,4.4,4.45,4.4Zm0-7.5c1.72,0,3.14,1.4,3.14,3.1s-1.42,3.1-3.14,3.1-3.14-1.4-3.14-3.1,1.42-3.1,3.14-3.1Z"/>
        <path class="cls-1" d="m1.21,47.9c0,1.4,1.11,2.5,2.53,2.5s2.53-1.1,2.53-2.5-1.11-2.5-2.53-2.5-2.53,1.1-2.53,2.5Zm3.74,0c0,.7-.61,1.3-1.31,1.3s-1.32-.6-1.32-1.3.61-1.3,1.32-1.3,1.31.6,1.31,1.3Z"/>
        <path class="cls-1" d="m43.3,1.7c.5,0,.91.4.91.9s-.41.9-.91.9-.91-.4-.91-.9.41-.9.91-.9Z"/>
        <path class="cls-1" d="m56.55,14.8c.5,0,.91.4.91.9s-.41.9-.91.9-.91-.4-.91-.9.41-.9.91-.9Z"/>
        <path class="cls-1" d="m54.63,41.7c.5,0,.91.4.91.9s-.41.9-.91.9-.91-.4-.91-.9.41-.9.91-.9Z"/>
        <path class="cls-1" d="m1.52,39.8c.5,0,.91.4.91.9s-.41.9-.91.9-.91-.4-.91-.9.41-.9.91-.9Z"/>
        <path class="cls-1" d="m14.16,1.7c.5,0,.91.4.91.9s-.41.9-.91.9-.91-.4-.91-.9.41-.9.91-.9Z"/>
        <path class="cls-1" d="m2.12,13.6c.5,0,.91.4.91.9s-.41.9-.91.9-.91-.4-.91-.9.41-.9.91-.9Z"/>
      </g>
    </g>
  </g>
</svg>