<?xml version="1.0" encoding="UTF-8"?>
<svg id="Capa_2" data-name="Capa 2" xmlns="http://www.w3.org/2000/svg" viewBox="0 0 19.17 19.03">
  <defs>
    <style>
      .cls-1 {
        fill: #fff;
        stroke-width: 0px;
      }
    </style>
  </defs>
  <g id="Object">
    <g>
      <g>
        <path class="cls-1" d="m8.68,18.93C3.95,18.93.1,15.08.1,10.35S3.95,1.76,8.68,1.76v.52C4.24,2.29.62,5.9.62,10.35s3.62,8.06,8.06,8.06,8.06-3.62,8.06-8.06h.52c0,4.73-3.85,8.58-8.59,8.58Z"/>
        <path class="cls-1" d="m8.68,19.03C3.9,19.03,0,15.13,0,10.35S3.9,1.66,8.68,1.66c.05,0,.1.04.1.1v.52c0,.05-.04.1-.1.1C4.29,2.38.72,5.96.72,10.35s3.57,7.96,7.96,7.96,7.96-3.57,7.96-7.96c0-.05.04-.1.1-.1h.52c.05,0,.1.04.1.1,0,4.79-3.9,8.68-8.68,8.68Zm-.1-17.17C3.95,1.91.2,5.7.2,10.35s3.81,8.49,8.49,8.49,8.43-3.75,8.49-8.39h-.33c-.05,4.45-3.69,8.06-8.16,8.06S.52,14.84.52,10.35,4.13,2.24,8.58,2.19v-.33Z"/>
      </g>
      <g>
        <path class="cls-1" d="m19.07,10.75h-10.65V.1h.26c2.78,0,5.39,1.08,7.35,3.04s3.04,4.57,3.04,7.35v.26Zm-10.13-.52h9.6c-.07-2.54-1.09-4.91-2.89-6.72-1.8-1.8-4.18-2.82-6.72-2.89v9.6Z"/>
        <path class="cls-1" d="m19.08,10.85h-10.65c-.05,0-.1-.04-.1-.1V.1c0-.05.04-.1.1-.1h.26c2.8,0,5.44,1.09,7.42,3.07,1.98,1.98,3.07,4.62,3.07,7.42v.26c0,.05-.04.1-.1.1Zm-10.56-.2h10.46v-.16c0-2.75-1.07-5.33-3.02-7.28C14.02,1.27,11.43.2,8.68.2h-.16v10.46Zm10.03-.33h-9.6c-.05,0-.1-.04-.1-.1V.63s.01-.05.03-.07c.02-.02.04-.03.07-.03,2.56.07,4.97,1.1,6.78,2.92,1.81,1.81,2.85,4.22,2.92,6.78,0,.03,0,.05-.03.07-.02.02-.04.03-.07.03Zm-9.5-.2h9.4c-.09-2.47-1.1-4.79-2.86-6.55-1.75-1.75-4.08-2.77-6.55-2.85v9.4Z"/>
      </g>
    </g>
  </g>
</svg>