<?xml version="1.0" encoding="UTF-8"?>
<svg id="Capa_2" data-name="Capa 2" xmlns="http://www.w3.org/2000/svg" viewBox="0 0 19.43 19.2">
  <defs>
    <style>
      .cls-1 {
        fill: #fff;
        stroke-width: 0px;
      }
    </style>
  </defs>
  <g id="Object">
    <g>
      <g>
        <path class="cls-1" d="m19.07,19.1H.36c-.14,0-.26-.12-.26-.26V2.36c0-.14.12-.26.26-.26h18.71c.14,0,.26.12.26.26v16.48c0,.14-.12.26-.26.26Zm-18.45-.52h18.18V2.62H.62v15.95Z"/>
        <path class="cls-1" d="m19.07,19.2H.36c-.2,0-.36-.16-.36-.36V2.36c0-.2.16-.36.36-.36h18.71c.2,0,.36.16.36.36v16.48c0,.2-.16.36-.36.36ZM.36,2.19c-.09,0-.16.07-.16.16v16.48c0,.09.07.16.16.16h18.71c.09,0,.16-.07.16-.16V2.36c0-.09-.07-.16-.16-.16H.36Zm18.45,16.48H.62c-.05,0-.1-.04-.1-.1V2.62c0-.05.04-.1.1-.1h18.18c.05,0,.1.04.1.1v15.95c0,.05-.04.1-.1.1Zm-18.09-.2h17.99V2.72H.72v15.76Z"/>
      </g>
      <g>
        <path class="cls-1" d="m14.45,4.03c-.14,0-.26-.12-.26-.26V.36c0-.14.12-.26.26-.26s.26.12.26.26v3.41c0,.14-.12.26-.26.26Z"/>
        <path class="cls-1" d="m14.45,4.13c-.2,0-.36-.16-.36-.36V.36c0-.2.16-.36.36-.36s.36.16.36.36v3.41c0,.2-.16.36-.36.36Zm0-3.93c-.09,0-.16.07-.16.16v3.41c0,.09.07.16.16.16s.16-.07.16-.16V.36c0-.09-.07-.16-.16-.16Z"/>
      </g>
      <g>
        <path class="cls-1" d="m4.84,4.03c-.14,0-.26-.12-.26-.26V.36c0-.14.12-.26.26-.26s.26.12.26.26v3.41c0,.14-.12.26-.26.26Z"/>
        <path class="cls-1" d="m4.84,4.13c-.2,0-.36-.16-.36-.36V.36c0-.2.16-.36.36-.36s.36.16.36.36v3.41c0,.2-.16.36-.36.36ZM4.84.2c-.09,0-.16.07-.16.16v3.41c0,.09.07.16.16.16s.16-.07.16-.16V.36c0-.09-.07-.16-.16-.16Z"/>
      </g>
      <g>
        <g>
          <path class="cls-1" d="m5.08,14.2v-.37c.12-.1.3-.26.53-.46.24-.2.42-.36.54-.47.12-.11.29-.25.48-.44.2-.18.35-.34.47-.46.11-.12.24-.27.37-.43.14-.17.24-.32.31-.45.17-.33.25-.65.25-.96s-.09-.58-.28-.8c-.19-.22-.48-.33-.89-.33s-.71.12-.93.36c-.21.24-.33.56-.35.95h-.51c.03-.57.2-1.01.52-1.32.32-.31.74-.47,1.25-.47s.92.14,1.24.43c.32.29.47.69.47,1.21,0,.23-.05.46-.14.71-.09.25-.2.46-.32.64-.12.18-.29.4-.51.64-.22.24-.4.42-.54.55-.14.13-.34.31-.6.54-.26.23-.43.38-.5.45h2.8v.47h-3.66Z"/>
          <path class="cls-1" d="m8.74,14.3h-3.66c-.05,0-.1-.04-.1-.1v-.37s.01-.06.03-.07c.12-.1.3-.26.53-.46.24-.2.41-.36.54-.47.12-.11.28-.25.48-.44.19-.18.35-.33.46-.45.11-.12.23-.26.37-.43.13-.16.24-.31.3-.44.16-.31.24-.62.24-.91s-.08-.53-.26-.74c-.17-.2-.44-.3-.81-.3s-.66.11-.85.33c-.2.23-.31.53-.33.89,0,.05-.05.09-.1.09h-.51s-.05-.01-.07-.03c-.02-.02-.03-.05-.03-.07.03-.59.21-1.06.55-1.39.34-.33.78-.49,1.31-.49s.97.15,1.3.46c.34.31.51.74.51,1.29,0,.24-.05.49-.15.74-.09.25-.2.47-.33.66-.12.19-.3.41-.52.65-.22.24-.41.43-.54.56-.14.13-.34.31-.6.54-.13.11-.23.2-.31.27h2.55c.05,0,.1.04.1.1v.47c0,.05-.04.1-.1.1Zm-3.57-.2h3.47v-.27h-2.7s-.08-.02-.09-.06c-.01-.04,0-.08.02-.11.07-.07.24-.22.51-.45.26-.23.46-.41.6-.53.14-.13.32-.31.53-.55.22-.23.39-.44.5-.62.12-.18.22-.39.31-.63.09-.23.13-.46.13-.68,0-.49-.15-.88-.44-1.14-.3-.27-.69-.41-1.17-.41s-.88.15-1.18.44c-.28.27-.44.66-.48,1.15h.32c.03-.37.16-.68.37-.92.23-.26.57-.4,1-.4s.76.12.96.36c.2.24.3.53.3.86s-.09.66-.26,1c-.08.14-.18.3-.33.47-.14.17-.27.32-.38.44-.11.13-.27.28-.47.46-.2.18-.36.33-.49.44-.12.11-.3.26-.54.47-.21.18-.38.33-.5.43v.23Z"/>
        </g>
        <g>
          <path class="cls-1" d="m10.75,8.85c.33-.25.75-.37,1.25-.37s.9.14,1.2.41c.3.27.45.62.45,1.04,0,.3-.09.56-.26.79-.17.23-.4.39-.69.48v.04c.33.08.59.26.78.52.19.26.28.61.28,1.03s-.15.78-.46,1.08c-.31.3-.73.44-1.27.44s-.98-.14-1.32-.41c-.34-.27-.54-.65-.59-1.14h.5c.04.31.18.57.42.77.25.2.57.31.97.31s.71-.11.92-.32c.21-.21.32-.49.32-.83,0-.45-.14-.77-.43-.96-.29-.19-.72-.28-1.29-.28h-.17v-.46h.18c1.07,0,1.61-.34,1.61-1.02,0-.32-.1-.57-.3-.75-.2-.19-.49-.28-.86-.28s-.66.08-.88.24c-.22.16-.35.38-.4.68h-.52c.05-.43.24-.77.57-1.01Z"/>
          <path class="cls-1" d="m12.02,14.41c-.56,0-1.03-.14-1.38-.43-.36-.29-.57-.69-.63-1.2,0-.03,0-.06.02-.08.02-.02.05-.03.07-.03h.5s.09.04.1.09c.03.29.16.52.39.71.23.19.53.28.91.28s.66-.1.85-.29c.2-.19.29-.44.29-.76,0-.42-.13-.71-.39-.88-.27-.18-.69-.27-1.24-.27h-.17c-.05,0-.1-.04-.1-.1v-.46c0-.05.04-.1.1-.1h.18c1.01,0,1.51-.31,1.51-.92,0-.29-.09-.51-.27-.68-.18-.17-.45-.25-.79-.25s-.63.07-.83.22c-.2.14-.32.34-.36.61,0,.05-.05.08-.1.08h-.52s-.05-.01-.07-.03c-.02-.02-.03-.05-.02-.08.05-.46.26-.82.61-1.08h0c.35-.26.79-.39,1.31-.39s.95.15,1.27.43c.32.29.48.66.48,1.11,0,.32-.09.6-.28.85-.14.19-.32.34-.53.44.25.1.46.27.62.49.2.28.3.65.3,1.09s-.16.84-.49,1.15c-.32.31-.77.47-1.34.47Zm-1.8-1.54c.06.41.24.73.54.96.32.26.75.39,1.26.39s.92-.14,1.2-.41c.29-.28.43-.61.43-1.01s-.09-.73-.26-.98c-.17-.25-.41-.4-.72-.48-.04-.01-.07-.05-.07-.1v-.04s.03-.08.07-.09c.27-.08.48-.23.64-.45.16-.22.24-.46.24-.73,0-.39-.14-.71-.41-.96-.28-.25-.66-.38-1.13-.38s-.88.12-1.19.35h0c-.28.21-.45.48-.52.84h.32c.06-.28.2-.5.42-.66.24-.17.55-.26.94-.26s.7.1.92.31c.22.2.33.48.33.83,0,.73-.57,1.11-1.7,1.12h-.08v.26h.07c.59,0,1.04.1,1.35.3.32.21.47.56.47,1.04,0,.37-.12.67-.35.9-.23.23-.57.35-.99.35s-.77-.11-1.03-.33c-.24-.2-.39-.45-.44-.75h-.31Z"/>
        </g>
      </g>
      <g>
        <path class="cls-1" d="m19.07,5.21H.55c-.14,0-.26-.12-.26-.26s.12-.26.26-.26h18.52c.14,0,.26.12.26.26s-.12.26-.26.26Z"/>
        <path class="cls-1" d="m19.07,5.31H.55c-.2,0-.36-.16-.36-.36s.16-.36.36-.36h18.52c.2,0,.36.16.36.36s-.16.36-.36.36ZM.55,4.78c-.09,0-.16.07-.16.16s.07.16.16.16h18.52c.09,0,.16-.07.16-.16s-.07-.16-.16-.16H.55Z"/>
      </g>
    </g>
  </g>
</svg>