<?xml version="1.0" encoding="UTF-8"?>
<svg id="Capa_2" data-name="Capa 2" xmlns="http://www.w3.org/2000/svg" xmlns:xlink="http://www.w3.org/1999/xlink" viewBox="0 0 130.99 176.53">
  <defs>
    <style>
      .cls-1 {
        letter-spacing: .19em;
      }

      .cls-2, .cls-3, .cls-4 {
        stroke-width: 0px;
      }

      .cls-2, .cls-5 {
        fill: none;
      }

      .cls-3 {
        fill: #232323;
      }

      .cls-4 {
        fill-rule: evenodd;
      }

      .cls-4, .cls-6, .cls-7 {
        fill: #fff;
      }

      .cls-8 {
        clip-path: url(#clippath);
      }

      .cls-6 {
        font-family: Montserrat-Black, Montserrat;
        font-size: 35.99px;
        font-weight: 800;
      }

      .cls-7 {
        font-family: Montserrat-SemiBold, Montserrat;
        font-size: 14.29px;
        font-weight: 600;
      }

      .cls-9 {
        letter-spacing: -.01em;
      }

      .cls-5 {
        stroke: #fff;
        stroke-miterlimit: 10;
        stroke-width: 2.08px;
      }

      .cls-10 {
        letter-spacing: .2em;
      }
    </style>
    <clipPath id="clippath">
      <rect class="cls-2" y="0" width="130.99" height="176.53" rx="11.15" ry="11.15"/>
    </clipPath>
  </defs>
  <g id="OBJECTS">
    <g>
      <rect class="cls-3" y="0" width="130.99" height="176.53" rx="11.15" ry="11.15"/>
      <rect class="cls-5" x="8.21" y="7.77" width="114.57" height="160.99" rx="3.9" ry="3.9"/>
      <text class="cls-6" transform="translate(26.05 86.43)"><tspan x="0" y="0">C</tspan><tspan class="cls-9" x="26.52" y="0">L</tspan><tspan x="48.37" y="0">O</tspan><tspan x=".65" y="31.36">SED</tspan></text>
      <text class="cls-7" transform="translate(28.12 40.2)"><tspan class="cls-10" x="0" y="0">C</tspan><tspan class="cls-1" x="13.11" y="0">L</tspan><tspan class="cls-10" x="24.34" y="0">OSED</tspan></text>
      <text class="cls-7" transform="translate(28.12 146.89)"><tspan class="cls-10" x="0" y="0">C</tspan><tspan class="cls-1" x="13.11" y="0">L</tspan><tspan class="cls-10" x="24.34" y="0">OSED</tspan></text>
      <g class="cls-8">
        <g>
          <path class="cls-4" d="m125.57,19.24c.2.15,1.12-.25.72-.52-.2-.14-1.12.25-.72.52Z"/>
          <path class="cls-4" d="m85.37,10.88c.66-.92,1.78-1.52,2.21-2.6-1.48.04-4.26,1.8-2.21,2.6Z"/>
          <path class="cls-4" d="m104.54,8.28c-.2-.14-1.13.25-.73.52.2.14,1.12-.25.73-.52Z"/>
          <path class="cls-4" d="m117.07,30.67c-.2-.14-1.11.25-.74.52.22.15,1.12-.25.74-.52Z"/>
          <path class="cls-4" d="m33.28,20.03h1.47v-1.04h-1.47v1.04Z"/>
          <path class="cls-4" d="m129.05,60.51c.21.15,1.12-.25.74-.52-.2-.14-1.12.25-.74.52Z"/>
          <path class="cls-4" d="m113.31,94.5c-1.17.78-.83,2.33,1.47,2.08.2-1.19-.18-1.96-1.47-2.08Z"/>
          <path class="cls-4" d="m119.21,98.15c-.04.32-.11.62-.73.53v1.04c1.81.82,2.17-1.77.73-1.56Z"/>
          <path class="cls-4" d="m125.36,73.54c-.2-.15-1.12.25-.74.52.21.14,1.13-.25.74-.52Z"/>
          <path class="cls-4" d="m103.07,24.43c-.78,1.32,2.49,2.31,2.96,1.04-1.17-.22-.64-1.64-2.96-1.04Z"/>
          <path class="cls-4" d="m8.66,24.95c-.57.12-1.45.02-1.47.53.57-.12,1.46-.02,1.47-.53Z"/>
          <path class="cls-4" d="m14.56,27.04c.03.72-.35,1.14-.74,1.56h2.21c-.06-.83.1-1.81-1.47-1.56Z"/>
          <path class="cls-4" d="m10.87,27.56v1.56h2.21c.13-1.14-.6-1.66-2.21-1.56Z"/>
          <path class="cls-4" d="m13.09,29.64c0,.52-.6.61-.74,1.05.74,0,.88.42,1.47.52,0-.52.6-.62.74-1.04-.74,0-.88-.42-1.47-.52Z"/>
          <path class="cls-4" d="m67.35-.7c-.15,1.49-.1,2.84,2.2,2.61-.02-.72.35-1.15.74-1.56-1.46-.01-.94-1.42-2.94-1.05Z"/>
          <path class="cls-4" d="m125.19,32.77c1.02-.02,1.62.24,2.22.52.34-1.62-1.99-1.96-2.22-.52Z"/>
          <path class="cls-4" d="m46.69,3.99c0,.29.59.59.73,0,0-.29-.59-.59-.73,0Z"/>
          <path class="cls-4" d="m36.36,4.51c0,.29.6.59.74,0,0-.29-.59-.6-.74,0Z"/>
          <path class="cls-4" d="m100.11,34.33c-.19-.15-1.11.25-.74.52.21.14,1.12-.25.74-.52Z"/>
          <path class="cls-4" d="m26.04,5.03c-.2-.14-1.12.25-.74.52.21.14,1.12-.25.74-.52Z"/>
          <path class="cls-4" d="m59.55,37.97c.58-.11,1.46-.01,1.48-.52-.57.11-1.46,0-1.48.52Z"/>
          <path class="cls-4" d="m122.24,37.97c0,.29.61.6.74,0,0-.28-.59-.59-.74,0Z"/>
          <path class="cls-4" d="m14.56,39.54c2.15.77,2.15-2.33,0-1.56v1.56Z"/>
          <path class="cls-4" d="m39.64,39.01h-2.21c.11.62-.13,1.48.74,1.57.06-.82,1.88-.41,1.48-1.57Z"/>
          <path class="cls-4" d="m128.88,40.06v1.57c1.1-.09,2.72.19,2.95-.52-1.46-.01-.93-1.42-2.95-1.04Z"/>
          <path class="cls-4" d="m84.63,42.67c-.8-1.17-2-2.07-4.43-2.09v2.61c1.3-.3,4.33.62,4.43-.52Z"/>
          <path class="cls-4" d="m16.77,41.62c.2.14,1.13-.25.74-.52-.2-.15-1.12.25-.74.52Z"/>
          <path class="cls-4" d="m39.64,42.67c.2.14,1.11-.25.73-.53-.2-.14-1.12.25-.73.53Z"/>
          <path class="cls-4" d="m18.99,44.74c.21.15,1.12-.25.74-.52-.2-.14-1.12.25-.74.52Z"/>
          <path class="cls-4" d="m81.68,46.83c.2.14,1.12-.25.73-.52-.21-.15-1.12.25-.73.52Z"/>
          <path class="cls-4" d="m-.93,47.35v1.56H1.29c.13-1.14-.6-1.66-2.22-1.56Z"/>
          <path class="cls-4" d="m85.37,47.87v1.04c.73,0,.87.42,1.48.52-.08-.82.09-1.81-1.48-1.56Z"/>
          <path class="cls-4" d="m111.92,47.87c-.57.12-1.45.02-1.47.52.57-.12,1.45-.02,1.47-.52Z"/>
          <path class="cls-4" d="m38.16,48.4c-1.27-.03-1.9.4-2.22,1.04,1.26.03,1.89-.4,2.22-1.04Z"/>
          <path class="cls-4" d="m110.44,53.08c-.2-.14-1.11.25-.74.52.21.14,1.12-.25.74-.52Z"/>
          <path class="cls-4" d="m116.51,103.23c-.21-.14-1.12.25-.74.52.2.15,1.12-.25.74-.52Z"/>
          <path class="cls-4" d="m55.86,54.12c-.47,1.27,3.52,1.96,3.68,1.04-1.4-.22-1.33-1.49-3.68-1.04Z"/>
          <path class="cls-4" d="m49.18,43.92h2.21c.1-.94-.73-1.22-2.21-1.05v1.05Z"/>
          <path class="cls-4" d="m18.24,56.73c-.24,2.57,4.09,1.36,3.69-.52-2.08-.43-1.91.74-3.69.52Z"/>
          <path class="cls-4" d="m63.2,44.96c.21.15,1.12-.25.73-.52-.2-.15-1.12.25-.73.52Z"/>
          <path class="cls-4" d="m21.94,59.33c.2.15,1.11-.25.74-.52-.2-.15-1.12.25-.74.52Z"/>
          <path class="cls-4" d="m89.05,59.33c0-.29-.59-.58-.73,0,0,.3.59.6.73,0Z"/>
          <path class="cls-4" d="m73.52,48.61c.2.14,1.12-.25.73-.52-.21-.14-1.12.25-.73.52Z"/>
          <path class="cls-4" d="m.54,61.42c.12.62-.13,1.48.74,1.56.03-.32.11-.62.73-.52-.09-.64-.22-1.23-1.48-1.04Z"/>
          <path class="cls-4" d="m7.92,61.94c.57-.11,1.46-.02,1.47-.52-.57.12-1.46.01-1.47.52Z"/>
          <path class="cls-4" d="m10.87,64.02c1.67.15,2.77-.12,2.94-1.04-1.05-.13-1.24-.86-2.21-1.04-.23.7-1.05,1-.74,2.09Z"/>
          <path class="cls-4" d="m54.39,64.54c-.07.82-1.88.41-1.47,1.57,1.33.44,2.02,1.34,3.68,1.56.04-1.59-.66-2.66-2.21-3.13Z"/>
          <path class="cls-4" d="m32.26,67.15c.21.14,1.11-.25.73-.52-.2-.14-1.11.25-.73.52Z"/>
          <path class="cls-4" d="m61.03,67.67h1.48v-1.04h-1.48v1.04Z"/>
          <path class="cls-4" d="m84.63,69.75c.57-.11,1.45-.02,1.47-.52-.57.11-1.45.01-1.47.52Z"/>
          <path class="cls-4" d="m65.41,59.02c.2.14,1.12-.25.74-.52-.21-.15-1.13.25-.74.52Z"/>
          <path class="cls-4" d="m57.34,74.44c.15.63.81.32,1.47,0,0-.53-1.29-.65-1.47,0Z"/>
          <path class="cls-4" d="m55.13,77.05c-.51,1.4,1.53,1.01,2.22,1.57.44-1.36-.3-1.88-2.22-1.57Z"/>
          <path class="cls-4" d="m37.43,78.61c.2.14,1.12-.26.74-.52-.21-.15-1.12.25-.74.52Z"/>
          <path class="cls-4" d="m71.36,80.69c-2.25,1.76,2.72,1.58,0,0h0Z"/>
          <path class="cls-4" d="m9.4,83.82c.2.14,1.12-.25.74-.52-.21-.14-1.12.25-.74.52Z"/>
          <path class="cls-4" d="m83.15,84.33c-.74,0-.87-.42-1.47-.51,0,.52-.6.62-.74,1.04.75,0,.89.43,1.48.52,0-.52.6-.62.74-1.04Z"/>
          <path class="cls-4" d="m9.4,84.86c0,.29.6.59.74,0,0-.29-.59-.59-.74,0Z"/>
          <path class="cls-4" d="m-.19,94.76c-.02.29.59.59.73,0,0-.29-.6-.58-.73,0Z"/>
          <path class="cls-4" d="m67.66,95.8c-.04.67-.94.72-.74,1.56h1.48c.83-.75.8-1.27-.74-1.56Z"/>
          <path class="cls-4" d="m111.18,97.88c-.21-.14-1.12.25-.74.52.2.14,1.12-.25.74-.52Z"/>
          <path class="cls-4" d="m8.27,97.29c-.14,1.5-.09,2.84,2.22,2.6.22-.7,1.04-.99.73-2.08-1-.16-1.42-.74-2.95-.52Z"/>
          <path class="cls-4" d="m87.59,85.11h-1.47v1.04h1.47v-1.04Z"/>
          <path class="cls-4" d="m26.36,105.18c.57-.12,1.46-.01,1.48-.51-.57.11-1.45,0-1.48.51Z"/>
          <path class="cls-4" d="m14.56,106.22c.87-.08,2.09.08,2.21-.52-.86.08-2.09-.09-2.21.52Z"/>
          <path class="cls-4" d="m24.88,106.22c.2.15,1.12-.25.74-.52-.2-.14-1.12.25-.74.52Z"/>
          <path class="cls-4" d="m58.36,97.38c.2.15,1.11-.25.73-.52-.2-.14-1.12.25-.73.52Z"/>
          <path class="cls-4" d="m5.05,136.18c-.2,1.19.18,1.96,1.48,2.08.93-.61.59-2.16-1.48-2.08Z"/>
          <path class="cls-4" d="m86.86,96.57c.49,1.94-2.05,3.06,1.47,3.12-.45-1.07,1.19-3.62-1.47-3.12Z"/>
          <path class="cls-4" d="m103.82,97.61c.2.14,1.12-.25.74-.52-.2-.14-1.11.25-.74.52Z"/>
          <path class="cls-4" d="m30.32,100.5c.2.14,1.13-.25.74-.52-.2-.14-1.12.25-.74.52Z"/>
          <path class="cls-4" d="m110.45,98.65c-.23.7-1.05.99-.73,2.08h2.95c.13-1.3-1.13-1.63-2.22-2.08Z"/>
          <path class="cls-4" d="m46.27,115.59c-2.01.84,1.09,1.75,1.48.52-.74,0-.87-.42-1.48-.52Z"/>
          <path class="cls-4" d="m123.72,115.59c-.57.12-1.45.01-1.48.52.57-.12,1.45-.01,1.48-.52Z"/>
          <path class="cls-4" d="m36.97,102.07c.11-.54-.57-1.35-.74-.52-.11.55.57,1.35.74.52Z"/>
          <path class="cls-4" d="m116.35,119.76c.2.15,1.11-.25.73-.52-.21-.15-1.13.25-.73.52Z"/>
          <path class="cls-4" d="m111.18,120.28c.2.15,1.12-.25.73-.52-.21-.14-1.12.25-.73.52Z"/>
          <path class="cls-4" d="m124.47,103.34c-1.28-.04-2.29.12-2.95.52-.23,1.37,1.02,1.71,2.95,1.57v-2.09Z"/>
          <path class="cls-4" d="m69.14,120.28v1.04h2.22c.09-.93-.74-1.22-2.22-1.04Z"/>
          <path class="cls-4" d="m77.99,120.8c-3.46-.17-1.97,2.41,0,2.61,1.38-.99-.44-.95,0-2.61Z"/>
          <path class="cls-4" d="m87.58,121.85c.57-.12,1.46-.02,1.47-.52-.57.12-1.45.02-1.47.52Z"/>
          <path class="cls-4" d="m20.75,149.12c-.04.31-.11.61-.74.52v1.04c1.82.81,2.17-1.77.74-1.56Z"/>
          <path class="cls-4" d="m51.72,108.32c-.74,0-.88-.42-1.48-.52-2.01.84,1.09,1.75,1.48.52Z"/>
          <path class="cls-4" d="m15.29,123.41c.21.14,1.12-.25.74-.52-.2-.14-1.12.25-.74.52Z"/>
          <path class="cls-4" d="m42.12,109.36c.58-.11,1.47-.01,1.48-.52-.57.12-1.45.01-1.48.52Z"/>
          <path class="cls-4" d="m52.18,124.45c.2.14,1.12-.25.74-.52-.21-.14-1.12.25-.74.52Z"/>
          <path class="cls-4" d="m88.31,124.97c.21.15,1.12-.25.73-.52-.2-.15-1.1.25-.73.52Z"/>
          <path class="cls-4" d="m125.93,124.97c.83-.05,1.15.76,1.48,0-.01-.52-1.3-.65-1.48,0Z"/>
          <path class="cls-4" d="m118.55,126.01h1.48v-1.04h-1.48v1.04Z"/>
          <path class="cls-4" d="m111.92,110.11c.83-.05,1.15.76,1.48,0,0-.52-1.29-.66-1.48,0Z"/>
          <path class="cls-4" d="m13.62,146.26c0,.28.61.58.75,0,0-.29-.59-.59-.75,0Z"/>
          <path class="cls-4" d="m19.28,96.56c-.21-.14-1.12.25-.74.52.21.15,1.12-.25.74-.52Z"/>
          <path class="cls-4" d="m15.29,128.09c0-.28-.59-.59-.73,0,0,.29.6.59.73,0Z"/>
          <path class="cls-4" d="m82.41,128.09c0,.29.6.59.74,0,.01-.28-.59-.59-.74,0Z"/>
          <path class="cls-4" d="m124.47,111.67c.57-.12,1.46-.01,1.47-.52-.57.11-1.45.02-1.47.52Z"/>
          <path class="cls-4" d="m19.28,98.12c.01.52-.6.62-.74,1.04,1.17-.05,2.56.07,2.22-1.04h-1.48Z"/>
          <path class="cls-4" d="m14.56,130.18c.2.14,1.12-.25.73-.52-.2-.15-1.11.25-.73.52Z"/>
          <path class="cls-4" d="m83.15,129.66c-.19-.15-1.12.25-.74.52.22.14,1.13-.25.74-.52Z"/>
          <path class="cls-4" d="m41.39,116.13c1.42.21.58,2.02,2.95,1.56,2-.82-1.82-3.11-2.95-1.56Z"/>
          <path class="cls-4" d="m36.23,117.69c.2.15,1.12-.25.74-.52-.2-.14-1.13.25-.74.52Z"/>
          <path class="cls-4" d="m53.65,132.79c-.98-.68-2.74-.69-2.96.52.98.68,2.75.69,2.96-.52Z"/>
          <path class="cls-4" d="m45.08,118.73c.2.15,1.12-.25.74-.52-.2-.15-1.12.25-.74.52Z"/>
          <path class="cls-4" d="m47.75,136.43c.21.15,1.12-.25.73-.52-.2-.14-1.12.25-.73.52Z"/>
          <path class="cls-4" d="m20.27,155.63c.57-.12,1.45-.01,1.47-.52-.57.11-1.45.01-1.47.52Z"/>
          <path class="cls-4" d="m94.96,119.49c-.2-.14-1.11.25-.73.52.19.15,1.12-.25.73-.52Z"/>
          <path class="cls-4" d="m6.01,108.02h1.48v-2.08h-1.48v2.08Z"/>
          <path class="cls-4" d="m130.36,139.03c-.77,3.02,3.2.22,0,0h0Z"/>
          <path class="cls-4" d="m54.39,139.56h-1.47c-.05.67-.95.72-.74,1.56h2.21v-1.56Z"/>
          <path class="cls-4" d="m95.31,79.81c0,.29.59.59.73,0,0-.29-.59-.59-.73,0Z"/>
          <path class="cls-4" d="m105.29,126.26c.2.14,1.12-.25.75-.52-.22-.15-1.13.25-.75.52Z"/>
          <path class="cls-4" d="m107.51,126.78c.2.14,1.12-.25.74-.52-.21-.15-1.12.25-.74.52Z"/>
          <path class="cls-4" d="m45.54,144.77c0,.29.59.59.73,0,0-.29-.59-.59-.73,0Z"/>
          <path class="cls-4" d="m34.01,130.72c.2.14,1.12-.25.74-.52-.2-.15-1.12.25-.74.52Z"/>
          <path class="cls-4" d="m54.39,146.85c-.2-.14-1.12.25-.74.52.2.14,1.12-.25.74-.52Z"/>
          <path class="cls-4" d="m118.57,130.95v1.04h2.21c.1-.94-.73-1.22-2.21-1.04Z"/>
          <path class="cls-4" d="m71.36,148.93c-.94-.03-1.03-.66-2.22-.52-1.14,1.28,2.51,1.53,2.22.52Z"/>
          <path class="cls-4" d="m103.08,133.03c-.45.02-.88.08-.73.51,1.21.01.41,1.45,1.47,1.57,1.29-1.06-.54-1.02.74-2.08h-1.48Z"/>
          <path class="cls-4" d="m92.75,133.55h-2.21c-.21,1.19.17,1.96,1.48,2.09.23-.71,1.05-.99.73-2.09Z"/>
          <path class="cls-4" d="m15.85,170.21c-.01.29.59.59.74,0,0-.29-.61-.59-.74,0Z"/>
          <path class="cls-4" d="m93.49,135.64c.21.14,1.13-.25.75-.52-.22-.14-1.12.25-.75.52Z"/>
          <path class="cls-4" d="m98.64,154.15c.2.14,1.12-.25.73-.52-.19-.14-1.12.25-.73.52Z"/>
          <path class="cls-4" d="m102.33,156.23v-2.08h-2.21c-.19,1.36-.24,2.6,2.21,2.08Z"/>
          <path class="cls-4" d="m122.98,155.19c.2.14,1.13-.25.74-.52-.2-.15-1.12.25-.74.52Z"/>
          <path class="cls-4" d="m42.94,92.83c0,.29.61.59.74,0,0-.29-.6-.6-.74,0Z"/>
          <path class="cls-4" d="m38.22,161.93c.99.68,2.75.69,2.96-.52-.98-.68-2.74-.68-2.96.52Z"/>
          <path class="cls-4" d="m59.48,164.84c-.94-.03-1.03-.66-2.22-.52-1.15,1.28,2.5,1.53,2.22.52Z"/>
          <path class="cls-4" d="m8.96,125.73c-1.78,1.75,2.47-1.26,0,0h0Z"/>
          <path class="cls-4" d="m54.39,156.75v1.04c.74,0,.88.42,1.47.52-.07-.82.1-1.8-1.47-1.56Z"/>
          <path class="cls-4" d="m83.15,157.27c.58-.11,1.47-.01,1.49-.52-.58.11-1.47.01-1.49.52Z"/>
          <path class="cls-4" d="m16.39,95.43c.21.15,1.12-.25.74-.52-.21-.14-1.12.26-.74.52Z"/>
          <path class="cls-4" d="m65.45,158.83c-.94-.03-1.02-.67-2.22-.53-1.14,1.28,2.51,1.54,2.22.53Z"/>
          <path class="cls-4" d="m49.23,159.35c.57-.12,1.46-.01,1.47-.52-.57.12-1.44.01-1.47.52Z"/>
          <path class="cls-4" d="m45.96-1.22c-4.69.38-.05,3.13.74,1.57-.87-.09-.8-.83-.74-1.57Z"/>
          <path class="cls-4" d="m95.7,126.26c-.3.89-.95-.11-2.22,0v1.57c1.43.24,3.78-1.41,2.22-1.57Z"/>
          <path class="cls-4" d="m13.43,92.83c1.48,0,.94,1.42,2.96,1.04.71-1.27-3.31-1.73-2.96-1.04Z"/>
        </g>
      </g>
    </g>
  </g>
</svg>