<?xml version="1.0" encoding="UTF-8"?>
<svg id="Capa_2" data-name="Capa 2" xmlns="http://www.w3.org/2000/svg" viewBox="0 0 47.89 52.91">
  <defs>
    <style>
      .cls-1 {
        stroke-width: 0px;
      }
    </style>
  </defs>
  <g id="_1" data-name="1">
    <g id="_1002_map_location_navigation_pin" data-name="1002, map, location, navigation, pin">
      <path class="cls-1" d="m46.98,5.08C30.85,1.05,31.86,1.25,31.66,1.25h-.3c-.1,0-11.9,2.02-14.92,2.52L1.61.04C.81-.16,0,.44,0,1.25v45.37c0,.61.4,1.11.91,1.21,16.13,4.03,15.12,3.83,15.32,3.83h.3l14.92-2.52,14.82,3.73c.81.2,1.61-.4,1.61-1.21V6.29c0-.6-.4-1.11-.91-1.21Zm-16.74,7.66c-4.64,2.62-7.56,6.65-8.67,11.49-.71,3.02-2.02,5.75-3.93,8.07V6.09l12.6-2.12v8.77ZM2.52,2.86l12.6,3.13v28.83c-.71.61-1.41,1.11-2.22,1.61-3.53,2.32-6.65,3.13-6.76,3.13-.71.2-1.11.81-.91,1.51.2.71.81,1.11,1.51.91.1,0,3.63-.91,7.46-3.43.3-.2.61-.4.91-.61v10.79l-12.6-3.13V2.86h0Zm15.12,33.07c3.23-3.02,5.44-6.86,6.35-11.09.81-3.83,2.92-6.86,6.25-9.07v31.15l-12.6,2.12v-13.11Zm27.73,14.11l-12.6-3.13V14.25c.3-.1.61-.3.81-.4,4.03-1.71,7.86-2.02,7.86-2.02.71,0,1.21-.6,1.21-1.31s-.6-1.21-1.31-1.21c-.2,0-4.13.3-8.57,2.12v-7.36l12.6,3.23v42.75h0Z"/>
    </g>
  </g>
</svg>